<mxfile host="Electron" modified="2025-02-26T22:24:57.879Z" agent="Mozilla/5.0 (Windows NT 10.0; Win64; x64) AppleWebKit/537.36 (KHTML, like Gecko) draw.io/24.4.0 Chrome/120.0.6099.109 Electron/28.1.0 Safari/537.36" etag="379hMHw-bLG1L__EJZLA" version="24.4.0" type="device">
  <diagram name="Page-1" id="U8x9KBUUHX-CpVjGIPqY">
    <mxGraphModel dx="880" dy="532" grid="1" gridSize="10" guides="1" tooltips="1" connect="1" arrows="1" fold="1" page="1" pageScale="1" pageWidth="1100" pageHeight="850" math="0" shadow="0">
      <root>
        <mxCell id="0" />
        <mxCell id="1" parent="0" />
        <mxCell id="RWeXVQ2_0HFQkgd2XHTl-38" value="" style="shape=image;aspect=fixed;image=data:image/png,iVBORw0KGgoAAAANSUhEUgAAAF4AAABeCAIAAAAlsDQ5AAAABGdBTUEAALGPC/xhBQAAAAlwSFlzAAAOwwAADsMBx2+oZAAAEiRJREFUeF7tnNlyG1d+xgl0o9EL9o3iqoWWLCuylEQZexJ7KpVMkpmayuXMK0xyM5VX8IMklavMhSvJA6RcNUnZjuMosS1rp4e0xJ0iQWzdjR3I73S3IFIESIAEQE2FHyWwcbr79Dnf+f5bN0Bfu92eOEc3+L3f5ziEc2p64pyanjinpifOqemJc2p64pyanjinpifOMuWr1erNRpMNWZbkgOzz+dz2NwRnQw3XtCyrbJebzVZ7oi35/UFV0XU9EAh4R7wBOBtqyuVKIV9st9o+vx9q2u2Wb8IXCMiqpum66ve/EWZ+BtSglFyuUK/Vfb79FDCMNjalKAFNU4NB9cDOs8AZUGOWTNO0D0eAl76mjeuRZAn5QBPNTuMZYNxLU6/XbbvSdT2gplwuLy3/dnd3F02VSib/Go2Gt3vsGKtquFaxWLKtiiOQA3LAv8Da3bt3NzZWZ2ZmZ2ZmwuFwIp7wy341qKqaIkms4lgVNFbVVKrVSqXqzLDLJIulIpientnZ2Xny9PGzZ8+2d7bbzTZSKhSKlXJFuKMxYnyqabVaYoZ2xeeXulJTdfDs2fLTxcVIJDI1NWXZ5kRrYm5+HhUhNFUNasIBKd4JHlWjktL4qLFtFt905tF9Mm7MzuVy5UpZ8ksrqyvFYoFkMBqN+v3S7du3W62mLPuDQUGQJMHvaKkZk0E1Gk3bsp1l6DkTZNVsNmOxGHqZmp6KReNmyXrrrauhUJjT8cd7e9l8vkB4g2KIbjaP6u30GJNqSiWrVCr5fd1N6TVgO+SBrWbr4aOHEAFld+7cWXn2/AWuZ6J98+bNeCzOYa58CPAjShHHQU29zoLnyH0dXvpdZ0FQu12pVLAdXp88eXLx0sVCoVCtVC2r+O6tW6qC7wnKsqxpwX0OaGgYuUHBvGXaLU/8A+i/1W7xqjmgjEAja2truzu79+/f/+bePTT48MH91ecr8I7dmaZFku2eOCyMXDVE63yu2KYGcN/3SU6b0CQKK9e4/D5/rV5bX1/f3t5GJuvrq6oSZG88SeoTJ5xlMpMBWQ6qQXJoTvE6OR1GSw0rWciXqtXaCYYLI0ze2263cSg+yReQAsSvpaXvXmxtw8jW1hb1aChsXLgwnUlnCGRBNaDrWjA4hApjtNRgSqUS5dJwgIkJihFUu9ls1DfWN5aXl9++fj27t0c5+va1t8XOdgsSXfmc8hbHCH0NEbdc6V4unRI4ZkUJTk1Pp9JpHFCxUEQybqYDd0Q02yrn9gjzbrpwQoxQNQRsHKRjScNZAIYqXM8+v0WyQ/BCJpiV0/ZqLu5h2FooZHhNA2JU1FA653KFRgN540c9dHyHAJunvjJMATZQituCh3I3aIU4SZbS6aQsI6iBMRJqMPjcXt4uV2RJoXsRbRz4+XEXt92uN+okde7VXS2wi/qAACQ8rtsyODgLl8QPILemp0wmqWqqt3sQjMTXOAU2OhdrxaISet1/7ZcCIu+vVWusqsgDhe8Us+FtrVajzgb1et09ciC4/cA4pABahKj8+6Q6CIavGgJ2PpevVKuSX6Z/r3UfkBH6B2gEgThBWpiBM60WrPHD7CgsSfMc53o8OqSw0ZkRgUxTg5lJgvpJ2Bk+NZZlF4sltNKVF+COvkMQc8JjUgY59z1l/BG8oBpkxcFB9VUM7jU/zm+0GvDy0s8IiE597VQ6YRhvhhtuiHIp32wwLNetdOvcJxzkXnaP0A4tcIFR4RkCAdnQDUPTFVXB+jgGq0Q/QU2wQ2ev/PlLMHjIxXYOz4IduqElU/E+dXcYQ6amWDAty3Ik05MazJ/JZPey7MRk8LxMr1ar4pjrtRrWZISMWDTGLuSD0+JgtKPImOcrMGzahei6jR/GMNVMJqVqQa9pcAyTmmqVgJ2jkhTmIdTQ0wSA6yCdi4tD8dbMEiJMs0g2xJnJZDJkhBgemQssUGS660+LqxRe3X5EdwfB/mg8Eo9Fu+7tE0Ojhn5IZMrlA7fEnTmL+rDz1t0AxWJxdy9LKIMRORAwdD0Wi4WMMKxW7PKL7C6VVzqVioTDUEDMoh9NUzE9agThVhxw0cOTpzGgyJnJFAWn13QiDI0avG+hWKKz/fN3tzvUuHkNk2G2z8HKCp4XiRGR8CyKopD4z8/PhQ2DALfz4kWtXs+k07qm45VhR5aZbABLcnvrCgaAqhLJWDQa9ppOiuFQg7zxvrVaw/Eygp6ucBdZJDiYCS620RQL6zDFzDe3X2xsbei6ce3qW5lUmuRoe3ubgycnJzm3VDLbrQlN051sqeeYcU+6pqYzyRN73w6Gk/JRzrHCjiW5shHz9/btgyt+wjUbKlE5qFQaVBQ19JJOp3/vxvU/uH0bL/L48WOctKKq0VjMKpchHa/CVJskPa3aEd5DhDnZj15OzwsYgmpIYfEyuMVOb8wcdjp2dBiEj+2t7f/49NOiRQY0EY/FFxYWrl69GomEd3ez9+8/UALKuzdvSgH5+bPnzXrj0sV5FtG2bdqJXL3GTMIYDodS6aT3/nSQPvroI2/zRGCQlri9XyFDE4zsX9PeywuwFwI2xoJ/QXFPnz7d2tpKppLpVNrvkxYXv2tP+FPJJCyYpRLZTjAYID/2++VeqiEqUX/FEzFevabT4bSqYYKFQnF9fX11df3ixYupVMrbQddHpueQKKoE7M8J20vLy5999imO5q/+8qeGqn3+xRdF0/zwgx8Gg2oumw2Hw5qGWLxzD4NZ4H1jsUg8Hjt6SfrHqXwN7tOybRzqi50X6+trJCCvC6c3mIoTrMQGcera1at//MM/WV7+/u7/3JWVwOz8jKYpZIBKQM5k0qp6FC+AToJqMBwJDYsXcCpqyGIIq7u7u5ubmzMzs0jGyeK8SYjiyPnnvnXR4Q4/TQD6+OOPf/1Pv15eXiZ+z83Nz0zNPHn8uGQWL0xlfv/2rZBh4JU7HfaCYNnnQ1mY0rEH94+TU0PAxi9aprm6uspcL1+5HAqL5NXb3QOCKbyIz4/ivr3/7T//67/8/T/+wyeffFKrVCkFfoQJvf8eY1KkALVC/zd3NV3VdXWIvICTU4PvrdXqm1tbLP7FS5cS8QRkefsOwRULed1/3737ZPEp73E0KMUyLeoEshWJpLnVmp6evn3rFozAYD96cSAq7HDYkCQ/cuQqXvOpcUJqyOKhpl5vFPKFeDyeTmcYl1PrHZhMhxGMjjobwe/s7ty9ezdfyOMU/ugP7/ztL//m7371q7/48Y85FDaYp3dm32A9QiFdDbpPL4fnaU5GDfO3yPGqjZVnqyRhM9NzQjKtlhjXvqlxGKSwgT96+OgRdkdKsnDlyura2pdffgm5iUTiJz/56c9+9teJRMrlVFA7iFFgleJWRijkH0aO9xpOQg1JPSnJbnb38ZPHJPuZTMbVh7f7pVhgJJvNVqtVGNGN0Or6xl4uv7Dw1q1btz77/PN/++STtY1NdIfW7HIZ4/JOHgCY0gRZIv17DUPFwCkfWS9Fc9kuowISl0uXLieTSccWPLCSiBxXwu+9XK414dN13PMESR2qmJqamp2dmfBLX3/9zeMnT6kxaf/63jcii00OlsVyIWrxWCIijeaTEgN3ioupVus4342NTb9fImAzxE6ERixYhHuHhZyeQjmby1FGc9jc3Nzid98tff+9qul//qd/9ouf/+LGjXc417QsXWOOIr70b00cSaEUChukyF7TsDFYNoyN7GXz5PWPHj3a2ty6fft2JjPJ9LzdL6mxLItxU0CWSqWV9Y14LHbhwhRm+NVX/7u9s3Pt2rWFKwthI9Ro1asOiTCoyNJAI6HCpnpIpaiwRyIZMBg14kNRJeu3S0svXmxfu3rN4aXL6bCAizEMA7MiuheKpenpmVgsVrbth48frayuEq1np2cmL2QURSRpZbtC1ssBIvz2AU7xS750OoHavKYRYABqiCm5vUIul//iv/4TU/rwgw8M3SAwebudEbsb1OIIRwkquqY36o3V9fV6rU7OEg5Hmu3mxtbW98vPisWCuLlDyCZhbrbm5mZv3LhB1kd2c2wI5gxMKZmIH12mnRL9UsNhkGKW7CdPn967983777+/cOWtzrlsdLYBJuZ8mrMKd4FAkCKL+pNgRPoTjZPjSvVG3TZNeqP+5njVMCIUkGqQZNm52+N20x3w4twPTCK0oeYxr6NfarCRbHavkC8SmHh7+fJCKBRyvcxrvLhgFyG51WiFjDDZbblq42XgQtW1WCRiGHpAwR1J4oOyLV8TqdQb4mmdeATMdI+acbvdTCTjxGzv/cjQFzUE7L3sHlnJyvMVyS9Nz8zAi3vifh98EL5mo0WRhebxCAFZarSahUIJ6dVIiwNyUFUlJSCKqWa7Xq9RKExmUsQ0p9ee1MChqgXSmfRQ7uMdjb7cO46jUqlaZpmYTRasaiLQQkpvXkBbkv26oXEkpuM855WSicT8LP4Xp+M8J6Bfs1QuU0a1yfT93rOXoyTj80+EI8O5v3ksjleNuO2wkyOdIWDncrk7d+5EIpEjSemAnn0oDlqpGDArVQ1KUoAoRMAGeGCu76cO9/mwLe8M0IMc4X1DRiIR86GxIxkcCo5XjWniLKsYFK/UBEfzQrR24bwToyfv0HVV04LNVsM0LXwvCaFbW8mSpPAjCSOqNbA/QZVzYhfAiyxLRkj3U2GPnhdwjGpY2uxuNp8vPnjwkAB8892b2ALtvc4ix8O/4Imi0ag7/w7oqlEXz5vI1pwGeqAIksUvfnwTqnP713lS5ew/CLxvNBqJxaNO6jMOao5RjeNTxL06Rj8zJ76I04sUjILXzc3NBw8eLC4urq2tkQ3vdwrIJxhUWHaIcz6kqWBixCklGMB5GZpGQiw+w3j4ob/j7KkhsSYn2/YaR41jVMPenZ2s86U3AQKKS0FX4FW/+vqr3F7OCBm1SvX6O+9A5ezsLJa47yru6eKWpZCLk/N1Wp0WcOASzrnteCIWjYTdBzhHjGGIOEY1DIKaOBCQoYQQc/SYZFlOMIN4bGl5efn5M9x2oVC8d+9euVImWnsHibmJ6TFhpsx/etzX6cF3DjhG3BIPGexhAEePYYg4PkKBslXOFYqk/85iHzUykQKLWznZe99+G5BlLaju7u6+9/571Up1YWEBE8M0+rliB4I7yZdKJigmvaZxoS9qAO7TMu1iyWyIB7jg9cyCpu3tbX7Va7X5+fnt3Z21tdWHDx6KJ1OttsjxlOD1t6+HwiEI8s45DoytPdHExYhnFWPSyiv0lfIBjCUSDWcySebmE8/zDyw+vCCHXD5PWygUxqDwOzfeufHhhz+an5tHbisrK3jf3/z7b5aWlgjtHO+deSREwJYkLHr8vIB+VfMS4nDbrpRKJukJ/DgpjDfwrZ1ts2T5fVIutxeORVRFI9pQB9q2ufh0Udd1CrEfvPcDCcX1N1UCdiweicVi3vvxYmBqXCLQSLFo2pYtHBCBS6hPPF4ibyEJsmy7VhdeR3yfIhiIxqJka/lsLp1OG4bR5xWdgE25lCTEe03jxaDUHAA1BDJxnro00bxjJoK4Wq1erlQxInIZastGo4ZZkRGLHKnfy3FcO5mIi2e1Z4R+fU1XsJ4E62QyEQpr5GKkuY4PEhl9NGJcuXwpIFI+8QlgWBuEF1FkkRbqhs72aRbvNDiVajpA/OVypVgQX31yWxwBSbZt4V+UgOKWF32CIZFCpVLJzrPaPt32cDEcalw0G03LskslC0NjggR48emAlsiFBroKuotEQ+LjIC/xO0+Ni3q9gXwI3tST4tE2vHh7+gJ2JysyWcIovmk6EIZPjYuyXSkWSyTBFKd+8WUFgWOv5exvR2PheDzqtpwhRkUNwAER3Uum5XzbAJvgWt6uXmi1mpRLk5mUdKJvMA0XI6SG9ad/8WVjKnfLbog/i+VF967AxeBSnHh3wi9cDBcjpeYVEA7yMU0LV+L41C5JAyojY05nEif7js7QMSZqgAjwdgV2qDBaLe+Pa3TAMGAkM5lS1ZF87OEEGB81LpoN8cnIUtGs1cQfshER7OUYIpFQLBHp+lnsM8G4qXFRrzXEnz8qWw1xr1z88TnDCMXiYVmmphcO2zvuTHE21ACuSwFKtkz6o2pBw9AdE2MwbwQv4Gyo4aLAlYdzffERgMO3x84WY6Wmc61DF+WtEIsg682wJnA21ByB/6fU/G7hTYmUbyDOqemJc2p64pyanjinpifOqemJc2p6YGLi/wDPm+h+cb36tQAAAABJRU5ErkJggg==;rotation=-30;fontFamily=Courier New;" parent="1" vertex="1">
          <mxGeometry x="630" y="445" width="50" height="50" as="geometry" />
        </mxCell>
        <mxCell id="RWeXVQ2_0HFQkgd2XHTl-24" style="edgeStyle=orthogonalEdgeStyle;rounded=0;orthogonalLoop=1;jettySize=auto;html=1;curved=1;strokeWidth=2;fontFamily=Courier New;" parent="1" source="RWeXVQ2_0HFQkgd2XHTl-3" edge="1">
          <mxGeometry relative="1" as="geometry">
            <mxPoint x="180" y="210.0000000000001" as="targetPoint" />
          </mxGeometry>
        </mxCell>
        <mxCell id="QzGDsle8Kh0UcfLWFKWC-1" style="edgeStyle=orthogonalEdgeStyle;rounded=0;orthogonalLoop=1;jettySize=auto;html=1;entryX=1;entryY=0;entryDx=0;entryDy=0;curved=1;fontFamily=Courier New;" edge="1" parent="1" source="RWeXVQ2_0HFQkgd2XHTl-3" target="RWeXVQ2_0HFQkgd2XHTl-37">
          <mxGeometry relative="1" as="geometry" />
        </mxCell>
        <mxCell id="RWeXVQ2_0HFQkgd2XHTl-3" value="" style="shape=image;aspect=fixed;image=data:image/png,iVBORw0KGgoAAAANSUhEUgAAAGUAAABlCAIAAADbHrqYAAAABGdBTUEAALGPC/xhBQAAAAlwSFlzAAAOwwAADsMBx2+oZAAAK0VJREFUeF7dnQlgHHd97+fe2fvStVrJuixb8h07cWwnKSE0IVxJQygUAgRoy3tc770+aJv2JUDPFNqkpaWP60FajgAvMSQkwSQFcpMQ37cly5KtW1rtfcw9876/mZVicGwnsYLc98tkNLs7OzP/z/yO7292ds06jsP8JzEcqmmaHMfxPF9/6jduFzWvSqWSnZuby2bz+fzMzMz09AweSZIUiYSTrnV1dXV2doZCofobXnu7GHnZjn30yNFDhw4NDgyeOjWazc5pui7wgkMe5ti2O7Ms0zJBqqe7Z8vWLddcc01DQ0P9/a+lXXS89u7du2PHjj2792ZmZ0VJ5HkBJi6YJMK/fJIPT4Max7KKogwMDjY1Nd1yy3tuvPHG+lZeM7uIeOm6fu+99/5w+w/mMnMsz4vAJIkCz7Mcz7IMyyJvUebieWQwwefzRSKRaDQCdpJPHBgY3LNnz1ve8uZPfepTiUSivsXXwC4WXkhV/3j3P4IXAOmGEQlHZL8MXn7ZDzSSzwdWcCjTQiBaCFg8JG/zSQ2JZCwei0ajs7OzjzzyyNq1az7zmc/09PTUt7vYdlHwwjHceeedX/nyV5RazbDMcDjc0tScbGjo6+tLt7VJkoicpbqmKGqtVq3VEIWKqqm2ZYMpHKotnUb+AvSHH3qouaX5c5/7HEpBfeuLahcFr2w2+7a3ve3I4cOGYWL8mzZu6l3R29/fD+dC8jItCysUCoVSqYyYxUND1+FlOHLMvQXEZl/fynQ6nc/n7rvvvt7e3rvvvhsFtL6DxTOu/ndJ7fjx49PT0+VKBdG2bt26zZs3L2tfFo1EG5sakauqlQrjMAE/GVIYEbKpSLIwV4zhLwTHvn37oDna25e9+U1v3vnCzr+78+/gj/UdLJ7xn/3sZ+uLS2EIK7jDF77whQMHDkCLIhJ7li9HfCISm5ub8ZAX+HKpDA02l82ZpoG3cCyHegm/wzK4YWV3S9hUbWZ6JhIOr1q9Cg+3b98eDAUvu+wy79XFsqXkNTk5efuf/6+77rprZGRE0zSEFcZvGWZ7e1ssFo3FYoZuZOYyGHZLKhWPxQKuIf2jRmJdcjQD0Yl4hLfRBkF/fHwsHo+vXbcO6f8nO3asXrMGgtbd2+LYkvGamp7+409+8tEdP+nr6w8Fg3Ag1DukJ+jQcDiCZJ9KpYDGMM3x8YnhEyemp6dy+Xy5XEaiNwwDAQnPAi14JSh7IhaqA6+CPrysr7/v5MjJp59+Gmp2EaXs0uR7OMVnP/OZe75xz6WbNsWTSVM3JqcnB44dg5LIzM2h2P3OTWQnhk48/vjjCEa4nae/8D9iEWIVeoJhGdTHeV7QGHhE/wE6RMmmSzfG4omHf/RQsjH5pS99qb29vb7vC7Ol8a99e/d+7m/v7OzoWLdhQ2MTTn8DBDpkQe+KFZlMBnUN+qtWraLkIeBmZ2bQD+G8InMhtSP3E6YXPQuuBVgUyxSXbh0AsvGxMdBFHjx29BhKwVVXXRUMBuu7vwBbGl7333ffnt27N2y8JNWSamtra2hsQLbatHFjLpdHS/j8L59Pt6YxQYhu2LChPd2O2LMBhyIOIQGtj78AB3NxuQveH5cdrYbnoeZSra3XXXvt7ExmfHx806ZNXpW4EFsCXvCLe77+9VqtBukAOiClqZosy+irm5tbgoHA7t17Dh05NDY65mYrBQAS8UTYbX0o04MMfIxQka6g7rzuWfQEIhrBDjm2dt3ayzZvbnQz15o1qw8fOoQm4cJ1/xLkL6jwD77vVggFTzpAZGHAkAsvPP/8777rXWinv/BP/zQ6PoZGZ3xiAjS7e7qDgSByfzAYwpogiHDzDpvA2Q5hs5HIoDZYFNbOjs5UOmUaxtjY2ODQ0Oz0TGNjIzzr7Te//eMf/7h3DK/aloBXsVi89ZZborE4+uViqRgOhTq7Op977rkjhw5vueKKLZdvuX/7/bt27exf2c8J/Fw2q2tqOBSRZbiX7DbbHINEBlJ05Qca34ZkhUNBryGugRv1YeD44KFDB6cnJ709wlAx77nnnrfffHP98au1JYhHTVUf+MEPMdJyuYQ58GGQKIVYgKaKJxLofk6dOgUHTMYTyURSkKSaUkNRpMroqnmkJ0EUEMuI35V9K9evX9fV3Y0wHBgc2PPC8ycO7eaKE/3Noc0r25bFAtlSTbOcj37sYx/60IfgpPWDeLW2FP5VKHzg/bfqugbhHggGwSAYCg0PD4MXBD0UZj6X2713r8hzG5r9PkkqiFE+GJXloOyXE4k4xJos+7Em6p2F6jmXGYE8GzxmFGdbw/zKdLK3s21ZezoajQkiX5iafvDxXcltb/vjT31qUerjEvAq5Avvffe7EYnVShWSKh5PQNxDx1uG5ffLkPI1RZmYmNQNfVOSX9fkq1rMcMmZ1Hk5FAtF6DoPhEWtWssX8sV8jjXVdFhY2xZf0dna0bks1dYeCEcYxCwKKONwujqXKfXf/F8jyVR99xdmS8GrULj5prfPzkyjnEFYRaKRKuKtWkXOjoRC4UgEC4ViCXWuOyJcvyLSlkoqmjWTLYzNlfNVDcrLvXzIIopT8WBPa6Il1dLQQn/8IOWOCIaSifQmMbZhsl1veLcQXpxrFUvAq1Qq3XjDDaeGR5C5VU2DWMfYSuWywHHhUBjJW5YkHFNVUZNB6c3LA5vXr4g0tiqVSmFutlYuoxrCKyWfFAiFIrF4OJ4MJxsDkSilNYzF07Qs65ZMTUQ9VY3Oq97hb15W3/2F2RLwgv567/ve+9TPn8DAsKxqKlqdcqUS9AdFJC33mrPf7zct0yeKb+oOXrOlr7mjVw5EapWiUilB2KMZkvw+ORgOhKOBUJh1i4BLiuMEkYMoZXnbNPRqkTc1raant90Ybuut7/7CbAmuf0EK9XT31FTFMA1V1xCSgAVvqCrVSq2mGbqiKtVaVdcNeF9eMeAzkPdww3hjc6q7t623P93bn+rqa0h3BmMJTpQ4QRJ8ftEflIJhMRASfSHRH8ICL/hIcdiW414IWhRbmuuFW7ZsQTAiE1WrVShywMKTmEOI4hnke12l687FYqmsmY5Fah5HikDgIS7kgOQPCpKPgzeKsuAL0kNfUJCDvC8AcLzPT/jkkCgHANqxDdsyvf1euC0NL7Ry6bY2CH2v+0tEQpet6v6tjavWLO+IBv0I0hLaJVWtKDVNh39Rq0M5iRPcC6qIOBEJTJAAC2hkTnIZgZ0kI1B5n48X8SpeCuA95F/2f3JeLS0t27ZuNUwTLLpSDX/2nuv/6oM33H7rDV+646Nf/Oz/vHbbpSw1gxZAGSbm+EtJlq7n8ALym5uk5ieR6GByA9OH2IQPYg7vA1NSFZbNsouWo5eGF7zkxhtvhCDA8rbV3atbYycP7zv2/JOn9j2/rqPhC3/5yRvecIW3JrkfPMQ0MINzsTwm3p0ADrxAZ4Gdy0gQWc8BoVYFiQLZseCb3tYu3JaGF2zz5ZevWbMGC+GAXykVakpF9vsyYyNP/PC7Znb8jz70zhUdrXhVFlD6HAtalnKQJ7wgV+FkgotsARwmapmwjJfIDV1kRMqi5LhYtmS8EonEBz7wASwcG8+UDDMWDfsCUiQarORmHn/gvkYfc83WTbRaSBJ4jsQUXfxyPFjARVHpOpq34E4eJneiZYStwHCIbMvd4eLYkvHCoN/xjnds27btl0dOPD88B18QBS4Q8vsDvnJ+bm5qbH1HU3PE3xQNIms5luFYJgIT3jUfWq6jeRPn3jNAE1l92SOLtbHEi/U3XbAtGS9YKpW64447orH4D589lLUkWaTyJ4ciG656Xay5ZVmU/9j1G9YsTyOcLNO0SHZYDsQF5X4PGpFAFfCUKibIVBcTeBEnaoosk57nL/Sy6oItJS/YG9/4xttvv71QqT19fNbfmBZFnz8YwlihUWVZWt+TSkZCAGQahqEplPWJFniRhqVs5pLz/pLnIdURNe9CIuMYmmPqCF5WpMKyKLbEvDDIj3zkI5/+9Kd/vvPI/olyJNmM4U0Mn5gcHuIFGRUR2gkc4Fm6WrN0HTKDkNUvQJPQwEbqCL3/SdDTGkhbtqmj+UIuE0S/t7sLtyXmBUOSue222/7kT2/78vbHnx7M+CON8WQzYzNqVTEMV2c61EgbmmaoNdsyGORv4oW55cHDq3WOMAaEXWbQb5qKlpvhJTEUc3e1CLb0vGBosIHswx/9xFcefPrZ4Wxr5/JINDY1MVYrV+CAbvhBgukaXMyAi1mUyDxklgks9bxGT1oO3eyEOX0waekKVuAg+tEYLZIt2efbv2bwsiuuuEIzzH+95zu5XKE6O52fnozHw7JfhtNQbnKxSv4wmp56BaRS6F7Lp6uDyPduMqOghNkIRi0/o85N+ROt0d6N9MJi2BJczzmHaZr2iU984v5v3vPOjctWtCZSbU0+vw8QXJXAoNOOp5ZFG1Oi22+jQ+TRdUPiY+6KL4LoYkNCM9VyeeRQcXjQWHbpWHjl4PCpE5NzJVVHlfXLvs5089UbVl25rtcnvLIIu7h4wQ4ePHjnpz56RUoMB2Todp9PgPAkV2KhCoRwsjnR0i6Ho2BE/bYkU88okazH5CkJlEnEpF7JVocOTAyf/Jdh/5N5SdFNVg6ykgTPo+1Zhr9S2NjR9Od/8M7L1yyv7/tl2MUSjwtGn2iYJSc34QtGvLQtCOiJqJIi0igkZT9h4hGJdaMyS2916wLlfQsyQitl1ZnRsUzxawNWIdTMB0MOdK+7CyQ803bKpdLRo4PP7h9cv6JzWcvLvSHlosj3p9vATPV4gbwEERcMxw33TkKW4SgpwWs0Va2WDV2xTcM2DCgMPGVjJUO3DVpAQcQzUB9mtawpynDJmiuUzJlxxzS9C2xWrWYrNdIZ1C3xR09N3fbF701mcvXdn88uLl41m7n3udGZfFWkhM4FwhE5GK5VahZdlxcAzNRUpVzSalUTIzcNFE3TNExDgz/hGVNXLSwYmq6UjVpJUfTnx6smLziVvDo7Y1QqWiajzkypM9NGqUi+xvPwyGcPD//bI097B3Beu4h4zczM3vWtHYdmtEQsSCIT+ZtlI8lGUQ5CWNgOyws+INOUqlopGqSt4FOGZWgLk0sNyFS9UtRK+ZmSsnO0bNYUKRY3c5Pq1IRZLtmqZiuKWSrZyGheK8Cw33j4mVPTc/XjOKddLLxOjJz62J/+5Re/82hbVzq6rMMBMJGaZF6UGtPtoVhSVxTbRpD6oa2qxVytXDDgUPAvMNIwqaammAbmqq5UjFrZKJeeH8mP11inVgUTOR5jtAojSNRLwuMQ26pKlySJgDMyPffd/3jOO5Jz20XB6/iJkf/x2c9vf/QpKIZUc9hq6jHCzaxt0OVUQZCDwab2znhzK91+aRhAZhlWOTerlArwLzd5uQkLyJSaQbBKRimXqdqPjVqGQw25lsuKDSkpIDFaFWcA8gQ7RQakS68Cz/JIjuyDT+6pKZp3POewpec1Njn1J3d+4eEnnsPAkJNYUxPbV6o9lyuqivQiQlCIImpiY1tHa9cKye83dBWRiTpYyWdqpQIlMoO8DA05gpTmlYKh1I5FNgw7zUhPnBywKmVTUf0dPZxeYQzd8y/vQyNO5DlRdGxzeHx659ET3iGdw5aYV2Yue/s/fOmBx3+BJAJVgJwzNlWQRUFc94ZKy+pKMccxtiTLoo++OxRpaEqvWB1vTtGH1gg9Q68WEJhFOB3aJbcNMtEzVgxnsm1bsf8NQqIdXsRIEuOT1fFTfLxFbmpiKrMolLRvhDeqiihBDDOWns3O/fS5ve5BncuWklelUrnj7//l2w//HLWPLmP5fGph9tDBAV3T+XBCuvJdpYbe2clxtZwTJEkKBEUZCiPS0rUi1dPnD4VNrYpEVsrOlOZmKsVCpVjMT46NjE0ejm+a6L5WjsbjyST6R+Q8Tg7a1aoyMeZfcxl9za1aoNNjGnSZVpYp6euKpVQPDQwZkB3ntCXjVa5U/uxv/vGr9z5A5x/nm5dYdMWWdnTX80NjRQ4tTawl8PoPaMuvGB2fnBo8YOg1P8mLkBQIxFrSrb1rGpf1SAG5WshODw+eOrJ/eP+uwV0vQLup6UsCEhcQmGg0jL4IooH1yYwvoI6PosbKHcuZ6hxj6oyD5CWggSAfRCnQKidPnjo5MV0/vrPY0vDK5wt33P2Vrzz8BI4Y55+UOroeqPaAP3/yyBNP7dYM9C2WEUiEX//ewDW/n2Fjg7uenTy2D74QjCf84WgwEku2dad6VjV39MaaUsFQJBAIcPFmadWVyUQixNl+iY9Ew9C91EsRLxnRqs/NSqkOFhC1GnbqfZ7kaCqjgFd5bPTU0ePD9UM8iy0Br4nJ6U/+9d1f3vGskGiiTlqQoB5c9SjygTAnWHuefOzpXSckQTQts4L8s/rqprffxl36jhNTub2P/WBk99PQX2i55VA4FGtItnenlve3rVwba27Xmnpjq7fGeUsGIoGLxGIkShybzgS8mBfRBwmROFp3xtRQClA3cALsWpExFIblczOTJ0+NeQd5NvtN89q558Af3vbX33nmgNTYSj0Kjl0QcayUUDAAwSfEEmpp6sHtPzpwfMYvoXLZxWpVDcTjV76z5eY/N1a96ejwxDPbv7n3sR/OjByHgBJ9fl8ogvo4mi1Ll1yfbmoMcY4EkcDSPZg8GBkaK0qs5Gc4Aetzsp92Snc72RSSjkMiA3NRRmAOj1w0/qUoyte+fd+tt3/+yfGi1NSGQ3d0jdI8TjJdxuKhrugqli/ga2zMjB/93vd/NDJZCMhojZiqqhUVjW/sTL3+fctu+avANX84rYp7nvrZL3/yg4EXnjpxYOfRwUF77XU96y+P8VZQZH08i+YgGgr4ZL+jK6wospKPZIRlc/4gnRvbAixb07AIkYfsxoeovZ+enND0c92c8hviNTA49JE7Pv/Jr94/LiWEaIJqP3pjupMJWcQtjkDmOJamI0Z4f0hubh4c2P/v331kdKoU9Elgppl2UVEMm5EbO5b91u/2f/jv29//t2zf1WPT2YEjJ6pr39Z37dtb41KIMj3n48CLCfhFfyDM6iq2zyIeRQk6BMKLLmbQVSzLqpXRLQjJZrGpTWpOownPTE9lc+fqvV9zXrZtP/Kzp279i3/efnSSa+lE/rV1HVoR7YhZK6NToU+h50MSnR1exUMhEJFTLYeO7r/nez8ensj7JQQqB1hlw4SghyOgFe9cf3nPzf89veIt64fMwEOPPn3vtw4dGgCasE/wC6zIMeGABNlhq8hNLCeJ8DL6NA6yS3TvE8CRVStWuSA2puS2Lh5x6jDjY6cmp89VIl9bXojBf77nu//l7m8c1ZGYGujWIsNA2sKYjVLe0XXKWhxLKcwNDFLdpaJlGIwIZCFfKrVv4MjX7n1k4FTWJwqIMgOyHjHFOEhsssDM7Nsdz2SvDviue/j7xkff/6UPf/ArX//mqUINQSzxTFCWwuEwA/9yv36E7buy1uNFH5dAnRm5DMAJwSBlT5+vSlarH/1L2WvIq1Qq/9UX//2O/7M9p7LqxGh58KA+Nw3PQgiYpYJVLdEAXH3IIRmz4OUOyTD0XJa8jJeAzN+WPnzqxNe/t+PISEYSeB/PabYDapGgMDE8MvPUEytX9TE33NCydv0fsexv737uoc/d9Rf/d/+RWcUv8iFZjETj9JmISo0hTg18zdY1+Bjle6gKYCvmzGLWqpSQH5A6FVWvVavu4b+0vVa8JmZzH7/rO3c/tItLdjQ2p7tX9re3d9vFUm1q3MAhlot0NZQXHcOAs3B+9/MbcgEXGVrHmSl0NohVQQ4EOzoGZybvue+xoyPwMjgOZ1GBY4aefCJ8+EAC7mNaTLWKkdzAMG8N+feNFP51x9BMXo0HpWg85mJCnrJZ22FtE3ukYLQshhaQRjUzO21XCo5BbWm5qs7OZd0RvLS9Jrx2Hxn6vU9/+VtPHtAdVsnnSrk85w+tvurq6255f1tnt5HPIrOCC4WhbTumzkNPepKCLjxzUORApkxOWLWaw3K8z+9vaxuYnvi3+x89MDQrcJxflmamZ0fu//7qiVFlaEibmKwY1ozjZBima0P/71y/diJXe2TnOLbdkIiRdlDo5mtyK6ozJIV51kbAUu9dyVqZcatadjQFZwst5VwO3dJZbfF5ZXKFz3ztgWcOn2Ryp5zh54yBpwovPDzwo2++sONBTvJd9+739GzaDMehVTmkedZRq6S/XWE5jwyuB2RKbXzMcL/0AVXra248Onbym0B2POPjmYnjRw4+8bPy0ODs4QP52dlMKDzKMK524i7tSV67ddnIdPXoaCkWiQALsaCrEYhBy9I0oLt2c+vd/23j6gaVyeeoS68UwRR+57Dsub/1vfifd/zoyd3/cO+P7cwJZnaI0WvUqZmqUyvWkG+GR7lgrGvVqlIuV8nn6XKwZUBqS+nlrD9gVyqM7ZAcmw9MhwR+FeUf1Y0++RHFqfFT2dlcZ7pt6NCBnz/8YLRaFmrVvKoOj546Wav6HGdTJqMt6wlfuRm+Mz6nBDlj7zM/MwQfF4g6FLmGkEhy08OXdgdvvMTX0Ro6VfNlyzqkH4QNVrC12uu2bXndlVvrgznDFpmXoumf/9bDB/btZbInqQDRKXWoGFH9Nq3i3MT4jOkLN7Q0FKfGTYvoOMUMUrK/s1dsaLZ0w1HQ2bm8PEfDUEpFlFRekqgZFPnp0ZF8rlKNrjzJRRRW52YncjMzemtz7+o1l46PNZeL/Gwmd+U18Z7WclEtFcrD+3+hmA4bjNV5xeKBuRNv2RDZ0MGtX5MOJpLP7p9WStgpCgAJnddt3Xz1Vdvq4znDFjkeJzO5fUcGmDIkjHsLDZl3N4jtdiEmkx0ZfuHZqblSOBFn0cSJfkYK6EP7Ks/+mFVL4b41/p6VaMIZSH/LpCsH6FpMTZ8aV8ZOWrUq3RwQDD2965d79h/oveEPu++6t2XjlVs6lr3793//6ptuiveukBhm+c4nOrd/J8gzfd1JnA8fiokBUhoLMUG1UlnfJl97edtQzjkxPFbLTfNIBUhvyHGIWZafzRVMFJCz2CLwQtRjd4b7Rc2p2ezU2EnGQP2u0yIjf3GbHsxNpIzxmaEhVUSsVAlKpImJp618pvTEA8qBp3zRYOSSS30trfQSBgBklKdNY25WnRiza1V4mSVJA4d+YU3t71/d0x5vWF6pBJCTgkF561afTL/x0X/fv8f37Ew2hrraYtFYFNshkUwnwKDQC0UsE3ik5atSgl1QoDYEDs7l5jh2amauUCzVj/wMuyBewGSapq7ryJGaa/hjIHGCFUKJknc9ExEpVEA8iQWl6JQy1YrCQlLXcuRisVamuZcJJrWBfeWfbzdPHgouXx5edwldzMMwME43qM18Rp8et5QKj9TGM7uffvTwzl/o0Yg2NsbOzNI3I/v7ufXrmWQyXs13PnS/v1Je1t6QTMQgHdCrOpbBAqtln8zD463fu74tFcurSgXymS7qYxcwlsnMzU2c9sXJX7NXycsjBZ8CrAUDLx2iiW5292C5vAiTR20+JcGqc3atxoQSdG1AVyjHByJMQyeTWmWZbHXXk5XHt3NaOXrJJl8qTRENam6HbJYLRmYasSOKYrZQuu/b3901PMpDoJ8cYaFRWlqYbduY1lamra3z4AvJQ/uCAV8wEqGqggCnyyFIsZX8+NjEyXGmNPXCM2M/+WVV12xBEijJkrHlcmVqagqjcx/+ur1iXl7okSvN+xTMgwXLF0q2dz9yHZbrXIKP8UWYUBMTiNMyntRrjlK0HZ6uFqhFWh9nF9RCcSbdx7Ss1PP50uMPKPufCba3B1f0c3A0yEts2bahxdHEOGpNFITp8YnvjU6OchIzOEg40Nb09zN9fUxzs98ntD/6ULBWiTUk3dYHxE24KquVi9nsNx8c2LNvYtcI/8zBKhItpTCcEtdUXcvmsjWczpeyl8sLSQrp6UU/mjcPEwzLIDg5k7FwcJ4fLfCKpdjuTcKKy8WV27iO9UzI/WpdNY8IY+FWarUuX+ns44gEymjt651YmzJ0pARHM2uhvtViQxOVC/d+OVspo6NCveNseyAQ/d+xdHlsgqlWaKdwsTVrmMZGJhlPDR5oOLgvHImCMr0R8chYrKFgbz/eVX7ykJFobEQbjrGxksSSD6rYAkZRLpcxIjqYM+xl8QIpz6fObUCG+HRdxSVFkxuM/gi0QqCjW27vkrv6xJ71bCxFVzh11aE7dB2SacQXu8LRuxsQJKahi2lbCyFRee4x/cQBf2ur3NbF8pxbBGxbrUKUU2GxzW9HGv6VCzEnhhkMElGfSjHRKH1jWat2PvZQjGQN4oKci1ircByoHLZmB2PJxnAAxZGuU1JVofqj+0VEJ33gRu86w87PC7AQzJ6B2ulGgOYXYECGVR1oTs7zL2R3dw5XqpUdqFZT43hOSjaJy/qYcNJRKhS3ksRoZVKq3sFgfRgdrcPIIcSmE+9QTw7V9j3FS5zc0UOxCQ9BZ0PyUmF03XKcz4vhHx09wZSKTMGVwRhtocgoauOB3e17d9GZADWabEer0b6wF96/ZlVPOhVD+0kXlLA7U0e0ppKRpsYG/iw/wXkuXl4MekTO5LXAyDPvoQmvpgF7kegGIyalaE6e0HNZnGHHIE0oBMNSqhMuACXioCuCf1me/6MOehP1Lm5ltJlwI6qnqRjKgWeZSk5u6+RD4bq/oAGkxGTnHeeO8ezw8RFmbo6h379ymHKZFibHlj/+KJ02rOyGpI2KZJjrVjW85aq2VLNbPZEWeZElyraPY9at6mttbfW+q3OmnZ+XZx6vhQXP6uRcmh47LNA7gawej/WQdEpzxtSordQAiKq7ofP+oBhvhPfS5zdAA0lZhwVS7uSGD01YQLw0dNpSTD1x2Jw6KSaSfChKQEENK2CBZQ6Uqn/z7C703syUqwbQBmazTG4uNjeFkHPpG6TgVYUT2KsvTW9c28Ij8iSZshtOLVA4zprV/Vds2xKNRs/2SwJn5bUAC7kC5vIhqxNybeEhYHkLeExvJl6YY+NeVNKpswszRiGL7AMdBKfAnA8EEFz0zUYYVAWN3OWF7OLeDvciOxtuyzDRZifcomemjKkRIRDggyH3JXfCgmV9/8To9/cfZaCeikXwctCiqrrDcn4Qp6yH86Qh5XECFwn7M3ntBzv2DJ2cYSRkK1Rnri3d+jtve2t3V1ckEnnF/gVennm8YC+JD89gXofl/gCQ+243JD1YdWocYyhWMUOXARCVcEMEpmXxgaAQjFD6IF50Ac8dOYUhHwzQh6lExNWrnq/5I0w0ZVWrxswofdoaCCLBuo4GH3GqmvbF46cGRyeZTMZEFaErODSUsOeDmJNooNvQv7Vj6LoPb//gbdtPnJzhZBKrnV3dt77vvVds29rU1BSLnfX+87Pygp0OyzOPDsxF9yKphWXM628mRpjR/3Vq2FqlREXNPdvIYnTOEY9wJeQOlEvCVM9ciBoAFeNxEd0Msg/BcmMKC6IPjmabtpWbgQfSxWV6ldQs1txZqn51MqOWSgbH1kSRaqHjBPAqNk4T3B/7YE9NlvcdnCkVVJwgVpKxnUvXrdm6dUt7e3tLSwvEcH0QZ9h5eHnIPDqnGzGbNzxciEeUBxyBCwgbcGF5k1coDY3aWrQmKKOEjFo2B+UJOc5NxvMjp8mqFB1NkRqafMlGVuDrRAgZxJqAIgAVYJfzLN3DhWPFq27Vc5zv5qs/zVcg6BVBqLruJ+NV9yTh9NBqMByPyKFtxAIvB0RD6WlvgWc1NzefLRI9OxcvmIcM5vmXZwDkzT3zkHnswn4/0jchA6O6c2GG/7Et+t/Warau2PR9M0ph9QV3T8SLom8+H2Fz2TlbVaREUkoAmVBHhlcxeDhsMOHwPpIUeH7BOHZSN75R0U6Wq1DOrn/ZfloBO6HMWF/NMyhV0cfyQovMdba3AdZ5fwPlPLw8qzNzbQGZZxjU6Qt+n8+j5L7NndcfePgcSltIuvAsqpKGVyuJAg4ET1KqehEZ4BrZWbQBUjQqxhPu9UXXQTABAZAFoox0xneDWGaHYf9HVa9pYMnUdToO5ldZecYFwo6u9KUb29raEokE653as9tZeeGdnnkPT4cF8xidaUhinneR0VvnD9N7DiOFa4CRl79c56KQJMdx/cvzIDce3dCzrHLRLOfxVjEcEaIxKvz1dcDU9TJfiDLar45TtZn7ed+oTbDo0hLF4PyRLBg5l8iJUkJiVvd2ptPpl/MDO+fi5WncX0MGqzObD0x4lpfpkcVstITkGq4L0FEumLdMLEgEGdqLE2Uxt0pANACBN8GPXC5IYUY+ZyH9M44YCgtQqjhkouli9QJTClL/9CvInBdE/y5RRv6iBo12/quwYPB4XwBbXrOspb+/D2l+YaTnsHPFI0dfk6ZvmJyJDHY6soUFOJeIend6psDfBXDo1MgvUBmRvCD0vXxf1+gEyA3DOgt6SJNdLlrlAjXnaCtDYfrwjU4G1qFN0wLKhRigInCaaSz3mBTMwNcgJGm1+vN1g3MRYi4dkS5du7Knpycej9dfOqedixcwCdA4pH1fwstgHinP3GA0eY6VJdSy+WFjoc7OfUidm03FETlrIXmRi81nem9Ok+tB9Az1iWYxRx/rUwAyQiBEnyfRq/N8sXF4meh3L3K8aHsk/wAvoW/AGu4xnGYYDieIprplzfIN69d3dnaeuywu2Hl4wb+ADHMYwHnU6rRc80gtmChwQZ9E0URiB2PGwvwyIbCo/NfjEf4FzeVdJp5nOu9TLjKv16EnrVoZicwGXORHnuX9Aa/do+3T5CFDC316VDolXnheDrp9FtasP1s3rGZqG3rarrz8sv7+/sbGxvrz57Nz8YKBEd1pi7zo2ule5rmVZx4s+Be6GFmEf7lD9TJRfdl7SF+opkvp5FN0gRhb8TZIwVVnVH+Le2Zc3JjrGlzMcnsDJDv3vlP3Ni56ize5u8Dh/UpUsgfFQJG+GIKNnQbMHcXy1sbrX7/tkksu6erqgk94r5zXzsMLgDxeMM/RTge34GILyLDg96G9cM855hjD6cuYyNeQrfDkS+QU93k3xByEHsvJfteP6HlHqVrFvKd1gQyiiW4ZhNFmXWS0QdfLwNEzh8nwwnFf4MWSPW9tDbEbfvuqK6+4oq+vj+5Jedl2Hl4w0JFlGeENXgvIwOtMZPAvPNcQi9QPnebe5C7X7dcP3TU86U5Y08NKH9xrgAUNwSPHyz6WY1ErocjgfW4Im5xAt867754/JTQHMneTZE6VE/bKYe9IvadgqXj0put+6w3XXL169epX+lPJ5+cFAya/n/6dA8/R3Gz2IrXTkWHlUODVfbncHQ+w1p0F+t6wa3SJWQiGhGBUiMTQnGPg88KNopvkmOeARGr+3LiH4RmaxxFemvLR7UqIFjzT0ZJ811vfcP11v71hw4aXqSFOt5fFCwb/gpzzHM1DRmH5q47mIQsFZAnt3mln+WUZUgxGRJ4Fie+6GHXdVffCrIGTAv+i7zziefeKoytEDJZu7HJbLiLl+deLfuRZ1XGmARDvZ5xV3W3vvelNb3nTdZs2bXoVsGAvlxc2DVihUCgQCGDB8zUvQj1qWMfzr3DQH5Bf+c92Uhx5+ctF5oYkFqxaxdZUuqmGqqqn1+qw6nPSZad51hm86MyxTNAnvH7zuj/4vZve9MbrkOPRKr4KWLCXywuGHQBWJBKBoyE8PWoesgV3AzLkuYZ45JW6l2sYuDtmmurJCM0dOup5ZWvYpwldNyoXYhNwcbbOgOW61fL2lltuuO5D73nH1Ve/bu3atRfy71S84u9vg0itVnP/NY1SsVgsl8vuPYzVSqWCuaIomD+z++Az+4691Kk+u6GoCb7TBKcbZd6SHBB8MsKdxIfrdw59EGk5tgk1V/9Fil/fF70dvcSKjvaNa3ov27Buzep+6AY01TjN9VVelb2a77vjLeACWPl83kMGdh44UEMXefDY0A9++iyan5c44Wcz9DT0TbsFt5xfwAaQLn2oIRRx1JmT9EUeJ2niuMun7aX+Loln+5cvu2zd6nWrVnZ3dba2tqZSKYhSxIG3wqu2V8PLM3ABJg+ZZ3gIA8rxickHfvaL8UyRYuq8yJBHHLgX5/70DQa8gAzmvpflOTRA9Mh1MVfBwt3cBW8FvEQLPkloSSbQDq5ftaKna1lbOp1wrampaVF+3Bf26nnBEJvwKZBCeHrIPIOv7T107KfP7ZnLl8nJYLST03fkhRuhkn1idzrVmW6ezhXGp+eK5ZpumvRpZH0ddzVBRPYkRuAFavMLeN0nSVAwzQ2x5Z3tq3q7Qamlmf4FAqhQpNpoNIoadeFutWAXxMszOBqogRFIwb88XlgYm5jac/DY4eMjc4VSVVGdF32HRFYoFIyFQ8tSLZes7u1IN6FeqKqKd87OFacy2UweCbJaVVWgQ9OAQ3Th0a8+orrIPink9yfjkVRzsqM13Z5uSTU3xeMxMAIduBL9uyiuoQS5e1w0WwRenhmGgUhEKUAKAy8seA9zufzw6MTkbGY2m1c1+t16SRRaGhvSqZb2VGMiGgEO7/I/2gM4rGf00P1YQMF7DLQNiFfv24q+SDgci0UABlxgXpn26rW37FXt+mEtti0aL88wVAxS0zTA8j70RlOJXcAQFAsyDTi823uwAh4ukMKr3vFgTU+jeHrFbSvoX+bzFvAS5t7zC69iYdG96UxbZF4L5lHwvMbD4XXjmC88xK49Rh5HjBbmkYJh/N6CZwuvLtjCM+4Of0P2WvFaMGzfswVAmNdfO42UN3c5vGjuKheXvea8/r8yhvl/s3roHjol2z4AAAAASUVORK5CYII=;fontFamily=Courier New;" parent="1" vertex="1">
          <mxGeometry x="220" y="50" width="80" height="80" as="geometry" />
        </mxCell>
        <mxCell id="RWeXVQ2_0HFQkgd2XHTl-4" value="" style="shape=image;aspect=fixed;image=data:image/png,iVBORw0KGgoAAAANSUhEUgAAAJYAAACWCAIAAACzY+a1AAAABGdBTUEAALGPC/xhBQAAAAlwSFlzAAAOwwAADsMBx2+oZAAAQ7BJREFUeF7tvQmcHXd171l73f3e3ru1W7Ys77IdjLEDhBgCEwgZCMlkeRCSTN57ARIIMGGe8wgJk/eZlzcvn4QwQ5KXkAUmkIQQdrM4GGyMZWM7XvAmW5YsqaXeb/dd69Ze8z3/arUlgY1BlruV8VGputZ//ev8/ud3zvnXv+rqWZZpz8vZLMbq3+flrJXnITzr5XkIz3p5HsKzXp6H8KyX5yE86+V5CM96eR7Cs16eh/Csl7MPwlO6k9I0/Z4dTImS/DDmcRz/W+qT+jdohWvwsJBLvgrYOXgIy2wB13zhrJazso8UvaN90zQNw2BZ1+UumOd7T1zN0eKwfBfC9twi2Zgfs3biWSpnH4Q5KiwAIXMMi4VnDsMauqcsn73yb+RJBYa1vLy8tLQ0Pz/farX6/b7v+2x0HKdcLhcKhdHR0ampqaGhoXq9vnqOsuYTDfQslbMJwryqa3bT7XbB7PDhw0888cQDDzzw6KOPsup5XhAEg8EA/CzLypmWgyuVyvj4OEBeeOGFL3zhC1/0oheNjY2xfc0QTykcWdu1wWXDQZhbxncqdE2wsCNHjjz00EN33nknc8wOzKIoYheYcSLg5SeuWRhb4FvmFM4cu9yzZ8/rX//6V7/61Rhlfi22M88vDTNzZL6gCtjQshEhZJ5rn7qxmuuR5QMHDtx222133303ZgdybASzXN0gBIrMEVbXsOesUwyLwygcY4VjX/e6173zne/cvn376u7jUStl5sVyPAur+zaqbEQiPUV3Kysr3/rWt+644w7YEqrM0QU8sAnDMFc6hojzY/Xpb4dTOJ1TWMaaWXjJS17yIz/yI1u3bj3vvPOY12o1dlEIRsk8v4o6dePKxvWFAHPw4MGvf/3rN9988/z8XKlUKhaLhmGCFruoNgu9Xk/X9CRNsK3cCpnnlPhUwokgR/sYGRlpNBo5VMAPVGy57rrr3vCGN+zYsYNybNvOLXKDo7gRIUR9xCaAd/vtt2N21WoV48AwwyAMoxDk+J9pWZqkqJ4VfFzEnuNE+l1vCBTUdjEv13UBafPmzUDIJrZgvouLi0ePHp2Zmdm9e/f111//qle9il3PQ/hdJDcC2AzF5dEHG0EFtaIpYLjnnnu++tWvMifzHhkZ0wwrjOOcJDlFQRWIrUVqJn/9OBIIQ4lpYi2lQEqCbHVTM6M0zCxZ5zTHsoNBH2O+9LLLzjv3PLCnPXD1vBgKp2IkJABJYaD45je/GX+Z15Bd1FZuYOPJ+kBI02aeL8NX+XYizBtuuGHfvn2kcZgdc/AaAF4MT6JVUBDYyBhgzphlIpck9rx+nPAvjsIkS7QoAOkMvjU0E47VbCM24iiJ01jYdXx87KILdm+ammK53W4bOtgICWNt+RwhIcH0aTS///u//6Y3vSmvG3Mw3pgWuQ5ECmwoAsmVwpb777//4x//OOQJs23atIkDhC2xq8DP4hDugz8Vhig61zVIgRm2E/r+ADBZxKiAUktRsZigmgh7zMzUuENCUAj5R1/2ssmJ8T4utNcDLa6e2zTLOYRcmutwHukmJvjhD3/45S9/OSqitmyntbEgxW4kWQcrXF3i2ro+Nzf3wQ9+EOacnJy84oor2JJHK5gCIKJYPfYywSvBEUZxgusjksQKWQE3cj3d0NG7AoAmkWi6kWq6UCsrbEoTy3FYtC37BS94wc6dO8ES4RJUgO0gz1VYACFZjSIIkwNYmJ6evvzyyz/1qU+d0gmw0WQdIMyvmCdn7373uz/60Y/+2q/9GsbX6XTAL9ejMos4DP1o0EvDASYJoeK7SAdM0zId23UKjuM6luW4tsQ1QegHPsS6vNLq9KR3rdvvUz72yARnX3zxJRdffDHbgZ0KAFhu6KQkxEVgzXKOK1dnF82Cg2lhf/RHf/T2t79d1V0gB8U8q9k4sp4QQlavec1rmL/3ve/F+eGcut0uiuMAFCoComkCTmVSilLJdt1iqVir1nB9cKjEqL6/stz0+h7E2O13e/0+WEKqfa/f7vVoE2TytqYPjwxfffXVpu2AKo2A6xPJ+gGxDAmgNBfVYmQBkJhDsHDmwsLC8vLynj17vvKVrwwPDwMqezdgpvhcQ5grKNcCbPmud73rz//8z6HQ17/+9eeccw46YmO+d3Vuu6ZdMAhWQx+cOu1Wt90C7GZzyev3u502QKF5D//W7+LKbBvETY7H+iRYgpN73mV79uy+4ALww5zh4zTTscVAWFasL4mFQmkwzAGSOTWs1+t5jzlY4qdf/epXq7YnXJpXbOPIcw0hCmKOCXJd5o888shrX/vaAwcObN++/bLLLjv33HMrlQraxOEBGITW7Po9Pxx4g06r2WstB76vpaGWRFgPxCm6zCRuKRe04aHR+tCQazus99orC/MzAXGJabqV8jXXXOMUilgnpkvECpUCFBCKr4yC9AQIc3Ok1ImJCRoTREpzedvb3obDpj3kwddGk+caQkQas0onWIaXPvKRj+ALURytmyAQNeV71VGan5AamOSItpFZemJxdjjQEs0xtKKjbZ4av2g3Mco5F+w+f/uWzfVq1TXJOONg4B0+eOiWr916w63fimujl11+GVdLMq3V6aa6GadaGAEhtEkgJBDmyK1ByNXxzTQmSB46veqqqz7xiU9s3bo1r/9Gk3WAEOGiAJbPURy+8I//+ANsNi1yRMnq2E6oiQTYm6bZWqajc9/XM22sZF147sRF5++89MJdl1y0a9vmiWqlUiyVBfc+4WtIGm/bllYsRq3lvfumP3zj3e2eB8cKZBoFkjcyTxWEmYJQYuA1CBX7xiMjIzt27JiZmZmdncVP//Vf//UrX/lKdm20WAZ5riHkckhOpKxibKZptNut33zHb3z0I39XLbvBgGhQuJG8mz+WbWGGrqlvGqvt3Lppx5bxKy/efclF50+OjTZI/4uuZoALns+QcyS3D7XlZtRasSW5N7Pi8DemOx/75OcSw231/SMzc5luYtbgFWB8q1YosgYh7YY50dNFF11EeLV//34irA996EO/+qu/mt/CRpP1scI1IajHEl1dP/TY/e/5jbcf3Pfta6+82Ehhz6xYLJXKlWKhMFSvb5oYnhhpjA3XR4YbxWpNM13NKmtuSbMcKQW0SQ71WIeDQ1+PB9ryYry0YEahAf/Whm7c++2v3vP48DmX3L//8L7HHu/3upaWkrNgVYEfZql0nAIbcylM2Znrulu2bCkWi/v27VtcXLz++uvf//735x1JG03WGUJ0hktUiokf3vsv++6+7WXXXmUSroQR1mm7Bdu0yP6ksyzytSRWtmlpdlErNDS3KlhifWKzWWKmwsphTxt0bT3VuivxzIwW9EzXiisTH/jIp4/5zu4fevEDDz96295vrjQXbRuvmQYDeT4FluCXQygUbhh45ampKSiUBP/gwYO/9Eu/9Kd/+qcgKjXdYGL+3u/93uriuog8cdBMg2aUuUY2NTI0tnNHoVot1WrFesOp1q16XSuXhSrDQLqwbVdzi5pTksktwLOyxbKYDDI2GdJm4C912NJ2dUIi30sC37Dc6tDE12/dq5v2li3bdMM6NjM7IMuXnCKQOnxHOyaqIpwBMxAlLsU1kvZsTAjX2TljVBKnp3oWDFoLC26xLJ2cAoCjFYoaq8Tx2EgUhfgtoII8mRzAszQd/2dqhqUmO5PJ1e2yUR0mMNISU2+M6+WGYVqp7126c8uLL7/w4Tv3LkwfmhwfveCCi2DevhcCdk6hXETCJ12663K7zBdwipAqKOIX8zpvNFlnCGn9sCCSDIJet+cWXC2OtDRhO0qFT9MwTKUrxfewmRxa0xHMpC8Us1TWk4nhEdUQaia0Boi51ABOQiWjPGSYjq6lZtS77qo9FT2YO/S43+2Pjo6PjE2Q5gfEpgoqVQsRlteEXfg/IPQ86QDK9+aHbRxZ7xBZkkMRr9vV04T4U9hS6RTHRAKXEWf4A+CznaIFhUqFASk/CqSjLI6AmnAkE0MCSkscrGFrhXJmujp27JayONZCb+d49UdecMnS7JHm4oLnDcbHJBsR/JVQhxweoWKV6mCdlMhCtVplnlthfuSGknWGEIUIIBoZXbdUcEkgtCxGl0RZ1Iz00CRiTSMiTdeyDYyP/FzQEwD1jClOEz9LpL9GT2LiE7wqoYwWJzqu0XYyq6CX6nJiNNAz/+rLzq86eru1FIQBNFxwbK5/CiqyrugUYZV5HoiCqNq/4WS9rVD6x8As9LrLbsHSk4jcXEtjFGbEiRHHGeFGEJBmGBgXVsYEPIJWaMSBQdqQDpjMJDBZhYQJXGNKkINF/4alV4ZTEsQ00OLu7nO3nLt9aqW54A+8NAkdB6gkIj1RVut1guQbT0F648h6Q4gNGqAy8PsdxzKyNMKecIc6E4YVJ4CbRb6ZxgZ6xPKSWMEca1GkRwKYLtOAXFBPyAiZAnlKDJYaSboyWrNgFCsSOA06thGdu3Or5/e7vVYQYJexLp0/GxSbZygbAEKi0XAQxwT3MXGHjgmS/5HdY21pzD7SCROrwhIExQwDBUg5Bv4UyAMtIWXEyAKdLZSTb4dmJd83Uss1iwWWNQlrwh3bN1um1um2/EE3DjyQVR15T8pqxU6QfON3NdCNIOtOpCKx17MS382AwRcWBbCESCaFVNMoIGs3CHsyBQ8kid1gqYI0C8Q8Ck62i0cMsiTAd2J+CuPU5NwswqVm0iFAiuKO1Bolywx6vUEQdeFppzQw7Uh6dwiOEh0HS3gM8LpOgEQpYLfWBb9a3Q0m6w4hDVxP+z07GhRxilFfGZBK+Alpwj4ca0inJsYXyF4MLhVnmcnzJoVfnGjwKhBCoRLaBBwqka5sTHCQWtiWuzRKWuBooVl1KxO1WuoP+qQxqROkdmLadgEL5fgBrceyHSkC92kZCbGVnnU7XSKa4eHh1SpvMNkQVkg+IA9pIVViEMBTAadYm4pfxNTENNnOlIAc5sKEC8V05DAJYmO1RbarE2WeiWFhVDk3SlthalQrQ9VKv9Xqt1bsNHIxtu5K2lpywoEVxFbkF4yMSMoyjGKpYFqmeioclssycECVs+FkQ1gh8TpMZRDm5zhJkodNCKMKYGJtbBfCxPjkea8KWDhN0gmxvziNJUFkQVJAmSQmEkuVHnPaCNmfupSW2pZRtI3U95144IZ9p7d80VDh373imne+6XU/9bIrJkp20FouGIlrGeL9ssxTo40nJyc3Zu8asu4QEiMIhApKXUwwtzkgFMtbW1BJAhEKy4JZqMuc+FOWMwlkcmrNJ5wiJwqiOj51TaRLPzWMtFZ0QEPv9Stx+PM/evVf/O47/9s7/8O73/Qzv/v2//jG176yamRmEpHGcEWk027TALZt25ZDuAGDmg1hhTCg6vDESIQShQNzbpRV+FD4U0Uu4vxUUhiRF5JdsABaOqamUvt8l4pX1XbZRdpA4fm10H+SkoSEg0GibSo77/jF1/3+2//Xq88Zj2YPLjxyn9Vt/uhVl190zuZ4IM+BHcuCRXu9nmmYExMTa8MJ8rI2jqw3hBBclhFPyLLYX+7wcsxUjgiESZJKgj9QCUOcRUE+kRGqJ1CKM1UeKdYphhtlgewS/HCYMtwm1ckk9Ew3pf/NazfPH3Lf9e/f8MafeHlD9xcOPOwvHHXjvr+yMFSy91x0IdevFIlbzV6353kD8Lv00kvzPpr8aeKGkg1QIbygaZFBCITqwY8QJoyqaJOMnioaAqoi1dzaSBvE2xGaStfa6sYY9lu1RQVn3gKwY/GE0J8KbLJBrzNWdX7zF1/1iqsuq0X9ztzhOGiT8jtmWis51XJhbKRRNnW4FrgHfX/gDcbGxvbs2UNNN6AJIusNoaI403Ik9BS3pyJS8AQw8UbS5ylVzH3kKmxkh8ATCH4qbJH4BbTIRlZXFXiCNxOFSMNQQHKN2HGtV//Yj1563s6stZi25v3+im7KU2SiWbfgOpZNFGxgcbbdbnU77S4t7AUveAG+UCqrRGq8kWQj0IJhOShOhrCIohWLihUKikSqJNlilyzDlk8GnLmdgWgOHgSrwlE5BiJdRZGIFAMUrs6FpVK5dO72LSUjcRJfH7RNCnfdiFzeNDWLtCJeWl62bByf22l1vZ5XKhbf8IY35LHMBsQP2QgQykAHdC1cqlg0T/sUbAoAJQCQJPIqkxgW9CgAqz4aFemQPLAgc0kKJQiiKUhmoobhrJbAvzRJoMZex8jwl/0Mf2kaQZYNoshwXLdc6Yfh9LEZ8YK9/kBG74cvfvGLr732Wk6XFrYhZZ0hFLVqaaFSt7VC2E803cYl6kakm2JqYoHiv/JjdUzDkJFOihWVsaqsUbLDLAz1MDSY/IE2GOiEP+FAl6cZfSPsan4Pn2rqtp6ZZAuJ39c52bIim8vpRpJapmO4Jb3SONbq759pBrq93O10eu3JyfH3ve99NfX2dv4cMa/KhpJ1hhA/heuz3ILjlOKANVQtPdmoGG6UPnCFGEcqNySSnygiHo6QR9woeYUcD3/KEwxJFlcJVhynik4zzjQlrgkjS8ZlG4lhBLrFFVzNHGqMVMcmO15w/779c+1uZBmdQY9Kvfd3rr/mmmvyKIZLwwT5lTeUbAQipRZmoVIlDRQYxLyUnYmJgu/TaU3BqyxZuTpEjs8nhPlqUXJcvh1/CRtzojQGyBl+jOPqxERimEcOH37owYckCu33Aewdv/n2X/zFN3Mq9pc/xGcul9hgsu4QKqsyrGK9HqKiCH+m7DCfnom+JOsQfCBc4VxB/cSJREVsSJbV3ij0E0xWXpshUZTXJAg+kyBYPnp0bm7+0UcPk/XjnH/rPe/5rXf/VrUyJGeKncvgqA34WhOyzhCqfM0gq7Cr1SBN5f1BsogEcxR1ozoZgiG6f+pJiYAt0/FVMeW8EajLCJb54cS9Ed4QHPBs7HZdh7y0OXPM97y9t3/ryEx313nb/+QDH/jd9763Jp/6khAG1DBEwFZlbThZZ37PFasbcbRw+MAdN22qGBUbSFEcFkWAKSYp3ZVPI9ieMozcPuR2pECW8+2qjeYmSPgThe2lhdDzDD0zSEQJWgVIA4gWu/7N9z7ibr7wile+7oU/9j9zQpwEGJ1h2FJUXrKSjWaIG8BFC8/Fib/02K1fHtEGYwVLJwZBYygXJLAY6bV5Svle6uQGaQ0JyQNAJv3eysJClsaGDA8Qi88sO4gS03as6pA7uvVwXx+7+EXjuy4VzLNYskbS/u95kXWV9faFygrVa4AFu1T2Y/X5NKU/sCXLQ8no72km1QSeepLhbPIFBSlJXv32WeIKx0+nkeguZOo6I5OT/cGAVKI+jP8TwQJV+5b6bWRZ93BGVCSGYrqVoUYgQzclK9diFUJIbPO9NJgr+akm9ZKULKVpHMoXElnJ8zv+Y+RBELBcU98Qmp+dqQ4NuUNDsLecxNlcnkI2tqw/hGJooiajMjIiL9EHpHQSiQDfs/cJbWCSr2L4vrLC3BAFW9225aVU03FpO6Hvj05MkOEo8JENj56SDWCFkgqIFKtDiWaFkUT8+C0ifnlA8QPoUUxsbeJ0CpRmkkQRSYvaLBYo907YY1puWcZ0h72ubrv10clVohUS4OpmDvVGlvWGkHjFzCLJ3hyzOGqXh7thrNmmZpB9Z4Uks79nDeVZ8UmTjEw9PgGddKhqSTzwgl6vZDuObichgYyZ6XZqulmhatYammN4/a5RHrLqk9JdQ4RKypi/cyMNYUPLOkMoVqbrpikDfTXTqY9M9Dxf3iYEC4QEUX146xkKZeTTqojF6ZplZXHs9/uyA+8aJ5ZpS9Ko6VGSOoWSvB2OB04Su1QxilV1Zl6GmPDGl3WGkJBfOqDVF5xYq09ODWK0iSHR/CWoUNu/P1FUqSZBAFI0Yj8YeANdpQgQJNtMyyKQiZOoXK3I99rIN5KkWCoZ7gYdLPo0st5ESliP/lYDP8MeHrOqjY4XyKtJifRpqST9mcqT4K1NNAHP870+tGwbpm3BjvI+Kjm9DIqxLMN184AqSdTrL1Dx2SbrbYXyBEFyB3mshOkVquXhsZWez2IapzgjHRpUvPY9p1U5aRMpZkqu5w8GruOYhmEKhHqhVOjI88B+sVzMkjiNpBeNRiRV2PDBy3fK+lshJiGfqyCAoDJGobJpW5DqUay6vmTn90OkcnwmMBDUyHC3lBTF63sWF5B3MeIwDDHsvuctLS3V6jXLccJAviWEv8RcgZgyVIcCdimJaV7qBpd1hxA1xYbqBVNxi0lYnzmlrh/qlqPYVf5/H2Kqb1fGJA96FoZB3zPF9iz5TmkcF9wC0Bx64hD4VGo1wzTtQhHrJBdEgsCXflQJddSAAanW93v5dZCNQP2gKGBBZ1iQXRt168PdgW/YQqGE96te7btNCMecpGVMkHUwSNJB34v8UEY0JSlA2ib+NWs2l1vt9tDwiGU7MuJD02zcYRRmWYp3xPJMW/q2pShFrflVNrKsN4SKK4W2FJLCXHaxPjFFuJ8oO3gmViC9qGuiHBtn+Z2u3/dg5ziSDwi7rgNVHpmenp2dHR0bbQwPaYYeE8NwbBzTUIqVSjDw9VA+wJYmcWbo8kIGdZDiNrSsN4QS56tuaOlEURBmWWNiUjPtMIrFSI53Vz69PKlpQI8iskDf91UnC7FmZhlmv9ubn5tvNpukEBOTk8SlJC/qSwmkE6rlGMbycvPhBx+QMgix4hjDFS5VpW5kWXcitbRMekNIA9WIbjFLqzZuloZ7PT8JY3mtkAlDTUwt5WBLnj7owM0uGYrPgvTJcB5RCdZn6tHA67VaWRIRg9ICbMJaLT02Ozu9sBib1sjEJtspJkFsJZmTxFbctVySGr0wvMmpTXzoT//6wx/+uG5BunjNJJWPPAOi4Cipz4YMcDYAhFpRxwFpWUFyROzJ1gqNkS3n9z01akJcpPpoUGJpKTmcyUGJkWZGPtIw4RSDlAQDxmCSeLDcDPo9x8Z8MLDINjLf7x+bn1nudvCHdrlSHR6RJ/CaBrE64UALVzQz8k23Xxh76evf9Au//Gsf+4fP/M3ffVZ1semWIS0jzYc3Ijmap0zrLesO4UkCHUpqkVm17efatZHYcDW9kOrM5Y2I41zLxIoag23Y8hk2jENSCR3wvH4fhoQtocooSdr9/vTM3MJikwylVnI2jzdKFrxKFkramQQR5lcMfSMxSpWJKbNS+eGXvfD6//zu//EXH77r7geJfwzNMQxSElOiVCBlA1U8ZVpvWe8PeOUi8DChWlGKjkU5TtRrzU0fLtZraM6EH1Xgo+lkCwIhNdelxwyTTAhMsij2Oz1/4FMY7g91h1G0sLhw5NhM1/MhQcfQN40PT400bHG9UGRKxBKbjlEeDZ1hd3Knu32XZjpekO08f0eaWh/9m4+du33n5s0TXIsWouJiVVPJ/U8xvXWGcWNYocCzqhfwiSU4cRs7zu+blVZoJBaGyJacUUP8n5ll8hBINmpaGKT9waDd7XU6+YhC+ZZwq3XwyOGZxYVBInm7aTsT42ObxkeyoJcEXdwkV0lMJ7LL7azqTl3knHOJ5lQw4UHkrbS8n3r960ZHJt/0C2/72lfuQUPgF4XyJVKp5qqo9rTKCqcg+lzLxoBw1QpFF0mmyccL4K/RTaO7L13qR2Gi45Q0E2UR8aM1rEg8naThWkQCMOh01MejsgTmbLdn5manZ462cX46YRLijI6MTU6Ow51JHHJ8zGmG4xuF0K6VN1/gbr9YMyuxH/ex3DTxAk/TjRdcdY1lV3/jN/7Tpz55Exc0LVOl+3ktqe4JNV5v2RhEiipEGfKESSxQ/hKk6LWpcW9laeHQwcDvmolPiu51Bkls+qHm9b1Bv5sEfRyafOze97u93tziAmlDr98jT3Bsh9wS5W+anJocH5WvEgWBYdux6UZOuQuz1sbHLr6yct4VWmEowADDEGilX9YozB1tfuZTXzKygudFX/jS5+vDY1desZsqQQYYotRQqEKG10lNpWdcbVonoU7r3JK4vLzHJNEn7GioD44IOdjSSxpofrd94KHmEw+GyzNmGCaRnWaFQrlqG6EWtwbdhXgQ9nvoX30fVj53H2N3cB/kXHDd0dHxybEJcaQyRjXRbdtLzVZk1DbtnLjiGnNimxYXO93Q83viUEnnNSKW4mc+9ZVPf/JG26q5buHIsUcWl2be+tb/+Ou//qZKxVBjQpiotcREhm5Y8nLbeso6Qwg5IuJk5F1OIT4MB6dHq7bIHTKcn65FA03vxb3FuNn1OhxSmz1w8Bs3fuqaK7bOH3kw7veyOLVti38RaZz64UMsplQoTU1MNhp1zC+haNOJDbuXmYFZrEzt2LTnam10S+wFyyvdrheSwmO4luUWCrUDB2b+5E/+cmmxXygO4UVNK1pqzh488PjLX/Gy9/8fv7XznAZ1ViEwlZcPY0jaua6y/r5QUMyVAJAped/awM3c6TiZVU/Noay6tXD+S4Zf8LJHuuU//OiNh3v2xIUv9DU71nX5OlBCiCK9LJigazuToxO7zzt/uNHIfM9J5eNRwNhP7Mgdnrj46k0v+jFtZFuv7c8stJZ67UHY6fbbnXbHNgps/OqXvz4/2yxXamGcSIwbZJXy6O7dl33hCze+8Y1v/eKXv0U7wTVzLeBbZ/SUrLMvRBE0Z2nI0JOECOhE5V6yhEFmkWZLF7Xhmmb56MrgT//q8//9A397aHrxp376Jy+67Ly036y4ZhoFJHmOY1fK5UYNBzo+Sv5OJhEltp5ZZhamupdZxcnt45ddU951aaYVev14ttle6Q8yLUxSX4ZFZXboZ1/4/L986/Z7HbfiDWI40nZceeKRauVy2bSsA48/dvMt3zx8ZGbb9m1TYw2aP3nl9/NM+ozIc0CkefmrdrUqrCm8xAfK97ZIEthCpmfL0LXjCfSazC8GN3/z/n/8pxsefOCx0eHhekl7279/w//0qise3/vFzYPFYGlmsTlrO2mp5JQKrrSGxLJ0R0/MQWZ1DScrlOtbz63vvswa3dzvR30vaHXkl7fkW8O6p5tZHGi2Uf7yl77xsb/7Zy1xt2w7V9Nt3XBS+YUfk8bAwXPzM6QVtXpldvbo8PDwa37iVT/7sz+5a9fquGHlHXGUiSHfeE/TjGanPiCghqQrWbuhE+/sWZB1gjAXsT35wRb1rBUHxs3muZ5IGGikdvfdu/+uu+7f99jho9MrUayNjY3YdlQsRG972y+84pXXNg/c59/zjc1DBb+7MOjO4zvVMBw9jE3pAU1t3xmyNp07fO7uypYdml30B+H80vIgkNGqSRRZWuanA911tNS5+et7/+avPt7v4XvdYqEyNjpeKlVVRWRYDXHn7Oxs/s11vKbX78/Mzk5Nbfrpn7nu5//dq0ZGqkIn8nAlpgIqaJVHVkEQ0QAsaFckvzPmZx+ETyVyXcJIecKeSfqc31mnEz3y8OPf/OYd37jl9mNHZ+bnFzrdwdTUjqmpcyy7aJpGFHWmJktvfesvXH7lzpLhz9/1dbO3NFotpCvLYafpe/3UtPuZ5RludWJTY/vu0tbdWrmO6TWbnV6cefIcS8yKxoN9eWGoO4UH7n/kA3/8odbKwHVrpu7GcWqaVqM+hLXhXEnqoyg6duxYoVAYHx+3bSev69zc3MEnHr3iyl1vecubX/uTryAQxvrUxzVkwHiSigdQB4q7V/Ls44c89xCuXU41XPmZ1tWYav+B2a99de9NN93y8EOPkelVK3X5oYpSsdPpeoOk0ZgoVRqY6+L8kXN2DP/2b79t01SlXtG1wcKxb99bisJhXbeTyGt3lnuDqFIbueCS2vnny0e6vaS30m62Ox6Bqe3iNsWDCYqRjHC0yg8/euhPPvD/LCy0ii5mZ8kL+kKFBKiG6xYr5SoChPPz8yMjI4CKUcqDfhk7Sb4f7398n+/3X/PaH/uVX/n5S/ecY5tyY1FKvgGx5M+Oz6w8xxCS8q0J7ZFLmwQL99538HOfu/FrN926uLhULteGh0YKxZJBxqUZ7dZir9t1S9XRkSk/Spabi/Ozh66++qI/+IP/DJ26VtSo2a0jh+f2P9YwjBIsGmfuyHjhnF3G6HikGQPPD1ZaNIEgyWLDkLdQ5ZVFKiLD7/VUW2yGf/YXH9u37zHXLiq+BEJhThP20+XHTNkOecZxsrCwsGXrFjBkWSkNL546doGEttfvzM1Pk6y+8U0//XM/99rJiUr+KgF3CITCL/nKmZEzD+GTtWcJ5STyIFeXX4SBFbtd/y//4nP/9MnPet6gWq2VCoR+lTCMLdNKEo2GHwa94ZF6pdbAZpor7W631e8tvfrHX/I7v/OuLO3qiTdcKRZde2ludu6Jg8O12sTWbebYpOZWAW++2SHl12L5aUrMQn5cK4FBCXS1yJfvfXdavU9+6uu33HpPsVgWbDOj4BYVc2ZhFBCbwJm2SbJYXFlZWVxcbDQaWOHQ0BBQEwpxYynhS+qAd5oSIi0sLc/s2XPB237jV6572ZXccCgfASADERAT+YVh1ZNzkjwL2D4nScWTlaTByFcq5FGcZbaWe+/7nT/+p09+qVYbHhkdd50CcTzcZhCXZubs3MIg8MdGh0rF4sCPVlZa/YFH7JNl4cUX77rqqj22pUXeoGi4aaItdHqeqZ931VV6fTgwrOZie3m5P+jH8uFSLQW/KJbfmpT2mmGaAafEYfKlL910yzfutu2qaTgEpwA5OTHlFlxo1HEESvnChm52u912u03jwhfmv3ZAK8RZUpp6gVSeVRNNO44L5R6ZPvLFL32l1fH3XH6ZfC8e0pbv7UtvgGlK1+4JWQj4PQsQPgdcfZKYpi1D5G1r0E/+8L9/+IYb/mXH9nNgzkHPozK2fAbfiKN4dnYGXU1OTtSHhvxBsNxsevJemXRSMqn+FyJPADFnZhdvuvmb73rP9b/+v//n/fNLPcM8srg012p7nl+0HAhTfk5LpggY1c82h/Bzkhp33Hnf126+LZHfqpEBkPgtIkryDK/XP3psWn5/UixvYXlpifC1VCiSa27ZtJkJAp05eqy90mJBYmqdzDLkAsBoWYWx0S2V0ugf/eGHfuYNv7pv31GYRg0q0GzuG7iejLhz/J4FOfMQrtaZ6uLm5TV6uWim/ePf3/jpT964Y9tu3TAHwcAtFfBRpkMykMwtznpBf3RixLLNlRUZcBZFsfw2qDyKT8vl4o4d20qlkkd+F0W333ffn/3tR2//1/tuv/XOz3/2BnKzQa8P/eH7OoN2mMivicRBqKYg9MNBd+B70X33PfjlG29JNKdYKsnoGp0QVMbLQLz1em2oXg98H+vfumXr1m3btmzZijusyI9agIS9ffv2Wq22tLQEu/phL9MHiTaIUz9M1C9Ip6bj1nbtuuxf733kV37p3bfcci9nmbaoQbrlTkLt2UHxObNCiT/BM401y9bvueuJ//dvPzk2sq3gNrgvw4KWLOrSg6X6baKDUqVQq5cHQb/ZbIbye4Q2zRkI4zSqN2rbtm1X8aB19333feTT/6zVKyMTE1zjq5/5Qv/YwrDlht1OnPiDDMb04xAI/cQXIGV8cJod2H/g5q99c26+WSg1ZDyAdMrGwnJa3Ot1kyQeHx+DNnGdriMYqy8Cl+TDGEqITkktNm3a1Gq1jh070ukuBHE3M4h05bMmeEeyCcetX3jBFcsr3m++47f/8e8/L8N6DOlBf9IIV+WsgPCkSkI1Rr8TfvCDf93qDBqNMUtGbZLFB+rlvzgP3nx/ID+V7ThRID/N7BRc4JJnEUlccO1du3Zu2jQ2GBBmDj77+S/4WlKoVqaPTlP63XvvuPPmW0fKVQc2ToJB7HlhL4l99VOvUSqbwrm55QceeuzQ4WOFYg1dE/ljIBiHemSUBcFgebnpui5m1+97pPPSdY6aiI9t+WIJyQaVofXg9kjt2T6/MDfwepxtm0IUyuFpPpGwH02MTQ686Pd+7w8+8refkrtXjHpc8sVTIf0B5IxDSLuUYQ6SaEkwgaY+/4W9t956b2NkPMqiSL57rzmGI+9q6hYLeqrb6kd7okHoWvIWfCYZc2qbWCLRXbhnz7kTk6Uw7iwszj9x8Ikhp7Bw6Am/19M1ven1/+of/36x2011Iw7jbCBftQy1QaRHXhQvrvSmZ1YeOzD76KPHTIOM0olDnCuKL8jPyUjzslL5yYwBWSmB8ejouOcFrdZKnIREp6SAmCDgcYpERZnRaIxsnjrHNesrC16r2YazU2kunpZ6WjbI5Ecu/dHRzaY18tvv/W9/+ZefEW0o7lTqkOz0ZF79AeWMQygEKF5MGjk2trTk/8M/3DAyMl6p1FJ1L+ySfrV85LS6Q8KNfJkThD3VH1o+24oF+4LdO+v1Urfflqf0aULI0ZybZ2/eLXLr3r3fuvtujgcIGQcsjxCjnuc1W+2Vjrfc6j344KO9rlcqVex8wD8RYv67s4rjcsYm7AStWq3OhMPr9/uUTyAkNyLDL0SoE/NCoTQxOmVb7nKzhflmMLXENQmewbag6HQwCCybRKXwvvf919tu38dNRDLw+NnM5c44hOg9N0A0xdrNN9957NjM5i2b4zhyCxDe0zEJdynwKcUhrJM7Tk5O0fyLhWIsP42dHjh4sLm8jMZVK9HwT4899ljeK0Zi3ut5nVZ/ebmDPdHwjxw+OjMzQ5HExMwdwh4JblXjUtfKTwQzHB7+jxSQkolcoHFpRYYpPYLHRd2UUavXR0YanNvpdLpd+RVwYGQvWziYNsppjUa91+3+33/y591eJP1wJE5Pe+Pfl5x5CAkVJCHjr+71o1u/cTuKwE+ARxD48guQTyNCvGKIucBeZNbSxZVG1UqVjJv0Y2FhHhWjzVy57MVLsTAYDPoAOMCxxv6AdN7qdQeHnjhimeRvBU7kFCCkfYiNHxf0znZgE9ebpqA4MjICokvNJQW2ZDLSKo+LjATQ9eFhwqlx4AdF/7jkWFIaJ0IXGPTevXd87abbaS2xDL+SFsC5eTmnI88FhIo3ZOHw4blH9+0vlaooAjUlhHy4OijzqSdlIaJj5txztVYluCd7GxsbO3p0mjKuu+7lF1xwAWoqFotXXHHFW97ylj179ixDas0mZjo+NlEq1gtuxdTdffseX262DcMh3yfKpUyxEixCmWE+ibsjYLEsCBg6hT0mJiYISdWQnD4HmLYwttRNkQQH4NQIuBpDjXK1QnXJPGk2vX6PeIbSoQbf96gegS3x0Sc/+blgkNoOl1ZnrwbqpyXPBYTUEn3x5/77H+j3/WKhTPCCmghVvvMGwIm54CY6FStklYBIoWiQqElwn2YY2Y033khwv3PnTuYo6xWveMX73//+l770pewiMd+8efNFF120bdtOXXMts/jYo0/sf/QJ2y7kZVOIalgqxJJGJr4WYXv+2/rqe0IuRxL3YlJK49Q1r4Y0Jo6RRqBMVtJWx2k0hjg7RhKMPMYM+x4G3KcpQLAkjI5Tuveeb99z7yPgKh1UUs7ZAaF4QbSfJtm+R/ZLDz4hpy69UypUfdK1PCnsQ7OZfLBC9C1sI5yDykbHRtlP0n3TTTfdc8+9pOEY3OLiIuWAGeYIkZIP7Nq1a/fu3cKBvQEQLi129j16MI51CT51VA/nEYJK4Xksc/yaKtDU9UKBPKUCloA3PzeH0UPO8ptNubaZq4qpFU0YHE+saQXXpVgpRAk3h0PFU4CpHJzprlOYm134xi13cLplyU8mPAs0+lxBKFVdbvaeeGLaIGFYvagAI39QxwmTvE3EXwwtFdsVV4jzROMqma/VakR6GNlnPvMZ9IVaV1bIr49RDsk40QcZNxzLYTgzeRl7EHRa3oPffrS13HXkWQQGJ9/G47K5PUmIgpcFBflOqYQhpPNEopSMCS0uLNBEpORGQ46mzmI2onoO5ixpm6rC3ArLtm0pI1X3IvfJPnWa4M31bC7yzVtvn5vJf5BU6UD9Px05sxDS0GiDuakRdDSXll2nBKZPc100y1y1ZYEQHYjJEEqoiL9WrRWKxrfuvPOhhx6q1aq9Xq/dbnV7ohGoDx5TDV89kxCnlnre4MEH9j366EFDRt/Y6tGk9FqKYpXkQObXpXzil3qjwQUlhFlaIr6l3TQajTxEolb5vXAKl5CHHkrYw0baGfCzcIqoA5jBnkatNvTtbz/4xBNPsF2iVdVoTlPOLIRUnGaONlleXlkJgggtH2caROwtv/81WdNpvsyKZVhihTI6TaxwpeV9+Utfmp6epkmg6NnZWSiLvega8KA+FM0VKQPc9+179JFHHkvijEAUR2jbuDfsXNwYVwHANTTBD2sDKpoC3pTcg4yQjZOTk0CIeQGeEoJM7ktCIQCVGqpMMa+AylVWK5+LKpu5LPAf4mittB948BF2geDJx/6AcmYhBB7FNHKVVqsfhAlr+S9fyz7hH3Y9eR/cJ4pgIUcdwQjFJ2bCpUBYqZTuu+/eG264gVyQqD0MouXmiiqEc0GOWL4fRj6Wr+vFA/tnvnnr3RJASQzMZXLAhAqphLxgn+Zv+MuX2EhRSkWMsExssjC/0Gl3OIZMYGRkFGBgTTEjaVUSy9BIgsDD4HMMKFThKu2A1RPaqLpJTpUtXFf6MWy7eOutd5FM5V1CcsTpyZmGUCpI62TB86QHSpNXAyNNR8cEeSaTuo1VQTdogXYNH6oNIGrHIYQjT9qwD+76c5/9zJEjR4Gz4DrLS8shzQJEhJfI5Pxi0YLgtMxamO997rO3zhzrmVZJ9WVDffICBjcsjAaEolkjjVPTsCrlarEg4wT8QXB0emZ5ueU4haGhUXIS23Ji+cFutC+BDy2MRgB4EHgYDqS/QdI7iU2oAx6UY1TNc8F3yuuQ1F7PIkOP5U50e/9jh1utLgXi8U+8/R9MzjiESF5HpecT5SlbH2pSNKXCGUMCfSJ8XFulUn7g2w98+tOfpkSycohopb2SyXBTIVJ1hu77EeD6QfovX/n6XXffTx5HEexFs7moK8iCKttwC7Cr9NFg4/DnkSNHFhcX2AJ5Dg01CE3V8U8K7YODIQAoILc5JWLZ/MmBPFm4IhvzSVYw95ljswcPHKYO2He+/XTkOYBw9bb4I3f4tBXOVYA20RSCkqG+PD8jc0ftn/jEJw4fPqDcCmiRQctnnVSCTIioYbqkEGli3nrLHd/ce1e53Ci4pRysNeFI5nliAQb4v0qlQmndbpdAt91uF9xCvUZM04BVAWqN0leFKmYZYRSGyOl5vvgMZPUwaJWQZ2Fh6b77xR2q8OrUpv39yhmH8ATQ5OZXF59C8t0CIdQlY5DEL4JlGEaYXWtlZe/evXmdq9UKELKHlfwSMk5FXsYv3HbbPTffckeaWNXKMCoW/6fCfnBC8j8ybsK2SONl1dCxv2MzM+1OB1TqjfrYxDiXptBCsSDnIsf1bDk2qX6706ZhYLnSufN0QhlrtyypobQ3GQ+lP/zwvtWNGx/CNcnhW7uhNZH7Wps4ipZpmZAkE3eH/4O4wA9cMQjP63EG29Syhy4yiRZyLTuGXv7Xux++4Yabl5c9163G8nMF6nm54GSQtFM4q/K+tWQWyhhNo7myPH3sKKGRW3Qrter41CTI5dBKJ6eqoUSfqm5Y7sCXDht5fKicm1T7yfqr6YQtKuRWohawQm6sWCgfnT6GF5fanLaccQhBJAdPhePH7+epBagkKFCROsEhcxotKFKSMggmtqWdThfTkb2AYYpPMvXSgw/s/+KXbu51Y8epJgQQGWDJiXKCNAnxlhSOh0PAiCRkbm5ucWERwuQSQ42hiclJGgvtg2pIAqHGJVKZPNcEdKgbyRuWmCAlHheOR/K7OElUDKyWMkIn08C1uwf2H1xaojk+C/LcWeFTiXRknDzJyDECyCjK4/fV454UHdtAuflOXBUpBHn/oUOzX/zizYsLHfAj3JGSiDhNnXwQi0OHNAUH7pRxSKzrZJMryyuQc+AH5WJpy6bNoyMjtmHKoKbjNZHH7DSEFNUbnEuDGPS9gTdIYxkNLIZMszp+sEyqiZ24ZRW7VRHDpEU4dmF5pUteu7r59GT9ITxFgAVDsQwDzXLP4sS+Q0BOWRTqQSMOd1Grbllc6h4+PG/bVdqA6l4lyJEXOiFBmoJgYDvERLQPzl9uNg8fOsScpKJcKk2MT4wMDxPICNgni+oJzyxcJ8FLkvS6XXiUBiSD7RSEq8c9Y6FJkBp2e/3pI0dXN52ebEQIJf8zTelnkZ/ZWd2eS74KXUkfqooG4a5KefTCCy9znVqWWo5VyVKTtk5JJHBxKuMOOQ1iVGwsD4NmZ2enp6dxpWypVCsTExNDw0OUBVt+Z8RMG6FKmBxzolZYlI2cSGtgY37M04lY4gnsKlaNyIjk6SPStXv68hxCeKpy1uSkHZhW3k2FQhVi+SR7jk9yjPqqEJLUKiNX/tC1k5Pb4ki37JKQn+hJjhL1ZQmW4jryDCGKolarNXOMzH0Zx0Y2AXhTU5MkDySdUqbQ8qkRppC6aihRHJFyhEQ9LmQsz6SOV+z7EiHwMAgx62ZTunZPX84shKKWLEQDivOMWL6Z7miZFck4Ii4eZTo4qS/Yi6ARiV3I2ZRak4EvMScNNk19zfAyfaBLzxw2RTJACKNXa5svv+K6ofr2OCI9p+Q0S0I9iy1DcyG6VD5MQ3qQyKAmb3FpYfrokZUWHigdGm5MTIwODzdct8hFFS1zKZNJ6eTJSXXApvjTwaDnB118ZRSTEcL08g0MEOc01aOeW6oUpO5lVeQFHHypNCqyFAKbRDNjw05t15o+NrPaB3V6cmYhFNrQCOqE2Gj1pXJZes50vVB0WZCBgWl8An6oz1SPQo1SqZxlie97Ei+ITXFYSBsgoJPDEuZuvbFlz54XNeqbotCCQikhSaRBYMNEqXGUGJrl2gXCohXShqPS7UIMSTJQq9fGx8dq9SqrqidP2o3SvKC4Bp6aYFH5Ygk+tdvrRHEAd8ZJSGRDJVWewTnCsfkdqCBLFk8QNjBxDO6ZKRUIHbJVrdls+cHTp5XPSM4shNyWIeYicuUPXXTJxef2+ou6gaIVcaVE2AV5w1clUDJJi+WuskKBvEJGdQI/kEgDT9E0jb9A8JmlxvDw5JVXXDs0NAEl5uUrIfrJYOAoCjkF8bzB7Nwczo8wEupD6vX65OTk0NAQB0OfgLZ66ncVtK76cXCB3U4HhDA3EgOIFH6Wtrba3SPFYIHkkWJ4pxa5tp7fowhn9HvyucbVPachZxxCFZOLHW3ZVHnjm19fqqTt7mwU9PEm8rqfU1HPGVTbFyBFME2aealU8H157MBW7jkMZKC0brhAODq64/LLri2XRuNAUMcjclI+SeTpWCjR83ozM0cPHTpE2iBnGlh2CfDGx8eJRDC+OCF9dPIu+KcUqVEWx1E+rokVoigCI07MwctbgICp3glVNn2KrN7UmmC3og7NWFlp9eRNktOVMwuhIhFFOCrnfckPX/zu/+0/eN7ywG/hu2zDiQPifmhKSAZNoCAaNhonFajWq37o9wc9/AetexAQBBDVGxOTuy679IUkf1rm6kZB8Z/gqBak05FC2p3O9NGjs/PzxCCWQ/ThyqtTE5P1esMtFAPaRRAqApSD1XCmp5w4oNf32t0uJKB61KghcZON6QkBQw9cVroXDI4Ut01zy+uzWiv8BMeIL+FItnC4oKjrlDlQH407TTnTVih1J/oSnlG28pof/5H3vOetnU6ztbIoPZcqr1JtWY9ijE8ICvvgHjEa7nngD9Cajw0mBP3Jli3nXnLJD9Xq41lqxzGNA/jlVU1KkA5VPWt3O0emCRSOhVGosLMbjeHNm7eOjU04TiFOMnHB8qof8YgtcRLtS9A/Pik9r00UywHkEn7g5zkJW0kRSXtASs6G0+V3UkTYGz/lr27LDcqkOEniJsOkGfX7TzsG85nJmYUQFQjhSKVpf0J0aOR/+ZnX/Jffvz5J/aXm0UwjFeO25a1oxUxyhHh/+XqaU3BLXn+A3kJfXhlKE3P71vNcuxSFMhrMsiBViQZtCS6ydntldvbY7MzRbrdNoJRlsevaE2Pjk5NTBEd5P5/SszziUfEkQEpUIlddE0HtJOoLgqDT7WCM1C9HqEAUWywBnvJq3JoaKKue/HFwjuV3iDJJJRwAe0v/XJI8K3nFGbfC45I3Q2K2iD+vec21//X/ek+tYe7ff3+aBER8aRoYRCLBIEsy13bly4OZXS5Wfc+HRgtuodftpXFmqg/qxWEcYJ1JKOGNY/uD/twshne0ubQYy4fSE8e2xkZHtm3d3Kg3UvU2k1w+J2tlaSdMbOHKaxMtTbYwJ66Kgqjb7lI57NkCb24ALHF7JKF5RyBEmqR5vx2tT5iVJnBS+ZRJbqN4Rl1L+Fe4VRLEgfoxvtOU5wpClCLfljFt0xVLzPCLl/yPv/g/X/zSKw4dfny5tQCDMglZiRYc+Z1Pza5WhvChnucT+8grLKoPXE0oikZM7Oktke1NTy8uLhJ0cB1YslqpbN++bWpqCroTs1JcsDYdb0wnTk+K2BW+TAkqxqrQMiXYljyXADBiURieI6VQAZVgRxIDYJbuJHWuKuk7ZfVyqg5E6mYUxu1WO993OvIcQLhGLEImKrTRolA6yHaeM/GhP/sv/+n6d8RxePDggb48SBK9AJuuS+ZQLNQwxE67q2sEqBXXLUBZYRhIZ5mld3utYzOHF5fkOQNCNIhyt27dSsxJxJirEp2K0uQ2c92t6vGE6VSRU+QP+R8mHdFqyHCYs4UWVioXSUsUAxPtrB5LrYIw9AMqJi+wyaZTJSdSmdSJWKK8e9VqtVb3n4aceQhhjTUURZ8yEcyzkmZhwTF++Zd//O8+9sFXv/pHO+2FY8cORqFHXAITQlm25VQqVc/rE9FUKmXOwu2hpeXl5tGjh5ea82RrQSA/co5aAW/b9m2jo6PlSkX8loSxSsOoTKlO1UDmx2sjC2pZ/qrEh3nOETQzzsf/Jo4rNEnFc9+JxjC7fr9HmtFqL7fby51uq9lsLiwuLjUXCb6kNHWR1QKZifUDm8Q+tLycj9nLwb2e9LiepkhTWl08cyK3sbp4guTXletjH+js5q/f9al//uKd37ovCvTJia3yoNdx2/32/oOPjsh7JxPEM2DTXF5qNpdI3jkX2sReG0NDWF65XAFpFK1sjgaAllCdSjfzq69VQ7R7/B9BlryBJIuAJzaky3Ou3LIxL2xMvaAfACmnltVHE2g0eEplhAqZRIbgR0nICgyhlKqiMtnN5eAMcZvSOORFJyqRzc4drdXrf/5nf/iTr71W1ekHl+cEwqcTeR4kr9oqvUdBdtut9338Y5++fe89ZF+1WqNcry80FwM/nJgYR1FLS0s4J9wexFUqFkdGR6uNuusULKyW6DaMc893nF1EWdIxmYvcqOIBpVv1TxSc2wd/lLBOhg4xcgXJQzNiFwg1FHg4uFQuy1MnMF8Voh5pAhyT993kQQtXxvSoAMELURgbHdvEsn3f8zwseH7P5S98//uvf9Urr/5ub29/f7LOEHLbRCWkb7ku1ON3LfC0u+584J8+8fm7774/iPV2G77pu06eQkgnZ8EtlsqVRr0OzSYZ2cbqTSi+OsE1iP2h0+/Sl5yfIBCchB9BCaiJ4FnDMGJNXZO1CHClc0i9OLEGIUGoerl+DUKZwA1UlL887qjkV2jlw7Vh5I+MNH7iJ1719ne8ZdfOcVqQ4Jwf84PKOkOo9IDLWh0BHEeZpVxFfutHp5du+uqdt91230MP7Tt48FCv24d8xkYnoM1CoSw8SewjGfbqE3yhQTlT7GxVM/IY5HtDKNYjKakAo5AAEoSYi2X51on0F5GQAwv1k26d46inRiIQiqVyAutkH0CoSpIyw8CjBHwn8wsvPv+66176sz/3hiv2nCO7Yow0s/PhVach606kIkoZOQCieCoEKHj+fG8YaQcPLt5917133/3tx/c/0Vrp9HoDGK5QKAJksVA2CflVVydKEwpTZdAs1NkUJj7sBGHL6l2r66LtvAUoXBS4Aimgyb+YtEIGAqsOoLWAMz8c4WR1sEAOnbAgz7aS2PfllbbBwKtU3O3bt+y5/LIXv/iF1738h3fuGON0KsS5cRJBtra8prN6pz+YbAgIEXTBnYgXUUKtZEV0RLKYbxPdzxxrHTgwc+Dxg/v3H5w+cnRuvjlzbJnWT9Bny28ZuPhFR/q/pG+NMw31CBDNym2qMmkpqthV3WNSYkOJBCcczy5W1H45B1b1Bh0OVTmhiJQjfk4WsNc4CX2/6w3kxW5xmVFALWlQOOkLL9h93vnnvODKy/fsuXDX+ZvXBhUrz8ytpJwrZi1Pck4g/+9fNgqESqhJPuXLuay1UMWQa5Jpzaa/3OzOL67Mzc4dPAioRxYWiFWb3Z4XYAKqU1xGPBmlQsEljFRPiCQ3Z46t8I8FygSsnDxRBRizUdIJ4UWQjVPxtSywSeYcxl8A8+Ut8zBJBuTotmM1GvWpqU1bt266+OILdu7cceFFu3ds31xvWEKT3IqquJCEwM+iRMCqx5EV6vBvDULVTEXyW4d1mCsdqH5ORD2YPVXY0+tprZUW6drS0uLCwsrCQqe51F5a7Hj9fqvd6fc9zESQwblFYeBLbwCMrRFFyZtTGfsAiSvJRdAxhkllMvnwlIyzcBzLNCFv17VLxdLI2OjU5OTwaH3TpuGtW0cnJ8fHxsbrjcKJaOQ3IAss5TVf3Z3fYz5/2qddz0DWHcLjN/dd5JTtuTbEUam/QrvwIgl3Tooo+ikjA/kcUeJ5xPQkfAAXDuA++WmKwOt7JPAQmsQt5HZhxAKIgpMl/QgGmT3gFYry3hM8DYDliq0yC/mIyilC6phpsViywooGQZ1YUXUW+84Pe3ZlA0J4smLgmzUh0hTTUAk4ewg/yCkN8JN4BHZkr3J+3JRQFerLo3ou8FTg/sCirkCxUjBLUiPlQaV68vRQQZjK96yUu5U6s1k93FaydtOnXbONAOEpcvI9nbJfoagQzOEkCaOBSyipcJVwSCKW/LxMS1SUiUJRIOu5KtWRclh+LU6V1qCKUPm42rkqFJMbvSpPOUtJNtXxmBUncbBJO6JwiXrUscdFHc9fqbQ6nzoct0VZV3LyKT+ArDuEZ0iePQ09WRRCafnq6Rf7rMm/VQj/fyTKqJ+Xs1meh/Csl+chPOvleQjPenkewrNenofwrJfnITzr5XkIz3p5HsKzXDTt/wPSKpLNJlTSGwAAAABJRU5ErkJggg==;fontFamily=Courier New;" parent="1" vertex="1">
          <mxGeometry x="570" y="560" width="80" height="80" as="geometry" />
        </mxCell>
        <mxCell id="RWeXVQ2_0HFQkgd2XHTl-31" style="edgeStyle=orthogonalEdgeStyle;rounded=0;orthogonalLoop=1;jettySize=auto;html=1;entryX=0;entryY=0.25;entryDx=0;entryDy=0;curved=1;strokeWidth=2;fontFamily=Courier New;" parent="1" source="RWeXVQ2_0HFQkgd2XHTl-5" target="RWeXVQ2_0HFQkgd2XHTl-4" edge="1">
          <mxGeometry relative="1" as="geometry" />
        </mxCell>
        <mxCell id="RWeXVQ2_0HFQkgd2XHTl-32" style="edgeStyle=orthogonalEdgeStyle;rounded=0;orthogonalLoop=1;jettySize=auto;html=1;entryX=0;entryY=0.5;entryDx=0;entryDy=0;curved=1;strokeWidth=2;fontFamily=Courier New;" parent="1" source="RWeXVQ2_0HFQkgd2XHTl-5" target="RWeXVQ2_0HFQkgd2XHTl-7" edge="1">
          <mxGeometry relative="1" as="geometry" />
        </mxCell>
        <mxCell id="RWeXVQ2_0HFQkgd2XHTl-5" value="" style="shape=image;aspect=fixed;image=data:image/png,iVBORw0KGgoAAAANSUhEUgAAAFoAAABaCAIAAAC3ytZVAAAABGdBTUEAALGPC/xhBQAAAAlwSFlzAAAOwwAADsMBx2+oZAAAJjZJREFUeF7tfFmUHNd5Xu1dXb3v3dM9PftgZjDYSAIEKVISbUmURUlObMdL7CNbShS/JHFy4pdYD/FJHrKcnHhTpEiyJR9bohVbtiORkiwSpkmRAImN2IHBALNipmeme6b32rd8t2oGBMgZAlxg8YE/eqqrq27d+9/v/sv3V3WDdl2Xel+2hNl8f188eR+O2+R9OG6T9+G4Td59OG7G5jfuvPfl3maWm53T9GsDYd/feQ/KvXMWx3UdAIKXP32gQFO0h5APjENOvsfkHsFhuxTtuIzrMjSNra2rbdtUgAbNvHdNA3IvnIVYBOAgZkG7rdUbc1PnFuevi+HY6OR9xaEhjo94kKDZew6adx8O4gywOqDhqLOXTz3//e8tTl1q1JZpVijumvzIP/n5+w5/jKIFQOFsYbZ55XtA7kFm2QoWizOX/u77//f8uZOrq1VdNxituXjxxEs/+Jv1lVkPCxet3mth9d2HA3aBKZqaPDN1IRJkP/pTHy6UihTLhsLBAGXVlmbXK4toBj+i33U3fcdyD6zDMXWlvnDtkq1094+NCq4eFpxcJhpPZoRAMCgILAMY7E2rePcj1zuSdx47cDkiADwExk/muDh3+W+e/Hqn1giwdizCOJZhqpZt2gzN2pQeS8Ue/8V/WRp7yHVZNCcX+ON78GAXPTH+h5+EvCuhlMzCJV5C5NkfPfU7v/1blqIFg4FITAoFAjzDW47Ni9yjh+8/fPDA0N6H48UJB3kYFxAkidyCy08MC8jbcRbHAb+6VTABDwtvPgEhyHM8WvFiiBeTlhtaa6iX55Yuz8zXu3ppcCKUzICBuTQ6sXENSS7EJsixzZcP8O2vfxxhf/d3f3dz926F6Kaq2gsvHD135lx1dW2tVq3XNwI8L0pBnG3VaxdOH+dpd3Bkor9/uLenFE9nTcuwOu2JsfHHfubTgUjapVhCUkkwxXrAZ7BDtmBpJNn4CdiD2dsn58jbvZe3YR3Qlzl79vyXvviVb3zjz5988i//9Bvf+l//4/dfeumYfxah0tFUjuXQrF1fm5+5yrHs+OhwNMJzIidGYxTFYVQSIEBZSXfEY7HrzdemXJvM3DcJcs5zJ2zeBae+s7wN66Asy/32X/zl1SvXeSGo6GanoywvLS6v1q6vdK7PLa7MXHzlx8/JGm06LGW05W7LcDnW1h1d3n/fwZHJg1xAxIw9f9sKvz4UxGAIqff3tw5unfXO+6BsQncP5O2E0jNnLnzpf3+13VZFMcIInKF1qpW5jY5uSsXRgWJ/pHPx1VcaasBw3IyoY+ayEwpSej4pje49pMdKRkgMhKREPJGNRAQBcYZB9o1KoXgsEg+HeYbEIRgUw/MsshFNswzFMxzrI7Opwr2StwyHZRnP/uj5o8fP2EibBnH2amX29KljiWxvMNYTFlitNaeo3ZW2FQuK5UxsbqVuUEIm6OTTMSuYvtaimlyACoksxwoMx4CEsDZSLk8xAKIYC4VpJ8AKfDRkSyEpGA8H2GiE3Tsy9IGx4RDHMYTYe+HkHjAmyFuAg3ALip6fu/4Hf/il+YWKGJAYRE8pWF1ZPH36RCSZ5aUkpgNL6Hb02eX18dHBscHyCydO86I4PljgKKrSMOfajhWOOaKARYerkJjAuDb+HDfMuPvK2WKYl5VOk+VPzi9RbBh2QjH2rmTsv37+lw6MDKKZH2nvERxvoVMfuPrGxsVzr54/e/zUieePvvSjI88+df7sOdt0W63Wxnpt9kbl+o2NWsdhhOhay3rp/HxDZdlwThPyC222qjAmxZPQaJksZubayNm05bKOzTpmJhzkHVvXtaWV1UZdcw3WtSGOYVK26+qa5qvhyb1ymrcAh5cHKPhIIh47sGdi7/hoKZ8MYG0t07Id2zCzyXhvTzEQCKs4QpnV+sZqvU3xwcpa89jJy1fn12qtLs8wgmvzlmF323g5ctdVNEpRKbk9kIo9umc0wruhUFxWHMukXNPCG+faI6VCJpXA6CSIbpnHvZC3EjvAlGjm2MsnvvxHf5CIBg1N32jUr1ydqrc0xTDKvcXPffY3y32jsmZqpoF1x1zastpqQ2RVtzRdVzUVyBkGwLCRnrDmFIKBSxsG8quxb9dQbyaxuDivOsxUpaEyDC+wFsNKAvOb//Snf/1THwmL4qYi98w83loo1QzzT578y3/40Q9LqfjKatXStYtTVza6ajQV+8CDD3z+M5/vAhpNy+UKS8vLFOOqqsILYrvbDYrSrolJx7FlWQFWAi/qhlVvbDAsCSAcwyhy56UTp85PL6hgJSyPvMyJAgODtJ1SIfxbn//5jz18iCRloLdZDNwTRO7gLDfB8nfW1+uXr83leorF3nK+pxSN58LxosOGUrnioUMf0BWzvr5x8cK5F1987sKFs3Mz1+RWA5RLl5VYSOrJpBORUC4ZGSxlWhuLa5XLIUEbGyiODfR+6MEDY6V0XLDiYZp19K5qmDStWZaqmoqs9uZS4Lbe5OElt4LwulrhXZCd4NgaiQwPKLx7Vq4zNX2NcblESDx58li9XutadMsKZHvKw339+VRudaU6szgD8iUGxWQyxjCUIAZWKhWBE8q9A45la5qhqsbqysqN5RuLNxZa7RbsxVQ1x7GWl+f0zmpcsqKSLTK67aIONnVVYTlnYry3kM141kDsw3sjr7sPfK+3f3z2X2+QHXpEkb25A3EQuyDtTvfy9JwoiKlkqq9/KBxPd3WH5plyKb93YsKyrYbcisTjYSl0Y2kJgwWDwXans7K6mkgmwrGISbuhaBRsY2Fxef++Bz7+8U+nkzk4Ua6QqzfrC8s31mpr9dWKVquZzZbgmOV0oD8f3D2UHe8rBnnUhG9fPOxukS043yg7wLHV2gvk5A/7s4uVM1Pz8NzFxaW19WZbp5fXGwO9+VIm0ZsrZNPZUCQyMbY3m8j09Q729Q1lsoVkKpPN5gAH1t9CNqYslqM0HZFXEwMBVVZEUQwGxbXlypVrUzfWVhzDCvN8PBjkTWWsNzLelxwsRomn0CCl77Zsh8gd7I0YB6IGTdmW8/Kp83NLa912m2GFtmJXG4pjUz2pxGC5VCyU+sp9Dx1+eKB/6P4HHnz88Z8ZHRsfHBwpFctjY+OBgKB0ukgzSrfTVdtjI8PhYHCtUhkdHYH31Bvr67XKaqUC/4RBxRKxQIBNxyK0qbTWq+VCtpDPQwFfE8imZm8qfrNtG5M7CDufvRv3IzDW253TF6aCYoD4+eoGxYWaXaWQz4QlAVwasdWzJIZiGTEaRZY1dIOlGV03eE8UWW612qqiIQqFwhFsU5kczfKaqW40qzeWFjVFkThRFKRgUFINOZuKJ5PZfL44PjYuSiEoDyP1xdfp7qXVaL589Ojffuevn/ru965cuuxaDjrxb9kQYDzxW0J2ggOtCY6khvQq7BNnLlRq7XQs3Gk22rJuUpyqqjytJ6NSMZVtV9ZczTR1rd1eX60s4xSIBeqRnkIhHo/DI3hJFBMhyXa5RlffqGN+YaTtRiPq0JQsT1+/ohs6S3FCQJIVAzZSLGTWNjbCMam/3OvVuG8hiWB6PmrYzl6f+fa3v/3kt5781jf/7E/++Kt/9Ie///QPntJUhUGc367PN7UObyWw5rppHnnhKOIF54AyhuEZXcUIcFw2KcWlwFixnOEFutnSa7XlK1c6leW1+Znu+lprdaVdq3XrdVczLFmOUQ4/u6ifv0wvLZtz840Ll+3V6tqlq1eOnahVq6BkNMOh/l2rNyLhkBTgDFMvlbLZVAw6kDW5a7lpQavLlSNHjpw9e3a5stxutZv15sULF5/85jdPnjyOLLl5J+GW9pCd4MBxWAVoD0KnOzu/dH1xQwMVdxxVUa9en1leq+YycZqyWq3Gy6++fOTFZ4783XfPvHCksThvd+p0o6ovzOoL88bKklGrOuu1ULuzfuzk8ovHeENJRiSRoYv9fQMjQ65tLM7OqrKsOzbPB1AB2BSTTcc73U4knhwaGgqhIoRsqX43AqaGLVL6qZPHr12d6rRaqqqb5NY9S1Nso1Y7fuxYp90hE3yDoM7cVtCjl+K9v5devTBXWY9HQ73F3NTFSqvTtFwmKIWzucjLJ36sdlWO5SOSFAmFpFCQv87TFgUq7qA2EfhYNIo6BfxVspwEJ7JyLTyPOs1OOlo2l1uX63WlIWtyQBRthm60mmIkPDhQXllajiWj5VIPxwV9Xe5eSFuXunp1+sKFCygsu7KsabBvEwUhxzGCIGysryuqEonFbrULX3Yg6bdoUKk1v/B7X3nh2IV9fT0T/T3TC/OnZ5dMhzkwUvrow7unLp09f+6CrGgWLMe2OI5GmWpoJqpVJEf0zqF/mqEBGF7wKcRPignyIhdESBEZx26hnNeUoBhJpYo31lsRKTzSX+goyoc+8MAv/cKnYtGUr99dAkJGoymQ46efeurcmTPkTu56XUEssyycDPBsIhHdu2/vv/63/y6TK2xec4vsYIQkfEINosnZsxcvT10Pifzk5OD1+euzlZrmBihWWF1bfvbZHy4uL7uMG40GEjExm4nnc5m+cql/qDw6NjI6Mjyya3j8wP7y8Ei+VA6EI1QgYLhOTe7O16tXF2auL88plBXNpgNiqNPWNjqqbFiZTM6Cw3DsQF8xiku8FbsbLLCu5HYBOIFtXbp0afraNWAqK6phmBZIj2M55AsWFMdx8UQcZutf8jpr2NEnvVZEjbmlCirQ+3aPU5YWDYcS4TACKmJKtW2fmFo9cW7epSMcF3FMGIZkyNRGtdVotDutbqfe6dbbcqsLGi4yXCIS703nCql0ub83U8iM7x5PZFJSPERxtKprLcWYWQbQAhuMIW3lcpky2BcjEG3fYNJvFMwKlu8bPyjMq6dPtZpQowUmbZiGl1YJ0UayQ9ZPpdOBQAAtb15yU3aCA1oQLDXDvrayZpp0OhJLhsKPPXTo048/+uDe/nI+4bCSLfVQoZ6VFrOwTlfVcFXmNxS60dbqtebSYmVpqbK4sDJ16VqjrSgOq9NBxeZcMcpykqMjQkutlnVtvjYzV+2YnC0lLSmpcdKrV2en55aK+Uw6k4UCMA1PnzsIZuUjoqkafGRtdaXZaHS7XV3XYRqAA4wRmYFlOQCRiMXhtptX3i47wuGDdmNlbfrGimGzIF2qw569OL1arcbCYggRyWEZE6W5oBiO4ggyJdY1mxMDlqnqcgckxHRs23Ytm2kp1GJdna/KM9XuTLUzu9zYkOmFul41ghVZXNfCFp+3AylGiDG00G7LKOF3jQ4l42nPNDxtPGXeRHwssLOwMH916qoMUSAoDhFACRo+qizDiAGUlymW2z6H7OgscAdsOJ6JBKSOop6enn766OnrK92G7K41tYXKBsvRsQgnBQXkQl4k0SQgCPGQCJ7WQIqHoWLTXJeVhhRgRVbQDRSvqt3pmJqhGOZ6RzPYiMNHDDaqU5LDiqjtKcrkRXrXUG9/eYDYMe0gP25hsp1s4eS/K3Ln/Nkztep6pyWT5GoZloWgDiwgFJiXyDPhcCiZSu9UBG0PB+ndu8tSSCceP7yvNy3pltPRqJZNz9W6lQ2doqzdg4mJYnismCnn4mGRdk09HYo8fOjBQk8BscUgJbqFldFUudtYFRmbcwzOkJnuhtupWd06Y9kCF+ACAIqhGO95nMO5poNPk2ND8BVPi60gujXtbQUn/RuXsIu52dl2u9Nud1VFsUyT3Gv1BAOwDA3TiMaisVjcv/CNspN1bKohCoHHDu7+hZ95JB4Orje6VxcrF67OLy3XBvtLu0d7Y4J7aHIgHWE4Vw4JdiyM2qSbLw+O7H5gdHz/3j17xkZG+svDxdJAIBDhXIp1LcrFghkM5SYjYd6xWcNCZnYZC2DYtslT5lh/fveu/kQ8SqbpgjhBEyTPbQg1EU9NX9dup3P1ypV6vdFBzJC7hgHTwHqA7hLzgJGxLCuKgXw+L4VRJBD/8q67TbaHwy/p0RxaFArZjz36wC9/4oO9PXET3JZh4UEgeWsbKh2Mu2LIoiXgNj4yVEgGTx59vlmrp7OFcl9fJpsIhUJI74lCWaE5zVKb3XpX75iuaTs6x2iUXmfNLguVNdPQOlHJnByOH97XP9JfJMOjnIFgxDe1DW9WBKzr16aWlpZQM3e64F2aj4VvGmhE7kXBGkUxl8uDLKK9H2teJztZB1aGuC3GCkjh0cHyxx6afOzQLpbBARzip+cqz714/tz0jeeOn1/bkFOJbERk6tV5tVO3VaVZXb4xf+367IJGCVwk3VLMlqyrpoN4nk0ndKXjGGpttWIYiu5ojiUnRPfAUOrRvaUHJ/o+eOhAudiDgQkG3pMYT7ZRHYI25L46RbebDXjK+loN+VX2Egpo6E040Am8CTklKAUz2RwvbN6CfqPs7CxemcCAYTguSuxdQ/0HJsfEAE/bDmXrJqaiWR3ZEANCNiY88eED2bjQbK6H4zEpEhYZxjZ012YFMawa9uLiKgqJ/t6BbCqbjGVom+XpoG2ztkPHQoH9Y8UP3Ve+fzi1b7D4iY987PDBD4CVkRXftArfTbaHwxPoSc/OXFucW2i3W902yJdCPMX28ivJKSRq4CUIfCQSTSQSb9LZTnBAFaIO7aKGIxbBcILLCLZjB1m7R6J743w0JOi2LXfkjzzy8FAx01mvuhZh4+RLpYgHlk4jnmptTW4HBD6XioKq7Nu7W5BCqdKAlO1hgmJfKfvY/WMHx3oPTo586uOf+JVf/LX77nuAE3jv67m+Yh4gb4YFkVZj4+rUlfV10F2SX4lpkEc/xDRwlkzDdQWeR02QTKUQSP2rtpXt4SD254HhvRH4Nd06cfJCVOQfObR7byk2nObTYUYKOP3ZZLEnV1mpzM/OCayAbObSjoGixbBDoSjiDEiywDNOq7oyO11H+WBQYrzghrL5vr4PH9r70IGJn33iiV/55V87fPgDyVTSHx2gwtXJN0DI0MB3B08h/kReC3OzczNz7Xa72QY7MnRiGLBhXIeo4XAg/AyCKPn6STafj8XfOhxb4xOXQfLH3uxK9cT5K7FQOB0LzszOXbw2k8rESsl4LMivriydPnUS9ZsUCnEs8rlrWEYkFk1nc8FQzHIpRelWVxdXl+fOnDuzUqs3ugidzp6JoUcP3//pT35y374DwSCJbVviW8SdhfASipY77atTU7WNdeRX5BSN0FAU00SQ7xF70B3LscFgUJKkfKEQ8uqgnWR7OCC+yyJBwV+w88yLJ9bqnRBHtxt1g4/Z0Z61LoKmFQ0HN2orlZUlpDGP71CGgRBmR6NRlhd1m0b9RNMWQyPhkW9lSxKSHZdOBB7YPfzhDz2aSGW8RfaXmrzfPRwQ9Dk/Pz89PdNtI896WDim5yNYUPSDLTBjOI54SiqZKvT0UISA7TjEDnB47T1vwYZZb3ZeePkMZ1vjA5lUMgpO0+0oCwuVQj43vmuo22mpigpXNcnTWtMA/SSPVi3NcKr1jm063Wa93WrqBjFhXW1b2kYpLT5ycH+Y3DT1hvO09t7vjMUWfGRf6XYuXrjYqG90ZUVWkVxtlK7ELoCIRxZg2/A7BK8gSbHZTJbUQR5M28uO1kGAJS9smBPnrswvVcuFHMLnysqqJLCjxXQ5Gfngwwc41r1w/sKNpcryysryynKtVgNH9wIqTTxZtwOiRJn2nondsXhE6cr1WsvW5L0j5YFyyRvHt8KbsqOitwom7KO3trK6MDsLLOAmWAaTJBOcJOIRWoYsKOUIAXJ3BVigtCeXk0tveb9FtoGD9OXBgCSLLUrB54+fabU6+UyCp1i5q+bTibhI9xVS4ZB46fKl67Nz0KOrKHDeVqsFfTK5XCgShYFqjl0sEUFNHQkHafBSJpjJZe/bv18KEt5JvP82BLw5vKls2REFZnHl8pW11TXohmqNPO33kit6IGaBqA6haY5DEhNQqoCP8nzwFgzuDg6M5zf0E//lawunL0xLAT4foTduzAcpW3C0gGsIjPHSC8/NzMwWi7179+7fvXtycHAQQyYTqUAoEksmeSHQ19sbTyYn9h3oG5rI9gzmSoOhdE9Pf9/Y2BjD+EUUhvBfb0F8RGpra+fPnWu1O8iuSCdwRXKKAEqExAw4CssEJfJkC2mr0FP0T72J7LQUMDbymxSo+Q/HX12srI+W8kHXbDY3LK2rddu6rmmdRr26pspKLpNJJxOxcLSYLw0NjvT198MyLcMOczx8qt7YOD2z+OLlpbkW0xFSdCiyb3KiN99DxiACnosJbM7hTeU2t0J8J1Gj1cBRG7NgOJgeSYPku8w4RrgGlpNnGEkQAjyfzmS8h0GbQYcIGff1sj0cHnUh9rbRlE+dn+ZZdriYkbttdOUVun4bGtwG3jg5OdE/2EeolwNbtVhUB4zBODrjakGecNiFleqlmfmVRqelWdFI6OCBvZGId9fvbkB4TTZVJb5MUe1W4/q1aZR9GsK4KntPPG2GpTnoCvcgXkLa+re/QiGpWCyJkjco6cOT7UbfFg4CLSl6KOrclalzV6aLuURYoBAXUHuRCpHMhHSGwWCPS5XK3Ow84Toc+QhNwJ3AjKPhMFhIkOcHS/395d5coQACMNSbGxvowzKSYV5bqbcg/tDXp6dmZq5dvHzp4pXL8/Ozy8s3qtXVZqMOdNArS5TBP0bgWD4gRKLR3nIfmdetckfrgH7+ZMFE0VY1zBdOnpNVfbiU6bTWUSn61JewXyBG2oNiabUa8pxsW4T2kLRG/hjKpiORkNxttdaqrE0HxWAqlQqHxf27hwrZlD8WJuaLP/rdi67K3/ved488+8zpV1+9sbSEdUIQR8HSbNbr9Y1Wq2FZJrDgOXIrENaRTKZKpV5/fhhtc7zthr0NDl8z7yLycf7G6qnT0/lEJhMS6/Ua6AQ6w5x9Fo1K32/mtQY3h4BYE/dFwcHzQNRQ2uuJoMtbHUNtrlaWMpHAvonRcMTPKbjKu/6ty3N/f+TvfvgDkD+eD0TCETBOTBsVGmwC1EOWO43GhiJ3eJ4lT35CoZ5SbyyBNbgz8ts6C5kctoDA1RsjhbhrInSrHAf747wkTHwCNNSjOf4YoH444DkKg/zMIp6Didarq0anKlIq75idxsZIMblrqIyrkcI983o7osjdH3z/++vVahr2lsyEwzFRlFgWQRN2AEwE+IluGM1mU9NUfEYJi0RGs4QK3dE7t4GDzI7YAFXIhx//0NjkcExurSNKsgx5hESCA+o0n/mRcI+tA6NhEOwJJySOxNhWKMAi1iPAgSt2unqj0Q7y7v2Toz353OYQb1euXro8PzubSqbBuCUpjCkQCgqbJDEUeASQVwEKgivYKlgyKM/AwJB/7R3NYxs4CBLkB0luIho/MLGL1lBA12yXJX5HbMNrQ+oTG52TXx2Q4yRmwAMcl7MswiiCItNuN2zXkk1dEJlowNg3mDmwezxMJgCBGZEhfBMhb94nP0V6RzZPYgHIkt58oZyvN1mHggts1Fur1RoqN3LLXNNQRhuGjuYBAa4TQOwgX73SlJ6enmicfAnzbuT1cHjGjykTu0rE0pPj+zTFUDuywHEhUQgFEKrhJCR/IXeQrwBTyC6cSzOWTdk2MRCUK3DaWCRgGd1EUhocyvf3SnvGMvftH+zvQ8lAim7PPjC0P7p3o8e7q0J+5OLhTTZezCOIg0h4GvmnYumYFA43Gt1QMF5AwR5D7BC92AE3YU0wddMiIUOS4MlACjyIE8hDprsRaOFhfot4R4guGP308Ve+/tWvbtTqgogCOSiFIpZDbdSbcBqbXGu7tkXYRywODwJJh2M7rjPUn39wT7kjK3w8Q4KEYyPblcp9hw4+FAiIHgoeJfVHJlzP38Nxu1Vfra4sANZAMCQFI2IwLEphISj5T9fRma4p//kLv/PKsRM0K7a6TdRu5JY9VoZkTheh1DStTDIRELmNeq3UW/ra17+xa9cer/87yzZwQDAq0ICtfevP/vzZZ55BlaoqSqNZz+d7ir0DG40WGCuIoAVmbKohgenJZ6FRRzXaXQ0IfezR+w9OlDLF4eLEA1h82zDhHCwreB2D0fjL7G0out1YO/7y85gkCs5kPH7l4pnl+WuIQF4QCAelcABvkWi2Z6g0MB6OJVS58+d//OW/P3JkqbLaaHdQqoAMeXHMRWpB7LQtSuSFZCa5srr04EOH/+fv/WE6nffGurPsBAfMk5m9OvXlL/2fxaVlcouUcoEIw3GiGEGljqssTA3NbFNwjZDI1ZttMZp0mIAYYH/picd6MtHSyL54Tz/pjIgXK8gfcN464snJo8/9t//yBQSaRCz+8KH7BY4CtSXNvSfQAA8fDVPhA6HHP/2rkw98+PlnfnjkR0+3m41mq9NCMatq3jNpE36cTSZRxa1VG3DZgChsNDb+/W//h8989vPIO/5Yd5Ttf95DHMW1T7zy8otHX7aRKDzzDohhmhZMOANc3HExMDSGuwp8gOFQK0ZpVjA1ZbRc2DfWJ8VS2b4xZF+asra6RFwg/o8/zxE9cc1wiB7oy5ZKhcl9B4rFPE43OrAzHSUIzwUpmgP1UzotxjV3jU1quv3MMz9cWlzwIoXgES1eCgrxaASmlYqHE7HIer2FaNrptB9+5JHf+OznYom0twh3JdtbB6S5sfa1r3z1lZNnGVaENaA7ltxHIoEWVyBgYtHIPrzApUE42ABPvt9hqp/+6MOTEwOJ0nBxaA/CJnkU4YdML0bcYhjYoMxRLXXDVJrIkZwY/dH3f3ju1CnLtciPO2B6Dt1qtBxLG99VrlTWXT4hRFK1ek3XugjHpoHuSBULM0U85xknGSG/EXrqmR+ns6Xde/Z+5nO/MTA87k3QSw93Ia+Hg3wks6TOHD/6R1/8SrOr4QCiJubr3yWEE5FVJokWCIFtIFaQHySxPGo4u5SK/twnH03lMv279keS5OkkKIlnC7epg1F8Bdvtyne++acXL746uXt8eGD8K1/52sXLl0EePB5DqK3Ii6Vs/JOfeGhk38O6JR079srCjSWGdQxTc8GEiKbE2BCtKUu7f+8Y49p/8bdP//PP/Ztf/cy/4LznKVDaT2B3I9u0hJqmbqwtVzKJ+FBvaaAn11fIZJPRWCQUCoo8Bx5uU+SWpGEbKvRCNCfPhnXdtcyBvrIkRQQhFAqDiRNFX/OLLfEXwN8uzy389V9958hzx/7f9579zl99t7K6pjmmbDi6w6s229attUbjRuWGaZq95eHRsVExACrTMXXZ1GQbREPVdEVBnDdNFVMZGhmJJZOJZHJsfNzDAkOQUe5etokdWDe1U//xs9+vri2HJdE1waRUBMt4OBiVxEiQT8WlVDyUjod6Mol8Jp3LpnPpeCImSQFm7+6RdCqWLpQi6Sx5IrFpBL5Ot+Hin5ibunjsuaeRfJBim+22qqNkR3NgiKstCsWf68YRJF3rBNzWUfuK0Ww8mEtEsDyphBQLQR9OhJtq8mC58KFHD6PArFTbT/zsPwtFYt64ZL09E/JGvZNsHzvajeX//p/+49GjxxOJjNztInj3FEuJaAQcDKqCZRF9HUTvgENxCO6IpJIklhEOdw+Dg4zuf1CMpLdUQP9kDHiZ9/EWcZ3V+VcvH/2erqhdy3j6mWMXptYsC30T1k1u6yAmGfZAJtpfiN2orv3UTz/yrz7/645pkZ/FwBRt3TRdw7B0TW+3WiBevX2DcO6lunn4w0+Qn+rCUYg3EWe6Szy2iR1Yt0679q2vfWl2bjGTKaAby4GDoFq1wfjAcnRUSOSPPCKHudabTSTgsCQdvH/PxMRIvlge3XuQ4mGrW5aBQciKvwaHNyhOmlZ7mm5ehf+h/Rf/4E+e/JtnFYtxyM0bQh9AbRhbfeT+/p/71E/pLpfJpe7bu5/cDoaSLOIZiUrYI4ZmOe12Fy7GS8lIbpgRk0ABteQ7hcMXkMtTLz2nqDpMDunEBr1wEMRhieRnSuSJn3fTA+nFNnTN1MHQQdHjUSGbTe3avS9TGsTsISQ/kDeoQ4gM2d/EAoKjliXPuo0rAsbgpJWFlZdPnpydW6lUm9VavdFoqbodlthf/YUPPvHxx9hQGoNw5FfLBFyGfCWRZHwCB7nFaCuyZrgCmsXyIxQfA/5IT97Q7xgOy9SvXTy7Xm+gFqDId+7If+bjYe2tDLkNRkp7EHNUtGCZqFaAma63I9Hw7n0Hg6G41ylYFJQgwfRWdW6OiCO2WrMa0yyjYFLk4bilUzqtW46qq90OmBYSqtFfioWlkBDLo6j2bjGRb8wyjoBE59WPpHsG7FiVNZvnIr2xnnGXkzAIgYNY5zuGA510W43K8jIJ2gZSGrEFXdfJV0ctEt6ABY5gFOwhy2I8JF5ZVUfGJobHJz0+vuPwt8JBkfTUcZwu7Siu3mR0mSVpHXZA/AC9Iso6WqfVaYfywwwTda0m8jlFBTbXHWGGMRFqUEGaeqdtcsHkeKRnzHvU9nZkeziICbw2HTSAWmCjxFHgKkjDqBRV0GNVRRQhKdaxTbiR7YxP7kkXim+e6W8ZERMCpp7zg5hbbbO7RkCxddc1QUNd20Rr5HTFpKTybo7hzdZVxu7SgAPsjxTT4PE2bbOMzRqGIlNitLBXiPQQg3hbsj0cWGqiIhHPGAkiNwX7OPK68TzIvMlhiuybwuGLj7h3Wwzi3Uomxa8FzoOqlXJUx1VsCy8yWyGUoMN5CnGqcZlS1zjiJCgRAAkcGOOyKN9U+FKsV8qMUdytD8DfmuzkLJviT/128SaCmXhO6QHl9YDPDLlrBHnDJbfJLSP63ZCPCEoETnIEV+MFj8ABwGt7Py7gCMgI50bTMTskhICp2RbtIGiBEJoomi2HkdIDnJR3EXDfXIOdZSc4Xndwx+7RbvMciSP+3s6t3yi4/mYXJPKRcUlMeKO5kzOkDUDCG+HwRHWCGil9LRMXMHzQRe3iNXx7cgfr+McTHxRPl5uweoJD/gF/mjfVJcdoAgd2tlK493r34bj10G26vVG2ufqO17wmiB2+/v4VHj3xxXu/zd68kfwjhG+Sxt5/brF14u0Y5+vlPWMdrwn0eQcTemfyTizrHslPDAvIexCOn6S8D8dt8j4ct8n7cNwiFPX/AcOEAj/zLLBMAAAAAElFTkSuQmCC;fontFamily=Courier New;" parent="1" vertex="1">
          <mxGeometry x="320" y="590" width="80" height="80" as="geometry" />
        </mxCell>
        <mxCell id="RWeXVQ2_0HFQkgd2XHTl-27" style="edgeStyle=orthogonalEdgeStyle;rounded=0;orthogonalLoop=1;jettySize=auto;html=1;curved=1;strokeWidth=2;fontFamily=Courier New;" parent="1" source="RWeXVQ2_0HFQkgd2XHTl-6" edge="1">
          <mxGeometry relative="1" as="geometry">
            <mxPoint x="260" y="140" as="targetPoint" />
          </mxGeometry>
        </mxCell>
        <mxCell id="RWeXVQ2_0HFQkgd2XHTl-6" value="" style="shape=image;aspect=fixed;image=data:image/png,iVBORw0KGgoAAAANSUhEUgAAAHQAAAB0CAIAAADb+IFwAAAABGdBTUEAALGPC/xhBQAAAAlwSFlzAAAOwwAADsMBx2+oZAAAPPdJREFUeF7tvQuspddV5/m9zvt177n31utWlevhshPbSew4TmIn6dCh4x7FSasJw7RoCB0mEhpNZHkkZoSYhBFICAYEEhIEggQkICEkJBB0yJDgJB3TNnaadMd2HL/L9XC97vve8z7fd77vm99/r3OPyw9CUnHFPRmve+4+e6+99tp7//faa6/9nXOr/DzPvdfp6lAwfX+drgK9Du5VpNfBvYr0OrhXkV4H9yqSogUojuMwCr1XCBxg+bz5LnGcKb0kzKDOyr5EX1L5AlEhganWqVzgu6DF9SG6LK83l88zJKd8KdnlmwpXVDv3u9vE9WVdZFlGhmwuRWpuzSjlWYY8RZPJspS03W6HYShV3wP53W733i99eXNzs9lq0WMA3J6faibqMQzoXyMJQ2xcGfj8Mh7eQh9xTSPzMk2NATKiwGeA5LI8czMg9YIwyFMG7fMbOHjJoMIPApBFhU+nkwla4aDCdZH5mRcFiAsRpjxJU5q4oYlBS/UgJfxIR5plkyQhH0ThhOaSQjE95ROUi8imzM7l6U1TypKUEaWw1WeaJpMzp8+84523feQjHymVSshcMfl/8IefeeCBf9izd68fhCAVhhFMLaCsw03ELTlzJkuGKSGWpZob4iowyTyj4LAn40V+hLY8lQ1IRPbi1skDNWWEu+vdU7V6CNEJ18SCQFNNJ7Z+QKZh2KCYPosvhZajdw2EFZGIWwbeqQHBXP2jRGus1QI9jTEg4wZMn2qkRdBYE71hASxhnj/99BO//uu/ftttt2mYV0r+R3/6f55rLzLsYqEUFULW0E010Og9ugFhmws1bvgsr5sugirLaHhlAZAwbpgOZVl8ngU+cxagWimknDohBdfTWmJz9JFi2iwrs83TSRaLjRid0FI5YSBg8xQoVOP0aR3d1kHSQezGrDoEEKTfSZYOhbANWigjgypgztmWGokbHJjKYidJoVQqFks4yDOnTt5zz90fuOuDbrBXSP6HP/yj+w8ewV5WVtcurG4zaH4C7Jc+GYszVGdnQoeZOJxdU+qZkyEeqMT0nJirUos8BFkB5FB1HPBwDC2AbQP1o3rsH33YL3tf6+BeIT275XLNpEL6RG4oakKHKtJK+1+jlTlQpR4EqOuZjPqEqe7RxEtmREEyDn3UVKJgz1yl3qicPfnc3Xd//K4PfUiNr5T8H/ux/2lp/yHA+c//5bFHnjzvFbAFUILh5kRi284PZAriqdYZF6TRYbBw3dgNFZkqQmouy0JSEKkK4OGoTm2dNsm4JXKEb5aYmJiyNjsjcaq0fEJYbe2gcXKYouBz689IlNUQsGW90UJtJayzwGXEcQbgVGidnR5mEgRRMe0vVZOlxcVTz528++P/ywc++D2C+z/+u/k9e/0seeDh5x47veFHBRuS6twWtvFpnm4PAoDOGBmpJu50KOuaONinOKiN5sFmt2lp8pq7WjilbvJqxE5RyXWEPDYsf8ILncxYDoQlkYaplDM+9aPlIg+U5n10rlofzmu58Wt8NhJx1RM4OmwNXzqlAwpp4Beyfrswarfnz54+fffd/+tdd92FyBWTAJjgbJJU9uWsSlPU/lKvSjVcDXw6N3GmzN08v67Wxu8yFHFl2q3OQ2o6QSGPSnlIGnlBlHPicVwh7na+YgK5bJx+lIdRRhgUhWQ4+HEeHIueDsmCO3URKHpRlAUFLyxkYTGPynlQzsOSFxXhYP5qErDVaEtfWl0mxgqwaMwzDbw0DHhxtsDhxbZCgGXlmFbEMJHDUKvvjWQPqMPBy/HQs1OqLqe1DjqhRX+CQQeeLFPVkBZEs0HCzi5HDna10k41/BRFERHRD9FEUCjxCgvlLKp6hbIXFcDaRQ4K+VhfD6cfRnL9AEQaBWwpYVco+8WSXyBT8aOSH5b8qOijrVj2CgI314s1MEz1ckA7Zy+0MFwHthLWTIjKSYAvDMascAxXI8fi7Ol7IhTK6Ka/wGCGxw8j4UewyiFpbBqKETiqboqglKjKqpmJdrZtX+fMnHaODU4MrSA9OGumY5lzUKgF5YZXbnrFql+sYIZeUCJgU0AMFiH2W8iiYhZFeaGQFUpZVPELNb9Q9Yo1r8SrnhWraaHCi4yHhgL4lqQE5bzCUhAUgZvglxB6ijtTAHUHsXYDgxIQUz+FFSicMIS+B6I7ekIPqDqsZCyOAy5CiulFPluPzcg2dBtNqz0VmK4AoRBjEYaKx4S1diXQ2KJIDCbVzjokSHcyDVICJvXMMEqVoFL1y4283PIqvBpeqZFF5cwvyJhZMbqWReMKCiAoEy5W/GItLDb0KglxX9BX82JFNo5pF8pBRIaXXE0asg+wZXYas+RHO0POXXuOwTJATYKgl8AtxMN8bxS++c03s7PIXVrrrG6PAnafsKYPSGur7p3vc/uUYcn7I0MdzZk2RcNYDWWvciYqOLuQkim08ufMycOu3QKAl2wcvKZ6XHP00ldBuPjFKt5DIEYVXIf6QUyOAo+Mw8XzljwMswiCRVYdh0BRjkKjZeRuAJgFoY68OS+5gmlfHk6fKNth6jYfVUE2qoZJpVjq93s33njDwkJ7Y319dXX13LlzZ86cOXny5FNPPfX0008//PDDZ8+e3b9/f7Eo6P4p8n/iJz/CmrNaD3/r7KNnd0Jd+LR6rlbz1Hyc8TkUGBOJdo8OdFUYqjIFFbTyKrsGqMHpasyoYI9rSwgfWbdEdP/SzgAI4CAPatgnPWFlQVgMo1KAnWpxcLi2JtLpXqmURLbxwd0NDF/C5uHWkYyDdOxNhn4y5IQqR3kZ9aCXp1GekOr6R0CdZUUUaJz42pR7Z56OIj9h/QeDwZ49i7VadTQYFEul1txcr9eL43hjY4PZMMxOp3Pdddd97GMfu/baa9X1K5H/Ux/5KXwZrvHhJy88erYXlCLFjEJJm8TZiiHFTtdVFdWCxbU12J25RbDIyxKpAXyJOSkVmLrj86bWQl+Aw0RnpINLGkjRKDcluAEX1Niz3Iida9aB5oeFiFgiKHGwAlaoywHKgJXlEU5uTBxPE2D1kmEe92vx+oHRs/kkmeRpDOgcWCnhgK7A1Upl396lPJtMJliwxzt3T26/lHXGC3PJkgHfhIgqTcfjMUVqkYGzvLwMvu973/tgvpzCt771VjlGL7u01l3ZiT0OYhcPsZs0Q60rnnd6sFJ0DNmQQSecNCN5YXHk0VSUHGJhAevT/i0UAx3xHOgc8QXOKM/nTMfosBK3f6XfISsnKNB12jAS+kEVI9GSgDLdRBxu8hKcXaWGV1/I63N5qe4rYCgHhapXqmSluleu47K9YrMcjosr/217az2bjONhf9TvpQ6Xfr/fbDbCMMIkG83WeBzrgiw0dVVzAZl+eI1jCWPLo9EI4yUFYsBljrR98MEHSd/whje8/ClPePPNtxCOou3S2vbqzljRj7Oo6Ww1T2bK/LELXCET41iTv7OTDZgwMWCSM43EUSyDV1Fbg0NeWztXL0Apc8SHxbpfagRVQZAXq3lBUSpRFCcn8nI48tscMpgz+GpLC3RZtw5VZPSASQeOM1jGgHeutvzKfK7Ao+6Xq4pAas2g1g7wA6ceiBibF4BgpVoLowikms1mAW4YjkdjXCfGDApGik2d5TIPsNYbv5cRRVmUI1B+5JFHnnnmmWuuuWZxcVGtdim85RbA1SXn4trOWhdwdf+VFQpcZ5egA0ZS5xJwcy21ZxWiFjlAiOr9QiEoVRVIYaqYD1FRQXFVwIHOxqeBIKc945m62rxQysvVsDLnV+e86pyAKDcVTmGGhYoX0hDNIOsWSU1pp6UVxFpUd9ADLu6Y00wLie6iVy551YpfAe5K2miUw7j53H2KAn1fIKYpcyoUCjjNWq3WaGC8IYbM7ECNWogMbkM/7jmQYQ1ZnhQSAvQaReik+Pzzz3/ta1+r1+vHjx+H7xDywrfccvNEppuubPTWOsQqDggF3jp3gIIxGcGkxrwnL+wq4FKQJVwQFHOBHqc/Jlys+eU6piToyYNUWXGoX24G1fm00iLSCgi2ylWuWEzCqSyAI4e+XyIUm/Nqrby+6NfafrWVV1BVlx6LatHJKpqPBlmFDXLEGqeMQN6DEcvP60ocepVSJe+WvvmFcYLNVrvdLlAyC7Y2+JIvl8tAw+ywZWYsJ8uP/AOGLI9OrQEqtByRt6J2A8bmlgQZlN9///07OzsccSwbAuEtt94a46mzZGW9u95NFG8qNFFAIMenadgGV1nmo6yMekq6CGA+yGBTjC7lmPaTGNBDb8K5rHgWeSKqUjUoNcBdFl2ueWzh2oJfWwrml7PmYq5N3dSOprbAbaLuVec98G0seM0lr7HkAXe1nVfmPF7VVkYUjCruHWh2Bq5LXRAmRFOccwlLHjuYvaB7sfzUl8Mo7PX6uEWzTXAZDod4BsBl1ACN38QGbWaGndtqUxxJgQ9iPSyDGK3QY0ccRZhoJkp7/PHHDx8+vG/fPh1ow2RCHLC60VnbGgpNhVOIs8Xk5tzBQp9acLEdyaQFKCbiIkf5STYpTRU4aRlk5pKRNPetbOJN4jwdB5MY0DmY5V6iUoiBV7DKalhseiXwbeWNea81F8zNec2G32gEzaY/Xw9ajaBez+t1v8Z1jt3QyKusE7Zc9jA9NkGjHjSrrXbhWLt0uB5U217XDyceV55iabRefupevG2pXDaDZVQcUBgXaM5OISyXIpkZjpdnZoSAMZkW8mAtHHbN2ej8+fMPPfRQpVIJb37rLaNxDCJrAnfA4gs7Xcbd7QVw2FxYJEDKMTisDDstgrygTFsXdJ3pLtIwGadFxk5WL3tDj1bNeRapyOI8GQVpRn/OJ9NEe5wIFtWECkGp6ONDK4WgVio0i82F6MBC4UA7PNHOq1U/Lhcm1TCiql7w61HUKr5zKWoE+al6cdgsV5tRtVqojtYKj3+Z4Q1Ho2q16tyrj8Hic7FcWasG52HI5IHGsFPGuV1D0+Ajw/KQaoYOXJZKcO5a9yyzvb0NxAIPVRPd9/TxhrsG8u5k9EzLnuW480fxmbNW6qh3ADnYnD5yflk+17WGKzEjjVafINjTaT10Ii/1EyqxYi8ZefHAH/eC8Y4/6Pj9ftbppL1BPoqz/jjrjCfb42RrmGxPetvhmV703CgYZv5KsVhthof2FE/s86+bT080k+ubac1Px0M8klcvePWK1257e5Yq9BeP46WlJfO5IAKyHD7sYhugpvBychbyklqcAMtjrRzCU9ImdUQeMVsnfVIADHLczN95BN54uTxA6u7gHtzplQXF1MWtcDLizSDUtVLnSSXQQz9uU7plucu70yWEtUIsoJwvGnVQuOdqOjtiL038NPMm45zbVDzI42Ge9PNsxCGhK1Oa+3HqDUZBb+T1k7yfpIPJBMxHwfoo3J4U15Li+X7hmV7hiVHxsXHxuWFwcZDWs/TfLBR+dM57fzV9dzU/URhN8qzZam1ubuIKABQPwJ7FM8zA1drvknGc+UxpytnNzzIOVbaryGCdpXgb+R82In0grb2adMPJTsQr6RTGO6V4p5x2C3GnlGwV4o1ivF4Yb0SjrSDeLCadYtwpJ91islOIt6NkKxquFgcXioNLxSFi68KLcQjK3bGAr16cxRO6dIacClw9h+SIjvMsZgvlecLp6y77LAd8CTvfrpnoOQ8+JOO0YodJ5SSXMjaYnwYEO900G47HJwf52UG4kRWHbDduL34IsrgCNjVK7BRi8tLoDG2GMmSbzi3/CwC7GpHljUlbYLUMNEMWYv30bYVb3/rWbn+IFW1tbCy2ygvNaKlV3NMqLTXCUtZL+6vltFOcbBWTrblwuKc8aUejhQhTulAYrpTG66XxRnm8xqs0ulgaXizCHK4W2MBR3YtqOBlWzd0IGJObB4ntHVJ3HaCKHGKyBD2UIdKq6Dh1YjDdfYHdQKKjIA8UfpRL2cB5ejRpf+ld3mtPkjR6vfF8w+bK8TzZXL3wwBeISHv9PgaLkRL2s20BGs+AiQEWcNtZxwBd9GWe7AVXK5bDFDEUgyljQ1uxUMQvW60RMtaw3W7rFCKCsIpSobh84AAt4/FoksR6uuG5TxOyVJ+slhdHjRPx3Ilk7tq4fSJevD5ZvC5ZPJEsXBfPH0kWro2X3pgs3pAs3DCp7vXlDfiRA3fP3jkyiYVlpEJBeYzQuWGZIFGpLEamTcqgCnieUFbkB4rm0DL1K5gtRmqfGJG4Hjj60EAOAdYztGdg0gSXMJAoFFDm5+fNcjnWOL5AFpgMDtzoDEHnIfWupXXIIkCelCJtZwGG1v+VCGFrG976trd1Oz0KnU6XM47hcIdeW10nKuRerYuvgNAzqOrRW/fe/L4noxO91vHJ/puyfW+a7HtTuvem9MDNydzRpP2G+MDb0sUb0z1v9LxJ0L00CeqMS8bGQNSdrMvdowjviDD40eNHBQY6LVVCmgAtLFT0IAJ7dq0wUMxQN2JknTqSZjHr2RM3mS4IoVqWvOgPyuNBv1ELvAzkCAWSjZXzD32RmxhOFs+AxslkgqmybYHJLNeeFVjeHAJksM5At4wG7pjowYNHhcjETMYyJtlqtfyf/tjHLl7aIPA5feZ0N5svNxYGFx4ej4dBhEsy09PAicwbt3z4jf/igxd2skIxSGBkTC5jD8dedP7Senc8ecs1iwtB/I8bWfrs/cGzX00Kc9Opa3fbipLoWuWuv3ocoehNPD1SkJeIuFJX/aiqe5eeZbuHCdwRiiUCVq9QYrG5hUVhdKhV3QyigYI1Nr9wZ5TlKDjk9UudXrhYH2UTPHol8uud1dXPfarb6y8sLuJ52ftsTSwXCEC8Pd+epHqOY7Zs0OCCU8VP2tCAPuW4/T2zcZQQflTKFRYGLBAzQgwZ6AA+4JZb39bvDViOzY215uG3HLnxdm/n+Wq1jIdy5712H+CCTdy+ftw65iXjUZKx0D7XAjJxop7Hw05/+P4b9h1fiB5ZHceb58L+2qTY5vqUl6peqelVuSMo+HcfNNQ9PV5pcDP2dCNoBQiUm15tMajrJhZUFwIub/W2X5/3a/NBpR3o+UMrQEl1zq80olpreXlxNLeA1/Sbdb9V9xoNrhiVheYbW1GLFTu6vzjXrM232kvtatK79I9fqdSq7EUQMYBYZzDC82LLmBuIY8ik1Iqmxjp1oJdnmCttyQAIi1EoFsTHCC8zXpOkNrz11tu6nS4gdrc5UK/ZKe3vnXqwt7OBO2T/ufNHyrC5uHWisOcYYV53ECdjgE2HaRYT5gT+uLtVzOOznfSh871hPCruXAri4aSx7AuUdlBreyBVmfervCguBo2lKb+xx2vs82sLXn3Bbx/0G3vDFq89fnNv0NxD0W8seg1Abwf1Fi+/1gprzahSzevlzUItq5S5D+Rs51IpI/qpFW5uYHrh+txCWCoXS/V6rRL2dlYf/CIXJaDEspg5uCRxwsbQieQCUkDHHZMaRnq0IAvexdiRVeE6zLGQ2nmoi8auK5khSyqfjnU6NTpe6o3qXHup0ZybazXxSoLV7WbtXM970+Dkv9/82jv6T7TnkqiZjHur4WA976/Hm+cb/nh/I6v4vXw4ZphePtaFS8eTXKS6JX5CHYeni4Kdty2lofsMUR+hhxzYdKbhcfqwcJOYo46mbBw7SnZfuoywPxOPUy3j1x12iGmPVcL0YCXwnTU5Z4Swp42ap1ilwQdRaxZHI7VzVmzQaKi7RNFkrAigUK/Xw4FYq1ckc38QTfBWplUh4048XtnaGg2GWZIi5MB1chTy/H/Iz/3S0sUf2TP5V//qxh/+4VuWDizvPbC8b//+pf2HC3uP9RpH1qIlv7UvmjuUl+d9ISC9zJBjXvOUA5c654IVYXEZwbEiom7ogXfGzHwyrkDJJB3LAOx80AydBeilY0wnH1yZhDsY3HdDMDw9l9PzR+fP1EpHJlAOR3KpOATGZAGZG4KANvguTyGNxSFIaoTf4EgEWTLGARXIjXpaJKVoJA4WCpcRDvLozvHzPx89tVgO83I5IbynkeuPeWdB9A2v/emV+gOrvSfv+8KF//ofh8P+2jBaH3oX+/nZnXi9j30w1HGajgIck85vPxAa7BrA5Z6CB6FItzJADgkbErOTTwcgaq07iVCYZB56EFOqa4XclHsBYqi4S+GXpuFCriwbpOGFWCZW8LNynlaytBXkNY/ActxqtuiSmTJfTJk8yBpM1ikEIsq7kbuF1CghE7AimRnnBRAdkSed8ZHhkPaZvRSGhfbWpYMXT477o05/gIgUIoW0lyeZ/83mdd+68f1PEguf/cqBk58bdi724rQzyQZJXAjygj5+JMoPipzwQodRpvosS5tSnwZy7nlct7JJnuKu2fjjjA2ixwuADozsccGtTa5gFRD1ca86dyRblbliB2SDRtFhoadKnvuyasxNb057PStOkgNRMldMorLX8/KdSVYqlIbDAVVMHkBBn8zsUSH9zYjuZ+SmLtKWcT50aXFxcWGBGAsmwgi8QC+M0212R+QZHm9hOY3vO/D23z72b8flynyNM1S1uoi4PVgIiWsam4vHh0E7XNtJznSbWXaklR2p5+2ym7c2J2uV7i17NSaJiWbCNE+wpbHuKRjiRA/X5SHc0ulBex7LH2N2QZSFHq9JVEyLVRdO1PQskVe1kTYaab3qNatZs5w1w0orPNHIj9eSw4Xhwbx3NBpfW/IPTLx0a9wb5utZ9B8Hpa8OSg8NwocH/ukecRLhgT6PMVhBilmZTxCgjiwDX9tKu2LKMdIG5E4lzyuzn1UIHqNdSGdMmoe333776vomhd7m1nbrRK99MD75D9m4xx1JO9e8JFYUBe843nrXvvT24+0TNx0tt5f+62brua14fXNnRFDcXcv7m3peO+oP+8PJxvmgv55GdXlbQjY9C9IKqWf3eRopmhmwwthiRZ8kFmpepa7nufrwoupxQysR3hb9apGrrocfJezWdTctZUl5MN5eG0y66XCUd3pJp5+OxlF/5A8m+aFiPkwnz+ThpO/FnfFgJ5uce7588u+TdIoIgAIrKOMcMEaLFpgjhqwzHBwFuAjJXfT1SrJoqODZZ9cR4NNkbm7OIhBTC6n5bkM8e3jHO+9Y3diA093pRIvHWkt7Jue/US1EhUJxzLkPaRG8MAqvO+xXOmuVcnr0ePHMs08+2L82ah5+5+G5uFwbjFM/Ku/Zs7BYb3T9ct5fDXfOAS59AahuZe5zcn0FBhzL+kaMIgS/qO/CFCt6nonbBUrEk4Gf9ILJyB8PvV7H6+wE3Q7XR6/T8zY7/vrOZLM76I+2B5NOfzLsxckwjUf5qDdOhwOc6HY/3+ml/tYw3UmKiTZPuHMxfPzeqFQ2TAmemBPOgQwhBGSIwFF+Fjvt0hSvNA0Lc4M4xwjG8ajgxeyA1twcSgxcSSpycbg6IoKW5a6srwMB5+D2+vls66w32NkiZhiOsDTsSx4XFxh4zcqk31nrT857pTOl5uAfO28O/dbPvL11aRSeWuskaf4vTyy981D10bVRsnk+7FxISi0100e27ltyevqOD+U2E3vZmFiR+0iY9IO45w228/5GvnPR614K+lvBsOOP9HjXH5PZ9oc7WW8r62955ONeHvc9BWpMJPFSVCk4427g44fivBvjZKM0KaR5wJU9L0a1yWb95N+7Rzv6OAcsQBkaDAbVatUsF3TsOZl8grNWS43YwRQ9L8KJRQV2YMIAuCvOwHUy01ZG5Lkch7ffcfuFlRUAHPT7YTYspr1Jko5jPTB04wF2GR8NykH6huuaxX29or8yHoxOJu9Oq8vro/jiIODGNlcrjWpzZwbecJwUty8m688l7GQsh2NNjw3HAnEoEP3uWtDbCEbdaNzx4kEWj/zJOOToU0+cgYmfjHM92+3m46436nkxKPf8pO8nI7y2zj1cuQIxEgaoCzRbQ0+H9FhVnzgRO/t4lVop5346XCk99gUO5HKl0ul02PtMjaAKXJAmZWrmFgTuru0hA+IKkQWZ4r3QT4thFvlJoC+YTPBz8/Pzl1uuk5wuCQ1ZufD2d95x8eJF0BsMhieufwMXwkmatOfmms0m54CCf7ldmW+h4hdapdW10fnTY5ZjbbMSb15aff7ZbPNMvn4y6Dy/fuH0yqmnSztn/M1ns+42d3t9pyiNgyz2ZWtj3BXj8PWFQ309SYaMZk4PTI6DbqIvIHmTAViTzzFwDASsZZ6Cnim4j5s0HndUC1MtveIxTFfHg9QTMus7jHqeBlilzVOVJ78clirE/2a5QIAMdwrcIpsXLFCNWxDuu5YLXZZRil8FMiJl3DUc1Bu4cFyt8x67hKTcwrve/Z5zF84zKOJjohSuwqPRcIIK/Wjd5Bv0p1JcfOoba5NTz3XW1stnLnn9S2fjC0+ll57KLjzubZ4cX3oyWn2yvHkyvfRkNljPwnoWlFy4ofuYpu3gUKzCQLTLCNESBQ9gqrhCURpWGcgoeYFm6oJGfkl1kaGtVtlhB4a+HykK5gxXKA2Q+kMsENCfGhGiJLE/Gvv9YXXjWf/M/YQqUVQACDu1sFM8A3nQcR2IY0ZtGFkKH5jAjYyDTDyrYnkAFwQNXCP4RlPLfdcdd5w7f4H249Fw9dK6u4EkY/dy6yHCMJjNoHGss/ed4+b1w+Z18fyJ4dw12eKxdPH4oH39fLn2ofrm++bysndouXWglEYXCfuDsjYvmOiGykDpXMBluR4TCwVdLgQHtbpl2McP2uvCVMuhvu16Jt8vT6DIxQVKsPEDsno84ETXlkmc6VIXY4T5sJ/3NoPeJX/nUqV3qrz1FNsFg7HDHVwgTJVooVAAUM0RQ444Vy/HyGGpovvRUzJ9wczqdGklWngJuEZUA66ihXe96z3nzp+HNR6PknFKVEAz5wpkHmZwzA5LGe+/NT7xw/7iNaP2kfe849bm3mOrpWW/fWy0543XZL3/7Z17P3DL8Tg/ftu/fP+lZ1efGKzqaziyQRpr8aVGGoHM0NNLd14LkFWvX90SZClOUPudc0oXMdYIMd04hC0a0KuoWcYLvrox4z1Atu9xHvY3/d6K110JBpvV0XqIm/L8VmtuZ2dHcw5DXAR+zwHhATrvmFQBoyZA1MAUObqJcxW0zztUdsjonV9W4nK3YGTAG9GR/7//Hz/30D/+F4a+tbOzvrYd6gs3SOlgAGbhIWAmHPqj4x8cX3cnAd8gntx1w55bl5u/88CZztAnrjq++c3/ED6y1x8/uFmo7Nv/2FPPfv3S+awwJyBpz2AZqHMRuCptbgcspE9meHGR0YScDGeRvndf0Kdf4juQNa+CTlj76JO7V7HMPteXl6bfrOACLPg59MKYc2+skA6v7Wfz2XZr85FKvc5pxoTZ/pgV6igeOnjw+LUn8AZoZMnQx6VfDjXVnQGbgPCw8tJ6vsuvWTNud0yn7cWldBL3ul1glaiERcANAT2W++5zHGj43H6vUW+U5eLLzUYjisLxOBYobtCgkC6caF1z44Fmcale2uyPOWuTXM+nW9XCWmfcPH7jyrH3nG6f3vOO2tdXnxidZQbcX2VxQlKJcNbHOFbmjXfmpN1uL0RUVr1MUzbrnuPgWHEaeGHy5kDkVRQ5cPXCcQvKkWKJcTcY9RVpjHuAmycjzsn5II5Gq/1Bv1arY7myRN/H+4HI4cPXfPSnP3rk2DECifn2/Nx8++jR4+35hfl2u9maa9RbtXqjUq1Xa7VKtVKu1sqVGstTqVbL1WqtXm+1mjH7fThg5M5wX2q54R133HH+wor6IxSTmWA68vSsBV5JJueYsrL63uL8vlo2COJhmMbPr63nSb/gDQJ/NNm6OD9YDePe1taZZDhYObU6WgebosNOWNE5gMlD4AGcjYqJ44QnxyEsBbm2jTsyFANNAn12R1FOGZ6a8AvDz6gCVuIKxRLJMB/3/bjPvYOx+ZO+PxkRL4EsYpW87w8ulso1+8IS08asmCAmvP/A8jVHjq1vbA5GY/hdqNfFORCJyvYmcZLE40ks2+U30xnPWYkdU2LQ5WJhhAG6qxbNzTcbYcUG7rvOX7ggcAeDWqPupuuhRossH+TAdYY0XrxubfHmi6PC2qR0qZ+W9zxc2fP888WnLzWfyJIzZx5ceeLx8+cvdp5+ajPbCpg2lzbX1FkpGAoXLo5SJZwFkqx1V2SX72TccecCAMajaiJCHYskAJ8zN8XOuFrCNXBUpCz7TYd5OtJXTKhSABf7eVIjMh1tsG7Fkj7xlZXsxgZLS0vzC+1Tp06fP39he2sHSAj2m61WzGkOji7mcttdKVkHmxL3eFoPzvVl3dFQkzFwHTnhjFr5ZhUJSr2MtU1ilOpDJf0LAZq4DEzzJ84pNOrzi28+uPfQwmJUb7b2pYcPJW86XFxanoxrXe5bi3PlvbVWFM+nI8Id91dRDiw99gYU/cGtM0E9xAEaPR4jBA7Y2trdwss9NgM7ISsQ9cCMXc8rzTl24lGacEPremPSjm4ZI24ZfW+MB8Ab9LKxONyFs7G9uImMwIjjo1wuAQPhkSbkPlvEM4AvBsp869VGtVIBWaocmvpLYBIHleBhSJgrL601RVXA1lLLItz6681lZqQIx1ZjkqWNRoNelddDZYfsLglfVUzmg97+6oTTZDJKLg26xD4pC5GXk9Hw3W85fM9P/+tmo5DlmAyLJWRxRJwMvKaPzG2sWk7Q1JOmNIszLhF5QojmvhTiUhyClgTfSnMFA7LEdCR/mgx9zDPGFQyUxoIVJ6uiXvK53J6DeBTEYy8el/TQJ+p0O4uLi/Y9UQ4VRQuNBsgeOHBg+dDykWOHjx4/2pyfazQbzFJW5QzrBbRsA+vsmQYzjmMyJjEFzCEsIk9fgeafZ8QW+Jx+p0swEhWKTvIF4owOI79SDJ4YlB/tF2M/GERJXA+2SpO85HGy1CvhVx54+P/+1F9ubXenQYa8pfOYbsu4l1yB02zD14llDA3G2TW24QZoVfrCrFMCvti1O8cwcC4I7tGwR2ArPzD0uEPHugHC97BxPTXWxYQNNElG8XhUr9U3NzfZqpPJBIjJdHs9dxoNFxfaF86fe+yxRyrlUhgG3e7OoN8bDfuDIabcHw2GoyFbn9dwPB6qOMboB4P+gOZaCUca58vI//mf/8SXvvIVoqGd7e09e/aMRnhxPdbe3toS7po10RNBfDS57s69t35oOE7P6U85eu2lR+YX/JXeoBcm6am1Y6dqjWDuYr+zMp4EnQv1/MIoq7q/CQU73VrRxgAE5DQCI0foRHDmcorD4Av2QLURy0kTxZhUhwCNL8bV2NrIblya+c79kXVcFsTtGP0dNyPPCCeX27W8t8Ks2JdYz+xMQwOXiMOHD7O5FeqyFPIEeAC2k67IiW433BO1/RmpO96FGLV0RZP9B/YvLMwDM1x2oNy0I9YP/Sj3/89PfPLee+9lIp2dHbYI26fX77FxqpUaK4NXQtEkHm9tbY8K7bSyxKQIK2m/vHhkdWO7VW/gy8aFZtzdePfty6M0vbSZLpS9+/+fP9VfiDFf1oeJ8wsGWmftJpSIqTcHplL0arPBd+8GFlnuumqr3cAkpu1ZbPeYQbA612biYpmorm+sZRCGy3sXi1Go02w4smdgzBwB4IOAzGlVTMtaJi5AYk2ZYBjqIRkOCu3U6ltV9ODuZuxE0Dx46NDywQNj96VSh6qIhuiHuKT4v/AL/9cXv/BFxgH36NGj271tQsJSpH/TgcXY7SDrdTopW48b0XQmAS5sc3uzVq90+/3C0pvH3e0b3lBIk+Jgo3vk+LV/9+X/RKSMKDPVYyrhISimKFAUpAwWtiaDIEUzY0QxFweTegu1e2TH7o17I3l0UFJY4bRqhAasaqXEBXt6C3AInV6HCxEWwzY3y8UzcLqQIswPwUOhUOAwdxoENEVwx7YQBinakrIMhMlktAxJsn//flw2YgAtWN0bMELUot//5Cc/+aV7v8xICyXu3QoSiMDcQZKCjgtTAzgFkCLvnue7cedDfRNAD5mYdrlYIjzc2u4ws2qJIXE+O+Ie44J2AemQEiaQAishTR3AyEIhPeQEQV3BSDn5HHAORr1zlOQyS+fehKfObXauiEnpTR24b0jtfuFb+TxfXbs4NzdnPsEJy0jZcAY33QElRxxwMB2Ahk+q5u5DTAQsw8RoDnDI03zfvn3Ly8tIEhGg83K3gLDA/cxnP/N7v/vpYlQK9AxQOLCSQajv/DANOnAszXkKDa9AZ5VqbAfCkeFoKNrGmq4OSprB0VcTFe2BhZ4kCWXpZV85jGS2sjTyiFHH6jvrwXPKh7h+XNkAdixNRq0FEyDLr0g9JHfh7u1KWQoa1SrlnZ1NEGGfgi8DAiOgVJTqPqykSKqV54hwpGYvJpjohE+PjJMUDpYLvoBL5+6i4Qx41zMQ9vlbW1u/8iu/8swzJ92f8dCBLg4MmJ6YBsPTUypHTE7daFcKIjpkoG7SAszB6x7TUGGdY4lqpm9vSAIxVyvhNNve2UZudxlkqg426XLC7mhSt/qKPVvb1lHrLNwlxiFsuAtK7Q8yktfj86mgJsG0z549Xa1WgNJpkD9ldGRQQx4mGYpuyCIpdU7ZZJgN+knpaFYEU5DFLWDCSBqmloIsqcBFmsLq6hqxhnXjNKPWAWvTNsbuICyd8lzGkcBw5sMQXWd6EqrNgIw8224TIBgOR/fcc8/FixdcQ7j6cchLyTSU2O32rrvu+pmf+RlbSHja6RqDoIQpG3VKtUimH4a0CXT6/eLf/d1v/dZvIeiGZusiAzTloIAUxRkfpjpyPsrErDhLUWIN9+7di/GCssEKn3QGLjaxi933lzCiH/mRHzl37pzNFmK4s5HY9CwFvh//8R//uZ/7OVdzJfT5z3/+l3/5l7npM2e6MycA3/o1osiQ8KSGDq6ZFD7CYAefPBwGYwMmg8HuWdpDNIaAIYsAGcjARYnbbN93om9GA3wzgjnLzGjGsflfGU0yfW6WJLFMye19ps38YVqRjKXaX0Fghx4ZEEQAZG2oCKDN7RWBRoatRhWE/Iwu57w24M6IQUOMY1p+sdm+KuSeTRJLVbApcAEjmVVBf6cKQBAZAFWP+jLP9CsjZGxUpBRNjBTOLEOV4UgKU6C64qzqtQHXRmA5ErOFy2kmQMbIildAgV8DUCYPUcRmAWsGBEBbURl3d7Du8BKMyjwJAux9itRCaDNXgDYThkyblDqiFsnXzHKJp9lxUbHIWCFsB4IDzTJWxdymba6ImGnM5dddAQAFbeQJIcjgN81UgRJjpNbJCxr6tWWAQ4ZawCJvENuoHKhTQK0hRC2pAf2aWW4JF1gplyq6aFfdR9xGetTviDjUiJlMm10R0ZftYqbNssmgXLwBgqzfDDIDFEQQhiiSGkazoqFmwmQgAm5S+MZBla2H5V87yy0UC9H0C0Vmt1gsUPLreI5Fvlhyl/orJ6YNgkCDUjKkYAEEBpalFIEMRAxfWhn6tq7wZ8LwTQw+HGgG9CxvfOi1AVeTYaQAHBSioBDyHhVDXoUit5gQZohPKAKI/rj7yv2tiNkCqM15tqnhUyQDHAxkhiy1M6BngJq8pZDxDeXL0ZzlSREj85pZrsIefV/EhT+MdOpYVdJ2ssc6xv7exsgk5WR3fcIMWRAHDor0YRnEYDIAahE2fClaLSl5OLNWhiPpjKyIgOVfO3BZXkaCYankQNwlxmWrr0/QnN2+qPq7JA4rpgoc/X4f7EAQQqEeidnh5qyV08zwBZpZkbzVzo4+Wx50mnLD0WgGNBn40GvmFgQtg9EDGBuSHbiMdRbiUK9PiOAh79pdCaEZXaAGKMPhEIxs8tgmkGGJFIEM3BV+6cGm+0fGd4MHiFqKpOQZCapmfgZClWUg8jM+9KIA/lWklZWVJ554wpYdYNQH/erD9AwnMBqO/ugzn93pdOE4S3VtHAGFQcngSFn8N73ppn/9/jtxw3qy4+lZJX6Ec9p5k4Bg46abbmq32671K9BnP/vZT3/602aVtsctZeJkwNGQMsgmiaJd+AYoYmigaGvDkKwVGaoIaRqNBpICcvf6axmIhlcF3F6v9+d//ufPPPMMfejJlevDIKZvMpjM6bPnRuNx7p78OEDlIMCLvCmhkS1Ms1Fb3q+/SDa+EEXO5RHl5PsX733vXR/4gC3Jywlwf/d3fxdowA7PQECCZsMUyMib8Tp8plEX+mlocNuSwGfMGDsyCMBnE6Cq1WpRhIxvKU00cdPyqtPW1tbTTz9NT+S17fnZfVwEjcajOGHfsQG1yMwTGo+VjkbjJKFSQT8NGCngY0k00ZcuzTT4VU7fLSKfJZOnn3pqe3vbun45IUtKBI1+4GBUQAnW8ClSZauFVmRIKQIltUDJ6hmy8GmCsLUlNejQZgqNZkWqoFcfXLSfOXOGwTEZpUAKdmCaxAIQTxYng9GIKhBk/bGmgT5m3aVenxLcYX8wGujLrICKjeu7LYkUMk8HK0aiTxJRefH8+e2trWn3L6bZnNlMmBudGyi0Mp9LETTphCK14EiRXgCa1JClOW3ploYgS4aiKddYdkkD2y1av68+uIz4scceY1gQRbfdsY1pxEVWw1D/+goDs8JMMVhakcb6t+ampFXR1170CZXbZxMdgPqyjTJ6+IsbwD0EfpxMLq2sWO8vJzV0+53wgNQtlk58+1KIIQKf7inOhFllFd3fXDNyamXIThv2bkymY80hawiRJ7WuX31w0c5phmfodDr6dL8/GoziwSAeDuMh2OmLvwmwVOq1ufn5vXv3Hjiw/9DBg4cPX3P48MGDy8vLBw6QHlg+sG//vj17l+bb887TceCk41E6HE/Q1huOesNBbzDoDPqbOzs73Q5YTLt/GWlFd7czEAAceQZJkSUEI7B4ieVi11aLpBUxVVKKCMCnlvxLAIUDkbF+oVf/QEP7o48++kd/9EdAjPtyn97kcr3uYLNPKR1Pay+frJIwoAyXcVKiyg1Vn4lp6Gmmf+vWCbv2oKXPTqlh8j/03vf+5E/+5NzcnPgvJjT83u/93h/8wR9wsoMFwoYCOsmDFJDN4DYE4ZsY49EI3EBtMWBenoHvFv6FhzUwIeta6wTLCq8uXbp0qdvt0iN5OmYwQng6DoVBrlvZBUzl7CvBjtTe7QDLzGSoIoNLwMlYkZ1ZKpePHDlSc/8C3csJ+d///d//wz/8Q2Sr7l/EY1OjEBcB3EBp3WG5YIEwVfRrTGrNA8C0ZQB9xs0U8Mh4FfJ2QtKE1DLTibmNcrXA/e+EmN2nPvUptlG9Xsdvypr0v8zIbMHIXAEogCZwgz5FWsEhYxADGZgijCrjUAuIgE5qVm/IQnDUqzNbWk3N5AeVzHQAxcDC+oAAjmFKCsoU7bwyQ4YMd9qCEUUgo4iYmTB82lJ0u1BEfpaBTOAHH1zgYM6gQAaMlCp+U4yF6SEAE6IIstSaPRruoENbimSoNUDxBtg4gR1KKIIjHsniZVtICG00R+YH33LN3MDIgDYOGSAwW4NDBhkDnSJQUjT0DSnDF6JohBJriGYEyMCBrArCyfyAgwvZ/G1fM3NQY+ZmlaTk4cOkiG1evhjGhMgAn32RBwHkrRVELaEgtXCMuWfPnjvvvPOTn/wkd+4f8AONyf/O7/zOn/zJnwAQ+NpNARSAgxOfFBmqMFL4CFsrwwR8YZpLAVZkyJgMGWrhIAmxSNdee+3tt99+6623Hjt2DHzt32T4/yq4TAykmCRhwJT1T9BXv/pV4lxwZKZgBCgQkAET2NneNw6uc2aDZFgMEzb0zZDhkyKANuRvvPFGMH3HO96xb9++ZrMJytap0fcPXMZEmInbIsOISena8jZWUiaAJBAwSlIjmFiZ7Wtoe3ubs2J9fX1zY5NLMLPCWAharfblhGY6JbUujGMpyi3PMICPIhkIoJ2DnT7KMA4CIMuK0gQm5xjWurCw8BJAL6fvGlzkbYjfnhgNUHK2cgnmQnH+/PkzZ84888wzm5ubgMUoOXMZNGMljzxqsSNsgRQcOQ3IYJWYAxl22YkTJw4fPoy2jY2NAwcOvO1tb5ufn6fhfffdR+3NN9/suv3vi74LcL/whS88++yz2AgunFVlnUGZBUQDIDbc329gU8zZjAvUnn/++VOnTpGCERCzyIghDGog2+/3AZEMkqgCWXBH82w/ImzWBBMZ+oJz0003gezBgweR37t3LwP75je/Ce54OvJooAlEX5YnRSEDcJP4vtJ3Cu63vvWtj370o3Z9xHaYrW0Hhk7KzG1jGsqktnGAj5VgYlz8MTpskNnSllYIACjgmvHCBwI4EJrhkDI2NOAT6JTVojl6yNCK/UgvgIvZsmxm5gLVLbkBaqrI0PyOO+748Ic/rJl8H+k7Apc9/rM/+7Nf+cpXyKysrDANJry1tbW8vEwKsU+ZKqBfc801Fy9eZIagQNEgBk0QxDnSloY0x2PSb7vdpi3zBxo0k+IrWAmasyS2FdAAlMhQxUjokUVCG21ZAGoXFxdZcgTs/2jAzMnTI1VgigxMOGj7jd/4DXyL5nMZIQ/R9bT8qlL4i7/4i9PsP01/8zd/85nPfAb4sAVmTobhgg4QUMvI4JBhlGSYEhlz/OACH+BoBZM84BpMoI8AKCAP05qDCHlaYZ40wQBRDsFHITK2u6kFLPSgAculitUyt7C2tkYr1II4quia9aMvdgAdvf3tb0fG6MKFC1//+tf/6q/+6otf/OIjjzxy//33P/roo4899thzzz3HoqKfOU5Fr5T+eXAZ7q/+6q9yItEfZsiUOJTMTMjABAXmxiSZFXDjc8HCpsRi4H+psqOWKoBgnnDQw8zRQ1vgw5yBA3lkMHlUkcdIUWXDoIgGvAHQ08v+/fvBjl7YEAijhLVhJOCOJDI4ekZLczj0DpPRcr7T0blz54jP/vRP//TBBx98+umn2U+nT5/mOCEPvl/72tcAmiq6O3ToEEtiA7gC+mfAxTSw2XvvvZdxU2Sgq6urMBki6NA9GWYFXtgUGThIQmTwwpYhJQ+s5MERMeBAG3OmIRwzczhggdEhTAoHYwRrMjQBHdMPsSrkac54KNI1g4E45WjI2tAj2kjxV8ggDEysBC6L7n7zN3+TyPfJJ588efLk2bNnsR6GAfT6oyf3ZT00ENs88MADjz/++NGjR21PXAH9M9df9svf/u3fMiBmSK8MlDyTB2KWFMJkmCoQmAFShVkxVkA3N4IMEwYI7AgBJgyyFGlFEULSDh+6oxYOWIAyYswKUMyHQqwBGwW3iyRF2z3UIgO+BiJqGQMKMV42DSNh5IwNBEEfcAk2PvjBDxr6dIH5I4AkQ+oSvdRqHJIosfDxc5/73N133/2Nb3wD4Sugb2e5jOa3f/u3H3roIfOwTJiUAZntsOuZoRkOfGYOxEyPSTJiMGWbM0/aYjJMBlyYAyAiRhUa4LAAzAoNeAAyS0tLwEGeGQIQSwgccFBLv3BQzn63tYEDH5mHH34YhdTCZD2AkqGiCgNEP+YMnzHgUhDDn3zoQx9CD86BCTJylDDZcRy7v0MdVSuKDjERBm9rhiPmGsZ8DZbvnL4duF/60pf++I//GDiYBqOkG+aJRWBcwEr3ZoZ2fAOoQUYtcwN0YIUPoQpJ2iLMZFBlFmochI0DoRbgkKdTM2EE0EmGWhRSRUoVfCZPL3DIsC1sIW0J2Q2MB210R5UN1f5LoieeeOKuu+4C3ze/+c24frytKcEr8Urcl27MMlitt7zlLVxwWT+smDsufCS/c/onwcVkfu3Xfo2j0+bJ/M0A2YxMjOHSE/EQ0EAIUGUNqSW1bc7c4FNLkQxVZimgAIfJs6OZPJrhs98xN9uhhHSgg3HB54JAX0BARyi5/vrracJKG6AMjIacVGSwWfLYJiuKcoAGIzTAwaVipwY9KTc6un7ve99L/AAf/8teYGgMGnAZGxro7od+6IduuOEG7Bfny9owEjfF75ReGVzm/2d/9md/8Rd/AYgYJpO3HUQV5gYhAGFTzIGhQGZfEGOyDGSqZmRV6JmZJ3MAFDjgDpNeSIEeKOkFAfgwkYEwJRBnMBDNaQXEDAABILO2NMS9gilFBk8tnZIiABN5itjN+9//ftYG/Zx473nPe4APfCeT5OiRI/v27X/+/PPbnZ1Ws/muO97FwtARa8NuuOWWW+j3O6dXBpe45Jd+6ZcYEFhgd8wWk8F8yFNLnkkyVbNKMghANnnEIMsYxwgru5xDBg4aIDJw0Ex3VgtM5E0AOAx980gARBVFIANxmBQZKhz0k0HAFsM8EnDjfMGRPIZCEdxxoNyh4UC0wn5vu+227S0dgDvbMij8U6g/y1VEyIaAf+zYMbyE6fkO6ZVvaH/913/9iU98gkGgC2KSuZf3BgP9fbhrwJx5p8qakyEl77B6UQRiVS8n6XVEfqbEMsZ5SR6aCVseTMlczoFsTxjTMoyH5WHtkQdZiqwrDvcv//IvYZqMEW3vu+8+bkz2gAlLZ5nxHhySR44c+Ymf+Inv1i28MriEeB//+MfZVpgDRQatA73XTRP9iwfMiYFCVFlzRqz5vVgVRRpaakXjQ7SlifEhk7lcjPzl8jMBMjP+5UXLk1qVkRo4PmhydpnZwsH88emAiPOdir6YsHQOG84xDBZvQKjLvdl27XdFL5rDjFD6+c9/ngXEf0HsNdwcu2PItcpdmawV6eUZxq3GblbAZ5wZn4zVkqF2JjzjWyvLGMeqZkpmkkYzMcuYzGzf2OJB8Nl5ZDBMojHynMN33nnnPffcMxO+SvTK4M6IDQWmgMs2AV9W3oyOKoZrMpCBMiOb0rTwMqJqVvvtxawLk1GbXc63IRN4iRhFCO9sIRoGi+WC8rT6qtE/A+7r9L3Q1d0X/z+n18G9ivQ6uFeRXgf3KtLr4F5Feh3cq0ivg3sV6XVwrxp53v8Lhn/bjXxHfCAAAAAASUVORK5CYII=;fontFamily=Courier New;" parent="1" vertex="1">
          <mxGeometry x="150" y="220" width="80" height="80" as="geometry" />
        </mxCell>
        <mxCell id="RWeXVQ2_0HFQkgd2XHTl-7" value="" style="shape=image;aspect=fixed;image=data:image/png,iVBORw0KGgoAAAANSUhEUgAAAIsAAACGCAIAAABi5e52AAAABGdBTUEAALGPC/xhBQAAAAlwSFlzAAAOwwAADsMBx2+oZAAAKLhJREFUeF7tnXlwXNW953tTt9Stfbcl2cZ4XzCxDdjYDmAmpghbarLMY0gCUyEJqcqQTKWmUlNvpsj7Z6qyzpBJ1dSQpDJ5mSQ1NZWQvCQ8IAQeEDC2Wbzvsi1Ltnap1XvfvrfvfM79XV1aK1Kr1WrqvW9dLueec+65v/P7nt9ybnfLbtM0Xf+CEsaHiaFYLKZpWiKRGBwcpGwYBpeAQiaToYPf7/d4PJzLy8tramqampqqLMjtH1KUNEOovrOzMxKJDAwMdHd3Dw0NpVKp4eHhs2fPptNpmPBZcLvddGYi2WxW2KIVktavX9/S0tLW1rZu3brVq1evXLlShv1woRQZwkqOHj16xcLly5fD4XA0GoUPr9dLKzQA4cM5U8/ZgTWMquGs6zq0QdK2bdt27969a9cuaf2woLQYOn/+/BtvvIGJ9PT0QAx2gH2gX4sUxYQDqafAXVLjgJrcztbALrwftlVfX799+/aHHnpo586dUl/6KBWGTp8+/fzzz586daq/v98hRjhwQDe7lENDbuXsoCc8YVLwdODAgccee4wClSWOpWcID/bb3/72pZdeokBQQZ6pxpFbBlzOlx6B9Id+eNqyZcvXv/51TIrKUsYSM9TX1/fDH/7wxIkT2I1yZOPeiSbKnJ1LKQAp5/aUggO5177IQe6NUsaGIOm+++7DtqgpTSwlQ+RmP/jBD86dOyc+jRqEEXmcQq5CHTj1gkmtcwc3sjK++tWvPvLIIyVL0pKJFY/Hf/aznxF4UM2keONgKj1yr30x5VIwrQFNC3qSN2LEzz77rAxVglgaGyKt+sUvfvHHP/5R6EFTmJFoVgrSbZaAJJ1zmxzI7fbFHMAT6+rqvv/97992223cWGpYAhvSNO1Xv/rVc889x/7G4cDRuBSAw5Nczh3zvYUH4W9//vOfj46OyhNLCsVmaGxs7Kc//envf/97yiRUDh+5oInztE1zwew30jqpg1y+8sorpPuWjKWFojLEhvQ73/nOCy+84MQeKi0tKeSWiwxIYrn89a9/ZQFZkpYQisQQgefFF1/87ne/e+bMGZwb6rB1Mw76TC04ZcGky7wx0zivvfba8ePHrceWEIrBEF7+Jz/5yTPPPBMOh7nEejiLUpzCVFje6AMc3Ux9pB7Y1xNht1mwq6xKtsyk/pSV0CWDRWeot7f36aefJi+gLIGHgmiEguhIanILgHLuZa4254K59M8dH5DUYUPwJI8uESwuQ8z217/+9YkTJwKBgKMyCoBWKTg1TkEw6dLpnwv6TFsPaJo0wiRM2yovBpXoJYPFZejixYuEXwpr1qxpaWmZJfzkB1GrfTEF823l8sKFC/+8GCJ5S6fTTU1N27ZtKy8vdxiiSQozQTrkanCSNh3MVD8XTBUDCa9cuaJELxksIkNkBOwBmXNbW9vatWvJsGexIacgmFbv+ZFE69xvRIy+vj7JZUoEi8gQlFRWVlKIxWJMHpKqqqpIu5n/JK3Rxy6NY2pN0UBqk0ql1ARKA4vIEKlRe3s7THR1dbFjX7Zs2a233trR0REKhXw+H7siKJSetm4WAOE7l/VJmKXJgfQ5fPhwSb3+Wdw4tHHjxk2bNrEkDx48+Pzzz2NMjY2NDQ0NGBPZXS5DmBU+EAsDFHLtTApFw+XLl0vqzcKiv9s+ffr0j370o87OTkzKI4bj8aAIiwX1n/qfFZ+qKiuDwSB8xeOJsUiESrpzF4PQKnDKjDCpAKwHvv/udRLkXqdVLnMhNZx/97vf3X777RRKAcX49AHP/uc///nIkSOkSWNjYa/3/e9PQUNDfd3WzZv233nH8uXL4I96eItEom8dOvznl1/p6xswTLUZ8li3AKVLS9EwTX5YVlYmlQylaVoymRS+5whnQIFc/vKXv7znnnvUw0oAxft8COce7T5/7eLJsLe6f2AkFo/h1VZ0dGzfdlNTc1Oopsbl9bksMohgnDLRWP/AwBtvvvXsH/50petqMp3GAcITxCAxhWAoxBk66UxlsKICz0lyPzIyEo/Hp1oS3ThPqpdKAWVp/fGPf/zJT36Sy1JAcT/BG+p0JROu1tWGpqEqlOODFYzAzJq6/arbAS7RxaHrRIW/Hnzrldf+2nW1Z3BoOBqNio4xxEDAX1dTQ+qRSCS6e64lU+m6ulp4IuCBaclwKuUyF9RI69NPP/35z39eCVECKCpD2uX33P7ysqY2V0Z3KTtxo6QsdjOTCG5sxYOBqLJp4sHeO3bizNlzmvUdYFwijvG2nTuamhqHh4Z/8w9//MM/vnjs1OnyQKDS4gx7sjQ/G6yBJ+Pb3/72l7/8ZfXQEkBRGUqfe8NXVe+tac4aul01N7hV6q5OyqogTEISgiM8Q3GmMlDede7sf/9vT//+L697PCqfh6FcM1J3zGxDXEoThaeeeurJJ58kT6G85FjcbHsSTC3l9flcWQNlzOswswakZvVMNp3KJhNmQh0UsqlkNpMhL8xqGTMaWdla/9RXH73/jl2JZJKghbpReh5geyBUlQKKyJCh49QwAtS9wCNrHRMq2VBpycxwX21d9RN/89DWtaui8QS6VtYxHRDHLllwLqWgpC0ZFI+hbCZlOSi3iV/KFvYwXEbGTIy59HQ2mdq4un3TmpVsfNlpid4BAtilKZAm6HT65O6mlxxFlCOTthcn+fFEJ7bQg1xDS5rJCGVsy+31NtZW+31eKBKNg0n2pF5hWG8t7OuJIDn8Z8mQycbFVNqkUNjDyGTjY6ahMTpUMKeG2qpAoAxfaKt8og1pFjletyudMShKpS2jVSipH4UVjyFbCyrmG2YBD5SdipvpKA/AhjAPl26s7VjeUFOVmfJygb5JTW+urnhsz/r/eO/Nn955Q2V5meLLko1WkbOhoUGJWhooog1l1RK3/JIVOQp16Fo2EbZybvF4ZlbTtm+8ce2KNsuN2RB+EunMyobK/3z/R/7rw3f8py9++odPPPTZ3WuUMyRbHPd4GFBra6stcwmgiAyxibHpKdihtJ6MqiBk6ZgzjzAMva6mev2q9kBZGSTJw2lLaJmOhtB/uX/7v7nlRronA7W1N27+17s2N4QClhXZZnT33XeX1O8pi8eQ2mWqNa4y4wIdWTOTMpNjKvVAv9ZhUUXAyzbXVwf8PiedS2mZ+lD51/7VTQ9uv0HPmulETB++bpYFmpubNyyvc7qxL96/f39tba3IXAooog3h4tEd2izgkYiQIsKHlYBgLlAllqQ31VX7y3wq5SZOZfSAz/vYng3/dtdaaIQhmDBGB3VNqw4FtrY32vyYZnt7+44dO2xxSwPFzRTEO+WmYXkf+C0tnk3HFB/KeoQkKahoV1mBkysjecRxed3uhz6y6om7NpZ53Rnd9nvKSeoZXzZTGyxTtFp1999//8aNG61iqaDINqSrkO4E+fyPrCujqQ2QrlnU49nU2fKiiiRiUUdLw8Mf3faFOzZ+/vZ1/+HATV//2NbaYEBz6OE2ZUeZRCTaNRRVg2TNurq6T3ziE+Xl5XaP0kDx3pxmw/2ps68GG1o1tLSgh6qIZqZiZjpmXXFpvUmVgnq/6jFd/JfVLx/Pjg1a9S4VuEgmHRBy/OVVbTeeP/7u5//n8+92DZR5PV/84he/973vlRpDxczlPMrFGRm10hdysNozSeXf5K22VSOmIwVMiKdlwgPp6GjGYDeb5ZhAD4BIj0cLD5zoHrrQF0YLK1asePjhh0uNHlBEhgLl5LQuPe0mikhAyucwTPXyLYqXY0iVYeccDotu3Fx4yMykTWwJ7qaxWLff7+/tH3jmn05EkmmPx/3Zz362dL6bkIviMeQpr3R7ywwtTZx//530vA4ryVZvELQE7Fh2Q9YgpqMKKphQcLuMVDRLlJqOGYHX407F48+8dOy1Mz3Qs2fPnscff1x9BFV6KGam4PZWNmQ0zaOWeW7Yn/OBq0oniEBYCc4MznKdW467M42xYYhUfnU6QITP4/mn013/+7WTekZvW77sG9/4Rltbm91cYigmQy5vdWNWS7vV9sXR7NwP5SGVf8PXqdvVe1jLaBQlqoP9WtZkG5uNhU1dlxxhKvxe76XByHf/9M5AOFZW5vvCF75Akm23lR6KypCnskF9OiAJ96S95+wHLs7QjGQMkmw+hCSLPMv7KbaoJAMwoqPZ+JjbMz09+LdERn/6xaOHO3tJFh544IGvfe1rdltJorgMVTUSirKGpkLRvA5Dhx7Cj8UENYoYMugJbFmuj8GN2Cg5wrQuDtICPt//O3zxt4fPk0xs3LD+qaeeKql3PFNRVIbYgnj8QUPLWO9prFcDczkMXTm3dFyRMZ6tKctxTU7heATWk42GLS6mQYXf99alvv/x4tHRWLKiIvjNb37zpptusttKFUVlCHgaOjLplJUszOkwDZK3WDYdt0zHsRgh2LIkZVVW4kCJzU80bGpJ+wtcE+Hzukfi2v96+cTZnkEo/MK/e/Thh//GbithFJshX30bm303OlXLf0o+PeEQeqLQ4xBjkSFlJ3kbp4r/klEjMjJtgkCV3+d9/XzPSye7uLxj5+Z//9hnysr80lrKKLoNBavV/wxFUq6tTDkgQIce0mubD4shSdjsODSevKmDsq5nI+FpI5CizO0eCkdCXveBrTc8dufW73/xwdXLS+iD1FlQ3G8Fo0jDSJ38i3v0qrtM/fbYrp0KLCgdz6pPFthHWjZhqXm8MH4pbZzc3mwimum76jJ1u1sO2JOOjEUjscTy5ga3x+dxm8H2NdnNd4VW3mz3KGEU24bcXm9Z8w2ZdNLaFeWkA/ahjINwYiQj2XRSjEPCjDRZKca43UhnBXhJs0t1ZclBptDj9kTjqcGR0VBFoCIQKC/zlPu8Oi60qCszfxSbIeCuqnf7AiQL7gluzTrQuJ4yEhEV7Z3P5ZQuhYlxqqyeDklQm41FsCHbvHKAjaU07frAkM/rbayr5X6DBWCx8yEhaCkY8pbX+BpXsOyVISilq8Mq4tkSRjyiPtu2Lm0yJh4qg5A8W1rpmU4ZkWHVeaIBQU9G13v6B9JaqqWx3uv10ne8yYtnlHKJYwkYcvl8vqYbNBwdKrJXMwrPGKmokYyqzxRUCmDRZ8EyJstcxuvHD0iCJoP8zdRIECbRo17j9Q4MRSKx5vr6qlDo/bCnOvLfvzA0M9xVTWZZpU+pyHSRUivTGTPJqtXL0HE+cmlw/Nukg/8SY5Z/k4FtcEX3vsGhodFwZWWwqX7qWwM3w9nF0sbSMOStrPMt3+DWUmY6qcfDKvDYL9wsk7ILNgfOpUXVeAdLv2YqaUTGlK/LoQjrMd3uwdHwwPCIv6ysraW5zPoTxHYzoKjSQPuqxLE0DKEeX31HIpn0aFGijpXFCQ8WB0KAc56GJ8gzzYxmREbVR3mTlO12j45F+gaHKS5vbqoMVqgxcwE9HrffH7AvSxtLxBBmVL/c175FfRkHKC7GyVDqHDeX8ZrJZ4giI4+MYoK59JAaeDyeSDRB+NG0TFN9XV2t2iBP5Ed9OJQ19K6rPZcvX9b1+f3WrPgo9o41F5m+zvhb/7cCZ6fp778IUE7KOssF/x8vW+HFck+kB7GImbReN9it0tUVjsSuDwxinQ21NSuWL/OX+WBbOgjKvJ5IIv1ib/bYmNflD27auPEzn/lMdbX1pqMksWQ2BHyNK/0dN5FyqV/iK/uwDhVUxsvKmOQNnl1Q9kDWFxszExPowXRIrOHmam9fLJmsqapa3tLs90+mJ+D19I8l/s+x/hcujCYND5ukQ4cOXbt2zW4uSSwlQ26fL7B6ZypQxz5fqR5tKoWOF5xD2RQF5dxMPWNEI4oeaix6xHTGYvEr13uJPem0VhMKtbc2B8sDauM0Dnr5ve4LA9G/Pz50Kl29rGNVU0N9WVlZJpN57bXX4vG43a/0sJReTpA896Z27B/9PldaN97fRdrGIRXi2UzoySaTLuuH4KpW9THTWmZgWP37N1omg5lVhYIdy1oqQ0HVX/oR8+jqNt++OvL7C/FkZWu9xQ3t6XT6ypUrFFauXPnpT396586dpfPDLgdLzxBb1OS7f9I73/SV+TT1sanwYjEEB4ob9bO9bEYzU2R9SlqPB7FdWkaPxGKDI+Gk9cNgGqpDwXboCQZzJ1XmddPzjSujz/cY3rpltbW1Ynb0GRkZCYfDVVVVkUgEM7r77ruJSc3NzXJjiWDpGQLZVDz59j9ku96BpDTOTLIG2EE4Iomum5oGSSjW4/ZQkda0aDwxEo7Ek0m6MAFUbsWeplBFuTMj+uPZwnHtpctjbwx5alo6KitD1NMBkgzDuHjxYjAYxJ641DRtcHCwvb39wQcfvPPOO+WP0ZQCSoIhkE3Fku89b1w4VOF3p4ysTghBLvkaiZkli6YPuUAynY7Hk0SduMoU1LYmm816vJ6G2tplTY3lAb/zaofsg+h2aSj6Sk/qbKamvqmlPBDIIc+N3ZAj1NXViUnJORqNDg0NYUwPPPDADTfcYPVdYpQKQwqGnr70TqbzHXOoy0jGsQsMyMhmM7qB0STS6VQqjdGQC6BOlf7BazYb8PtbGusb6+p8XmVeMpLPo0zkSM/Yq31mNNjc1NiEdYqHFDBrDCgQCFh/jcuugSSVE2Yyw8PDOMMDFpbcmEqJIQtaZOTEc3/vv/gmOiMZw25gCK1pbC0tJQIkpg1t1lZXNdfXVVWiZXsiEOdzu0diqVd7Eu9G/IHGtoaaGvjMnSYjxGKx7u7uhoYGSRnsBgsMS00ikSBEbd68+b777tuwYYPdthQoLYYI3a8dPPzWH355h/96wMNuSL3fxFjQKSd4kW4YUEVFRVN9TW11dZlPfabAJKj0uPGExom+6JsD5pC/sbappcp65aOac8BoYkA1NTV21RSodWClEpT37dsHT0v1pfulZ0jXdVYrWe/Ro0d7enpiybRrrO82T8/ykDepvrclUBzxH3vMYEV5XU1VdWWlnwhv7Wnhxmtxcz2aOtSrnc9UBepaaurqAmW+9z9xsMBkMREiEA9qbW2F5kkdcsHjABn5wMAA6fi99967JD/+WjKGeG5vby/p0/Hjxy9duoTiWKSoo76hsbfn6rKR0x9fHewfjeHlUBMpnM8HN4G66upAwE/IQXIGwWh8bhdEDsYyp8P6u2Gfp25ZVW19ZbBCnpILnqiG8nhOnz5Nht3S0jKXuYvTG7OAMZHmFfmvLSwBQ319fdevX+/q6jp//jzuvqmpibXs9Xrl741VV1dH48lo1+n9VeGb2+tSetYwTfnbm4DbLaencgFX1hhLaP1JozOSPTnmzdYtq66tDwWD8s8dyrMcYCuEHDzb1atXydbI08gRyCbs5llh2ZKbWEjoamtru+uuu4oZmYrHEN7s2LFjeAy4wb/X19dXVlaKNgXkvmRQfr8fdZBNZa6f31md3tIcrAla32rDApSoZlLTUxm9O5wa1n2Dur8rVWZWNdXU1lVUlEvexVCqfw6ooQnu8W/IwJ50xYoVc6THAeuDcbAkBtmxY8fevXuLE5mKwRDLFnOBFbx/KBSCG0eV8nQowXr6+/vZnShFZLNejzsST3RfPJfsPrW7pbylukL3+7WMOZw0PKEasyx0LW6kA9VVdY2EJfXPHXu8KjufeS48FAM6ePAgxJChsTJmiUAzwbIllcdjTPLHqVevXm23LRoWkSFUcOLECbKmuNpfJvD7svmQJ+Y+l2mT/tIH/uTvwhF1xuLxk6++nnr55a16IuT1XG5vd++7w1dVGwxVBSur2H4GCEf4OivpsgeaDohBztbY2EjAu3z5Mg5q+fLlPMVunj/E2WLlyAzZe/bskfpFwqIwxM4cYs6cOWPp2ifbDmfNTn0iDGFAuEFWejKZRAWRRPLCm2+0HzmyNZH0GEZWN8KBwPUd2wP791cEK1QosnyOff/M4KEsi46ODiLfkSNHCPI7d+7kQQucNQIjpKZpeGa4x+lhUnZboVFghvDRFy5cgBt8NOog0uR+B2qmZzHbU6dOoUrsTOULun768OHal1/elU57fT6VzNHHMMJe75Xbbqvcty/g86EkdcwKHsfTCTm40EOHDiEbwYOsZL4RaFogFOARGBNOYtOmTVu3brXbCopCMoTd4ElQN4omNlCY4+D0PHz4MKbGHkXT9TOnT4d/85s7hoYqysvRZXb8g2pIGgwG+w4cqN++fS5/gpSn49BIEN59991z586x0mEL/2YxXjAwWiqVwn8y+C233IL3tRsKhIIxdPLkSeInKp4poZoFMMQa5941a9de6uo68qtfbXvnndXNza5QKNHbC0OiU/4zM5netrbEJz5Rv2qVOasp4N+gHIZIUqAfL7Rr1y78m91cUIh4kIQbwJIK+/mF9Z5/wUA4sG7dOkI9DBF7OM8LTJLVR6Q689573lOn2lyu4OrVgdpaPZl0ljyc4/Rqr13TDh6MJZOB8nIeNBWMhnMjO2hvbye5x3qQ6rbbbmMdyLMKDnkojg6vzlIjdxWBC4ICMMQWAf9G3okKBChovsArssAZp//69eZg0FtV5QuFjFQKG7cfYyHrdgcJ0adOdR87humJdiYBAYiCK1euJDwQFAk/t99+OzX5CTY75IkiBiuJ0MuG4dVXX8Wj2BIvGAVgCOdGAsZmE8+WtxbwSDB05cqVm7ZvX7ZuHf5L/byLnHjix9JcYFMJ00yPjSWSyakMMRRkExLQF2bd2dlJbBC3Iw8qIORxgOmT1L3++utnz57Fu65atQrDxbuKzAvEQhkiSI6Ojq5fv57U066aP6AWhsjRk4nE1o98pG716kwyaSQSk+gR9POgNWt233uv1+1GNRiHoylZH8QeKqGHBIHdz5o1awoVax1APw+CDAz09OnTR48eRXhCnbzBYs/AEunqUj/2WzgWypC8ZEMs+zovMGEWPkNt3LChoqrKVVub0nUtHM5OZB1Z44bRW1HReuuta7Zsqa2pITGDFUIOJNEBrZFuEAx6enrefvtt4tC2bdsY3NmKFQQ8kTHhhh0COQj0t7W14dwghkyBVhYrIiEM5Nn3LAALZYggxMKRPWDeQIMwhHJXdHTgO9x1dclAIHH9empkxG2pHki20JvJmOvXb9i3T9e0psZGbiTYkE9zL0rBejgPDg6yOWXRsDnFDS5QtkmAAHZXOM/33nsPkoi+EIPwyMaD2GkhEsC48Qq4voX/g20LYojHkyyxgkQyexLzB/eiShSqXgtRbmjINje743F3IkGSB0VIyQYopuu91dUde/bUNjervz5jbbzkmwWoCU8LVdBDNsUqvvXWWxmtsPRgFjzr2LFjJCAYDYk1KwN7cogBdOOMceNpKVy6dMlWVr5YEEMYEAwhImVLvAVBtMDup4wkGz9uGF1Ee1J5l4vs9bJpnkBHmzev37vXyGToj17kXThmhIckHHLG7SASuTWcwZOMvHAgGPTIx4zMmtWwZcsW7BV7wlxyGRLQP5FIYNMwGotZfwcvXyyIIeRjq2FfLBgWQSYpnDcUIp7ouD6Xiw06B1FOM4yRpqZ1Bw4QqNCI0x8zkpeYEHP8+HHOH/3oR1naC8lcJoElCM6cOXPixAkCHtyw9cE6sQ8eJ3zIObdABzqPjIz09vbaA+WFBTHEmsKxTF1BC4HpdpPI+UdH2z2e5W73cpeLo9U0612u+qam1rVrxYBUT0sd2BC7ENY19JD37927F3pYOqKmBYLx8VeAmA9D5CDsygHEkE9juyjBkmUacDvmRVKHGcmSyg/5M4TcLBBsCFEKSBJTSfX1pU+eDDY1uWtrM4b61SQH2RjOFJ3xLEt7Sn0ASYjJbHXZye/evZsy0ZE+s4DVPRXCBMD4GAHl4qYATdgKDBHVyAvwb6wD4hA9MSyRIRcim4BnkbBAJySJ0vJA/gyxTjkT4TnbEi0YDJUhz752LTg66ikvV/GNIIcmyAqsvRH8oIVcnSIGNShuz549LBfcHcrNhSg6F3bDdE2AesaEJ/GTuFCskwL70M2bN7O1YCuK6pUw47ClH0duJWQHAgHyF/rnhwXZEL6FgghUGJimho4uXqwJhTxVVXpS/YDLzGT0eDw9OhobHZ2kWfwMZ2pYKICCo1wHQuS0EKYFlnVNAAsD/ZK5kVVDz80338x8MSZuZNbSR2iQsgN7LhboTK4Lr8hmqW3eyJ+hcDg8rXwLAUGIPVDk6NFKNhkVFYmurvS1a8murmRnZ/TKleHubkwEpTs6tdUwblW5NQsHU8N54uKIJWQHhH0SORYEc1ei5sxdypNgj2LJhg3JjXkgf4bkawW2OIUAKklpWvzKlQrW6eBg7MyZRE9Pur8/w1KQxMzqBgmil0UFBkSUhRJSIQwIO8DXEU6oV6LOBzDEph4zstQ2b+TPEB6APApxZfHmDfwArgl/BSLh8NDx4/7hYSORiHV1IRyhSEUjSROsZxUBqJXZ4dAwWejZsGEDOy2yA6EHmUX1s4OeAsrs20hkxD3OF3kyxINFXCCKniMQVwqIixZQgQA3jftKjI0NHjpE1uStqNCm/PPpzJU8TG5fVCAkBsTuh8SdXSehHmOSzEhapVsupJLzVFAvIa2oDPFg4qc8fi6wRFWdoUGIiUajGA1liSs06ZAdjVZdueL1+aCdtFesJxfWYIsL5ESkU6dOkXrU19e3t7fjoK5du+b1eqXVgVyyRp3yLGDM/P7J/jwZYjnI23WeraY1M6SDEKP8WCQCN4RNSboYRxwLUL/bunYtFImQW2vRqDwoF2hC9ZuYgxUcSEsSdPbsWaKsfJqAAWEElp4VnEnNxI3lWVSTlKUDQ0GzPZP5IH+GyBQo8PhpIfIxYYiBD1ghVYUhx2IcWGqxbAgvd/ly0HrXmezvn2pA1EvnxcbJkyfLre8qNTY2koax5YQhkRYwL6eQy4QUgNMqZSnI++88kCdDWADZZ67ck0AHhxjO8GTPfiZAZzqtX7wYgCqIxJLsR70PtR7t3osFVImo7EnZ/BLeGxoaSOFkmqJoB0oYC3I5tYPAYY4O+b3+yZ8h0lAez6yUmDmgiTCDNxOjyfVjs4N8ztvVhTdhCPX590TYudwM72wKBVR57tw5Qo58dIv84ipEy7mwZ/tBxAjoBs14TlyITGfuyJMhFpq81RYpAdMjH4MVAEN0oFKEmwtQfXx4uNKKpYxlPWQK5pk35gHW05kzZ0jeKisrW1paMCbRtd08ETQB+2IipAlImTPiQznLV6Yyd+RvQ6wyMX9mxVojugIKNIndcJ4XzNHRUCqlbGUGV8DKtLsuDmCCYM4yFwMi6edS9KsMYQqon70JSJkzumLbm8e7nzwZYho8lVlhLiSR2A1Rh0vLVcwfsj3q6fHN7ARUWJJcbtHAjDo7O1ElDPE0YYvK+SKXVGVHlhVyJvUong3hxMSnYTcU8ufGQSYTPneOHHFqguDAtL4LsEhApywygjlBiJ0QaQIpnKPo/CDcOID74jHENK5evYpPY24FoMcwSMlrhobsb43MACZs918EMHh3dzdzwbmhTR7H4hPNwpNDlZTnBbkRUC5epnDjjTeyVyCoMjeevVCSMhktHm9JpWBotu9N4T0WvhqmA/IzC9waZfXl5GwWe6Ks9DrFFOYCbpl6lxBmz2XOyJOh+vr6Rx55ZOXKlWSQMj2ZZ55A8HjcZ6UJswDy1L9rtwhAfvwBwL/hi3gWwdVhCOnkLIW5YNrOUiNzmTvyZAi0trY++uij69evhyRWnEjArCzZ5o300BDBbXaGWJV270KDkTEgsh5xcfL9IeqVXi04Zau7Qm55KpzOud14ij2T+SB/hkBTUxMk7dix4+LFi2QNokF7Wc4Lup64ds2bTs/OEFiQpc4MhpWoAzdMQdbZVDeVCzrYpblBRiN+2zOZMxbEEKirq8PdfexjH+vt7WX7LSQxw3kAUnXdOzzs/aAf9zC4fUtBgcCkppFIhPE9Hg96nGRAQPSbWyk18wJTWAKGQHV19ac+9amHHnqIiXV1deVBkpbJ1KZSfiufngXCUMFTBaTFgHDU4uIAVjWJIQECAPtiPpDRuJc0xJ7MnFEAhgBbvI9//OOf+9znkACPJ9MWBzIXaKlUKJkkkZsTQ4UGouKi5S0JZYuFyTRQn4upNZMwqQMDcsZSl4whQBa0b9++J554YsWKFZCENCKWtUxnBbuERMKTSs1FFDXgfL3oBwGSsH7OuCA0Sy6XyxBPtEtzg9w76S4qGZ8oIG8r5oWCMQSY29atW7/yla/s2rXr+vXrw8PDCDcXkmDoAxM5wETVaAXdEjEg1gMkz0ZgKkWncnYKnOeCqYzKvdQPDQ3l8SVq77e+9S27WCDU1NRs2rSJ9Xj+/PnBwUGc+wdMzzS1sbFV587Vz/xGBPJiLldnZSVbZbcVzAsFBifJHhgYYHXLF2MAlXIGsj1aIKA/mUxWVVXJz2nt2rmhkDbkoLa2ltzhS1/60qpVq8gdUAETntGYDMOdSJDkoolZ4pBqXYTPh5CKHAH1oUQIU/xMhNgEhdxWxe0MkFanDwUWK3EOPdxzzz1Lk8tNC9bj3r17n3zyScSKRqM4PdSBxKKXXOCzcHE+AoB964yAP7Rl31YgEB44s659OX8DSjRraVgZ2aQageo3sUYgjMoZ+2Nk9sK4Ezx/fn84tfBeLhcYEx6vubkZhq5evYrE4kmQXmYImEfZwMCa7u5KZmXfNxni5S6GQsaqVUya++2bFwwGZwGJC+JSfJpzloLAaQW59ZMgTZyZKdyfOXOGNOTBBx/cv39/HgYEFpchQH65evXqjRs3MkMsnXwG0SVrEhj06etb09trv1KeDkw67nJdCAb1lSuZvdy4cDAyOQIZDQolXqoHjetXPXUinCandVLBalFgdlgkMz1+/HhjY+Ojjz66e/duaqTzfLHoDAGErq+vJ81rb28nJnV3d7NDxO/jAaANhoLXr9/Y309GMTtD5ysr9RUrGK5QNsTIWM/o6Gjl+F+6k8fNAuZil3LKUuDMjKCHMeGmt7cXz/b444+vX78+9675QuX+drEoYGW9+eab8jchiAEw562oaDl2bP/p0/XW74SmBdGy1+X6U3Nzeu9e5SsKJDOKQ5sknA0NDbLGUTGVQAqcHXDJo+0LC1xKDWdu58yMiDp9fX2EHDzbXXfdBffyrLxRbIYAT+zp6XnrrbeOHDly9Nix0Xh8y/XrD1y5UkeqZneZDBjqcbmea25O7d6NRgrFEEORyGFDTU1NaliLMwGXuWcHQokUBFZ39X0NJgU3pK+33377gQMH1qxZQ708aCFYAoYEPJf04cTJk28fPXr1uefufP31DtOc9pftzJLjssv1fEtL+tZb0U7eDE1VGWkCaG1tVcNasBRus+IUgJSdM/IDjIbbcdowtHLlStzanj17NmzYsMA/MJGLJWPIAXuFk+++2/O3f9t68CBKYtc6SSBR6nmX68Xm5swtt6CgeTGENqUgOnWATkW/JAts9R0yHMuQS+Dczi2AApWaBfKLZcuWYS4333zzunXr5A/cSv9CYekZEnQeOnTh7/4u/sILzdksKsHdkUGQOCCcKPiky/WX1tbsjh3qwpJ5WskdPgT0IWeTM0zIt/hIUsrL1Z+thQn6SAHQDUCb3AJkBCBGQ15KUl5TU0Pc4kzig93gIblkX+FwWViUCkNgaGDg8rPPjrzySvzYscylSyFNq0Z9FkOay/WC2/16R4fnxhtRJ/oSJuQssDRpzwUVw4SwwkonjEOJqJL0F5/W0tIiWmbJk/3LOHK7Qw9USQGgfSikJ3QCRsOPcabSeuAiooQYEpBc9Z87l+nujnR1jXV2akNDejIZMc3OyspOwxgaGzOsL7cS3lErykJ3ol9hBTAjVM96R4mwwkqHj+XLl+OCuISSXAMqfZQcQ7lA3WzI2ZkrvROxwmE2GXAzMjLCNpMQgtdipdNKZ1E6xIgXIo/HXCAG/yOGImN+6FDSDM0EZIYVmMOJSdigEnrwZuKIKOc6wA8xXK7/D+cTA2w60O27AAAAAElFTkSuQmCC;fontFamily=Courier New;" parent="1" vertex="1">
          <mxGeometry x="518" y="701" width="80" height="77.12" as="geometry" />
        </mxCell>
        <mxCell id="RWeXVQ2_0HFQkgd2XHTl-10" value="" style="shape=image;image=data:image/png,iVBORw0KGgoAAAANSUhEUgAAAIEAAACECAIAAAA4D9+0AAAABGdBTUEAALGPC/xhBQAAAAlwSFlzAAAOwwAADsMBx2+oZAAAUfRJREFUeF7tvQmYJVd1Jhj78uLtL/e1snbVIqlUpRUkJDC4DdiN7WbaG263GbvbTbvHHs+Mv/bgGTMzuPloj42bHs9023jcPSwGgbAFxiAhCbRUqfY9a8nKPV9mvn2NfZv/RLzKKgkJl1SFkQVHT1H3xYu499zznzXiRiQbhiHzQ/q+Etf794f0/aMfYvD9px9i8P2nH2Lw/ae/j5hsW9bshenFKzMzF86blsULQt/Q0M49tw8MD/cPjaRSqd5xP6j0vcVgZXHx0De/ceHYkQtHD+fSicnNmxRNC1k2CBnL9TyWTxUKo5u27rj9rl137BNFoXfaDxh9rzBwHOcrn/3MX//Fp5xaaTCf2bFjW6Y/wwisLMqKrEiixLBcEITlan29XKk1OvnRTW//yZ8+8NAjLMf2uviBoe8JBq16/Y9/938+861vjhfymaTKS6yg8jbjdiwjtFwxFFieS6haJpXOZvOKrFqmWSpVig196u4HfvqXPzi+eXOvox8MusUYuK67eHH60//+o8vnTt6+Z3c6nZRkIeTCkGcgec/3hZA32maj2ex2O0ZXF0Wpr6+P4zg0HD9YLlf4VPa9H/hv3/HjP9Xr8QeAbiUGZ48f/cbnP33iqa8nQ3f79i25QoETeV7gQzYMWIalD8eHcPqc73tBENiOs7a62m63gjBMJVOiIjmuY1l2saq/+xc/+LO/+uuiJPW6flPTrcFA17t//Zn/+sxjnwv1ZkISRBauRh0dH7MsE+7f8dwIADh6VuRFaD1OwRaEnY1Go1ardTodhgkRKhCq3YCptI13/dwv/8KHfkOW5XiINzHdAgyqpfJn/+MnLr74Lc41PN9iIG5GEARpctNkUkvUG3VImmNJ3kzI8DyakDxRDIOiKPBglUqlWW/goyoqJ4ht3XB4+ZF/+ou/9G9+E331RnqTEv97v/d7vebrom6n++cf++j0019PsoFjdxnGTyaTsqp1Ol3TNCfGJ3iOswzHc7zAD5ELQdxQdN/30bBtGw3LspBEAQlVUmzdIIAYP4Sr8ryZ8+dCQdp91/43d6p0sxg89ud/+sKjn1V829ZbqioXBgqJhNZqNj3s6Hbh3bdMbc1nsr4fIAajWPN8NwwDiB4EaQMJQIU2zBEJqyiIhq47tikKPKzGaHcunjmT7uvfumt3b7w3I90UBk995fHP/J+/X1A5z+okVGVgaFBWE8vLy3q9LkConq932pZuDAwOTkxsUlU4GR5GoBs65A4vJIoi3L0kSVB67LFsRxAQhnnTNCxT59gQ1mO22wszszvuOtA3ONgb9U1Hrx+DWmn9E//2N8N2hfEtz7P7B/qT6fT84kqr3vSaTattdZtty7BNows/ryTUgYGBQl9/X18uldI8z0cQ7na7nuel0+lcLgfIDNt2PC9gPNTRjm0FvodRAs9HFQcHdueDb3uzpkmvH4PPffKPDn7l0WRC9DxDTcqbNm8uVaqXZxcTonLPzh0P3n9Pf3/fzMy8iWTTdYpraxB5Kp0q9BUKhdzQ0BD+kSVZ7+oI2rquD/T3D4wMBwLvOJbvOgLH2ggjFDDCwHGvXLzUP7l5+969vbHfXPQ6MVhbmP/T3/vt0OqIIm8Z5ujIqMCwF8+e78ukfuIdj+zdOiFz4cjQQDaTWl5aswydC5hGvTk7M9toNeFw8oW+wYHB4ZFReBhOEErlSrXRkGRpsC+XTmpMGMIdNRpNjuEUUbYMI3Tsarmy/22PJDOZHgdvInqdGHzx//nk4a9+ETmPwMsCyw/3DbZr9dA03vcjD+YUzjW7qioisekr5CfHhhcXVyvr7f50mg/DhaWlSzMzpbV1lGtKIgGz2DS1eWRiotPV5y5d9C29kM8X+vtESTYtt9VqITQ7piEyTL1YVPL5O97yYI+DNxG9HgzKq6v/6SMfthtlDtk+QqvAq4pULa2/9YG7hwf6EZwHR4b7hoZTuaxh2loqtW3HNts2r8wuMayXzaVUSWzUqhfOnbs0fb7dbCuSvGXz5m3btsqCtDC/1NUNoJDQkgjWpVLJMk1B4C3LRc60sLx64B3vyubzPT7eLPR6MHj6K3/1rS/+pRB4HMsjz0RJjPiZSWn33nP3wED/8MiInEqLakJJJtP5nO27HM9u3TY5PJJHPVxcKgWumc8kNUU0ut2ZyzPHjxxfnF8MPHf3rt1Tm7ZMT19qd/RMNptMpgzdqFTKYej7XsjzQlvvFsbG9959b4+PNwu9ZgyQ43/2P/7x0tmTEtkAC/FoqiwK7IG77ty6eaqvL8+JEiMrDC+gJhMUmWJvQnE9u1DI7NmzfWywH6XD6krJ6JqyJBayKU1Vi8vLZ0+dm7l8pa9veO/tt89cmUGVgLgtiPz87BXDsAWB9aiuCA3Xe+BdPwYn1uPmTUGvGYP5Sxcf+5M/tho1NgwRPKGjCUXKppIPPfiWwaEohReEQBCAgSDLCBfwV6lMCsYhyqgHxNHhgW1bprZt3ZRMZRB4281uq9VMyIl8Vuu0OmfPnm+16omE0mg2NC2RzWQW5he7XZ0JGIHnGSZstbrb9989sWVrxMubhF4zBk8+9uizX/y8QhfgGJ5jkUQih988OXHgwD5BFDiR52Qp5EUWOgwYRClgkd2wYiKRyvXlCnk1mcbuXKF/avP41NSmbds2D/b1CZzUbta6ps8zfrVa7rTqwJbjmMH+/vXVYq3SwGg8H7I+yrawMD65/6G3xcy8Oei1YYCE/Qv/6ZO1mUusH0DBBR4YhLbuPnDf/t17diGVZwWe1J/DR+RFkeMlSVE5WXF9xgthIqKspRPJdCqbTWVzcPpDgwObpyZ275ravXPb1MSowDH1WgcG4bq6bZmjw6ONSq1aqtKVPpYBBujR8LwH3v3jiqr2ePqHT69tXcXS/NzlM6dFlkUsYFjG8wPTcGERfX198DNAheWFkAEQvMSLgiDxgsQK8EiqICd5Jc0pGZeTAlljlASnqMlcttBfKPTlxkaGtm+deNv9d/zyL/zU//QbH3jPP3owKasrC6sriwuNWsfqhhiMEOQ4FMprs3Mz0+d7DL0p6LVhcPH0yfWFeY4N4IAQIkGUmgqMllDwTUAWCZcRhhzHo/LiOZETpJATGV7m5QQnKT4j+JzAKEooyZG/klxEFY7FCQzHBRz8ljc60vdj73rrh/7FB3Zvm1y6MhdaxvbNAxI8no+jWEQgq91amrnUY+hNQa8Ng/MvHpECP0Raynqe7RSyyX/+Sz+9ZcuIINKdePQlsrzISwGSIo7HloFpiBIcEhoMArSI2ksGQJA49sDlh4ISiIrFCq6Y8ETFE0Tb80PfGconf+Xn38eZ7fGB1C9/4KdG+vK+yfhBYDM+G1hXTh33PLqa9Oag14CBqRvLly9LUHsWMqQbMpOTY/fec+B97/vHqVTSiy6xIXWhO2bkPBi6mUM3A6K9yGywwSf6TrsJNah1tKt3mBCyQhjSbSXHtlBwPPK2u+++e+/kxNjkxGhAdx9Ql4Ph8PyRo81qlc64CQKKlUplZmbm+PHjBw8eevHFF48fP3H27NnFxaVms9k76O+FXsN9tIunTn/4Az/nNVY5xgo9V2/7b3/kvp949zv6C7mQ8QGnKMtQeVZQWFnjRFEQRR4GQiFBBDKEAN1QY8LA8x3Hd53QdYLog4qBtq7ru27g2b6jMy7CTFCp1PJ9A6IiP/rY177xzWPpjIKuTBwuJX//L7+0/62v87rF/Pz86dNnLly4sLKyEt1BwsgO1CDyoqyqJrLZ7MBA39TU1J133rllyxY42N6Z3xt6DXnRoW8+9exffSml8AjGhu5As0eHwehEEPiSKNF1i+jDks+REBKQIsHtsJgAWU1sD9SkwiIImMDHNoT1+HA+HupteHx8EFdoT0B7RElCelWrVWcXVmYX1jVNRqeu6xmOt3Xf/t137Y/7vHFaWFh4/PGvfOYzn4HWr6+XdF2Pbx9FNkrVDrYucjJdX1paPHTo0MGDBy9dutTtdjOZTDKZjPq49fQafFF5dSVwLDZEHIaQkfuzYA58IzJH/Mf2FMkabRS1+EDKIUwEBwSx+4FkSdzIYqF0MIwA4Z0a4ANn4sPF3UT1H3IrGA4viR29gzIjYMI47PuuXS+XouNulKrV6qOPfvFjH/v4F77waLlcwRRi6RsGSvKubdtwTSA0YsJPkDvwePbZZz/5yU9+5CMf+epXvxotPLj1dKMY+J6/MjvDMwCAhZchiQTh6uo6pAzLJQSup0i1fd8JPJc0nVSe5E4f5LO+G5DiAyGCKrKJHmYMAeYhBwJaEBOyK1nVHC8orpV4EeYBg0MhyAss06yWe5z9XVQul7/85S9/9KO//2d/9ik4H0AIt+PAAXlwQW58DHqO96ARIWHBFAAP1EvTNIQhWMMf/uEffvzjH19bW4tPuYV0oxi0mw1UBoosJDUN7gWSlKCeHX1+YQFGqkYVEyYAigzDg6CBRICvnofggTn6nkNhwMdPPiICXYfzAEZ0TAQJE7pMCBfnwhHBScF2JFnN5wcXF9fr9S7LMyykF12mRd2xMjend7oxb69GkOY3v/nUH/zBH37xi49NT1+IVF6HjhN/EQBobBA057pGCEhaLQT+KuIz2pggIseTTz75sY99bHFxsTfALaIbxqBRr66uJGQZrh9MUtUKJxKGRw4fsR0noSXh5kmPIHEINVIo/OP7LtouVAxK5tgu9lPgJQlg28MDB9L/dMMsDOEEAEO0w/Ny/YOm4x8/dlY3QnAK44MrEiURBlIurrYa9R5zr0SQ9aOPPvrpT396bm4+vm8KDCBHbEHgAD4vGjgaO6KNL5ggIrOiKOgHpwA5IAE3iPkePnwYrqnVasWj3BK6UQzKa6uebUqSEMmUrlqTpxC5mdnVJ594EnBIohxPIXIyUG2oMrl+uJ1objAFNBx8hRUgjFMjPjikLeQehh6ZAuOGcFhhoMiqLCvPfuv52bklSaYwAR9CxR+HACGa7Y5tmj3mvoOgzvA/X37sy416o9GoAwPgjv2IU4Zh4itYRG0JWUefHoGD2IojY/AlSYYjkmUZ303TpCBBNSmHQI2+44FuCd0oBpdOnGSsLi8HrIbyCsIXUWlBM1lR+vLXnvrsFx9fXiMHLXMMj0IqgJOB80GWafmuGeLjWKFrIe3HnsCyQ9thPJd1bca1GM9hfDqFheAh/4CD04Kgu53u5z/zuc987ktuiLAsy6LmQgjIurQEBQ/LdG075u076dzZc4//1V/D9dmmoXfbEB9Y5mXVRyEOW3NsuFaj2xKpkMGoZJ6UPzAsVMBCKQ6FYDFUiARbSyi5bCaTytD1Ei+0u5ZjWF97/Ktzs7O9wW6abhSD2vo6H/isyHDIDwEBw5ErQW4jCuDqM5//6ulz0+AYk3Z0HQCg1kX6TzC4yP1tZP34GkKKDu1HJAjhjjFzz6O4HbgI+lEuhH+RpAuampybW3jsy0/oho0ojIguCTIlVrA+WUT+hG7h0XvMvZTA1ze+8Y3VlZVKuVIplRJwK6oS+q7RaTlmFyf6VA+4lm7ora7dNT3LCRCnHBeYha7HBZSkwVDjmAGzhVlEV+IVbGEh4HJhfu6FF17ojXfTdKMYgGl4H/hEZCWUH0aXpuEcwCAlMAKzuLjsOC7a5GLAOvw+Qi75fQfxIAoJNn0ADH0gCJIFfShmwMPFmDJwGnD5KBWWi+tuwCQ0yTAtKpCp5ouzIuIDxzuvYgeXL13+9jPPeK7XqNcTqRTUu9OouZ267Oui2+VQAHoIPLCGQO+YtuHC+ESyXs8zTCRMvOsJAAA5HVTFCzAPimNBKCiKnExKWgIgYELffuZb7fatiQo3igHUC/OPxE/Fl0TXpBPwmKIooTBDpF5cWCwWVyF/yMuDiPGhYhgzRDqEto2MjxquRWbhWp5r0QGEEzwBoYDYThECuLJcqda4PLcYX99A3gWUgTpAgAlGSIg4AR6mx9pL6dSpU6vFomkYxC3LN+s139Q1xsvwbk4M0rwvwe1jYPQA+RL8tPASygQFJ+1xYBnwnFEIiwyVSpogdJGp8bya1KLRvZmZmZXlld6QN0c3igGCIeQAggioHBZ4WiInq5wocpKoqEqro1++PEMMQ59dJKZgn3wOFAluhz5QLddh4I48K/oJ8dmlxXgUnCluw/QhcSg8/i+WKuVGQ9YEfEW1LCkSWUAEBIyArvoBKkpfX4GgCoi6wEDkhVatGlqGzLgJxs0IYVYIsjKXYAPGRqBCkPU7llHrtmqdhuGaDuJVAMMwO1aXygXSEECEGaBy7rRb9VarbtsG2IEptFut6Vt0Cf1GMcCEOZYFAEgVBElEOYViWaA8NUS6yLI80qDZ+fl2u42DOWhOfOUnmioaAWZHH8uzDXx8xwggAc/hoHpwT+SaPLACDyfJChzR+cszlh/KiRTGATBUmol00UlWZOgCnLIgS4nkK9xVhrzWikVVUcGwqRuu3kkJTCGhpCUuIws5VcopUj4hJRifcU1RZdQkhmQMp1ttV0uN8jrq70a12q5XavVardqo11qNaqNa6TTrVrddL6+Vikv1agVGAyu8fPFyb9SboxvFAIkJvD9qAjIFxGTkiMjT4RqQNvI8xARTWFkpzi8sQaujlBT2TgkogXH12hxiMmVB0QeGAuGjIkUwxJHwA/AxsR3MLi5fmVvmRIURJEFVMR5UD4pPJhg5Q0pTEZuj/P1lhDqgXq8jw4yWsfoJPhxKKUk+7M+kRgcHxoaGBrLpgqaM55NDKci+4Zt1mXGG+jJjg4W+QjadTiIlhhNjWZ9Fisb4fOjJAiNjipYheTayQtgF4gFk0fp7jgeUDuBoJOg8LyMG8Dzyd1EWUUBCLqqmSZIKmaMc1bt65Ijg+iF38kUIAxQDKCbHscGCfVA8cG0XGPgusizIF4mHltBs1z07faGlm3IiCUCQ1MiirCYSELoE6URhOWRRsnGAv8fcdQTRUAnmerlsjgvZrCLmZXZqZGBoYAC5Fky2L5cb7c8NpuWJrLJzIDuuSard7aws6+WSYNtZRRnt6x8fGu7vz+cL6WwmmU6qmsSJgSOFblpkZN/OpVPZXA4ud329hLqhN/BN0I1ioGoJBFsUSfG9euQ/FJAFCcUkPDR8No6BEOfn5xYWFqLr04CBogL51CgvilIjSopgEEhqKG57Dj0lxdL9f/STgKBZdvbK7OLSikzqT3d+COkInsgOUJxReMD88S8MMebtesJ+dJLSklAZHDmYS/WnlXRC4TlOUuBFVahRPqWND+T6VaHABltzmd0jw7cND+Y43m902muV+vJac7XcbjdanUYbn1bdNfW+THr/ntvuvX1vPqFYhp6AQxaESpmoN/BN0I1iMLJthyelmAB2KabySZuxBQmCk8ksZCUMWUFJ+LzUMrwzl2abXQ8ZBPyFGXom8vWQETyf91wmsKIrQh5dLg1QjtG1VCi0nNAEWQ15evzm7PnpTqcrSgJKIsR7QWRV2JsquFzAqigSoIiuZToDE5P5/oEec9cRlANwaopstWoFlRuh5yFUJDtwTbQyE6kEIgrHA+9NExNTY2NpJJwCO5JN7ZkcObB98t7tk/s3De0ezu7sS+0Zzu/bNHLvjqkH9my/Y2q8oIp5VTqwZ2dW5a12PZmQLZuK597AN0E3isGdDzyg9I/aFs/7oqzJYlIIWD+ZQnoKsUjRHS4JPySzg4ur9XOXFkV4EWRNimjylNLJIUpseIqA41loUOThkdei3pOT6Sxir8fwphtMX15YWitzkBdcPy0KADQyGnJCDsQQ+izxktO1bcfftOv21Cut/5UkUUumPNfkPL2gsrIkcFIC1hoZcShgA7ND/zAISckWCoMjQ4gR+WwyJXNpMeiTw5GkMJVTdhTS23LahCYOylyGCwTHsFv1bq3MBy4iR+jqIs/AlhH8egPfBN2wHYyN77hzX63eME1b5qW+fJ/pWiL8hCxksnTBDmmoLPBaQkWPF6fPrSwsKDybkuWkqsJVsZLCKgorqx6v+LzMiDJCriDKqXQ6m82KHIfTFxeKh46etl0ukSowQsJleTWdZRWNTaQsL5RDdjiXRyDSdcPxw627X/nJHNgleECo5wUuoSWQRpMDpTIyIsBPRUaU5mIrUBqWTKXy+fzA4AAok8mgrgaQtIgQ7g8xMED65hrdrtnVdQT8al1TE8gNsBO/Iq/uDXwTdKMYgKV7HnmkWAMKrayWy+fyjVbTg1fhGFpnl0yIHAMXbxldjmWajcbS7FyjVEbQBAKCIrKKzCgJRkn6fMLlE4GocbImwiMkU8gyTKNr6q0L0xfW1+sI9r7POihMQ05LZ1BwqKl0tVJPw7lnc7D+1bX1VGHggXe8s8fZdxC03DK7PMem0ymI/Kr4iWIAophCaQVsArLGV5CiIL0gQroFG0XeAUHzdO+VnkOBuNPJFKTvWDYTwCNLpq6jC6DVG/Um6EYxAL39ve/d9/Dbr8wvtVvd0eFxXhLX1tcSCUXvdrKpJOSPssXzvK5lGo4NPWuUqo31CjSKIrbIh5IMaxATaUXLJ9K5ZCaXyeaRbzm21WrUV5eXECRQLqBGNdpNxrFzMCnPUQQUGzbS89G+AZSqy4sr5Xr7kZ/6J5Pbt/fY+g5C9ujbusCGWgKWSQq9QZB7bAQgwIDIgUoz3oMTCZIIp2gn6lBYEOqfAA0ZahS3OeSoqP44q9tVJRFGEw96M/QaMEAC+s9+63+A8p8+dwG54dTUluWl1ZXlYrvZaTRatKyRYQ3XNVzPgHopKkrg6toaChy4BUyLqgqkVQKK6wSUDgJBeoOwVquW19dWHctUZMGFnutt3rd531QF32yW3W598cK5/rQ2OjI+P7c8v7zat2X7j//iL/V4ekXyPZljkoqI0gRaDLHHko0JEo+FvoEKdgIPbDd2Agz8DyMghnEMGsgQUJYjlcBP0bVs3neRNWtJrTfoTdBrwAB0x733/Te//hsLldrBw8dkITE8NLa2DCk3iytrXd1yQrZtu+0g7AqiB82RVTZglucX5mYuu5alSryK2jq65ukYBhI+vdNcXpxbLS7DiSGwqynN49iObQYsY9vGysJ8aWW5XCx6hj48MHR5dvH0xSuGqPzSb//O9j17egx9B9WrZaNeyWpqSlXozislXhQPIDsS39VGTFBsnNL7EhG+Yiftj+5u065oRWHAhIQITwfAwjjfSUl8aOmV0i24tfma1/zecc+9HsM8+ddfbVUqjBf6lgePi/Sza9meIASi1AnDRP/AzrHxLN1vCRiJRwJndw1HN4LoLhtiHJS9Wi6urSyYRieZSIgCH6L6l9IztW4bluCgnANRiR1dSOYabfP87KIyOAYA3vszPxsL6xXp20/87cLZEzLqW99DoQXXDlHHCo4tLCCS6jUkIG5scSIadJF6Y4v/6ZZO9CXaSTcY4n/cwDbNTCoJo0rn+/fedSAe+nXTa8YAE7jzvvvUZGp1bnF5Zp6jGy+ebloeyzscF0iiWsilRoa3DQ4XOFaROCVDhbTgM2F0I7EDz9WsGe2Ga+uKxOcy6cBHMcEisW2J2aIr1ruU93QMxwuR/sqckpbTA6mRyf3vevc//+3fefjH3h2L7NXo0FNPLF84k5QEKWRy6TQpMTimygBOhWDA6Wi8rJMYDBJwRNhDF0uxx+9JPgIluksIzIIQvSBIoJ+BsfEDb334u7P0d1LPHl8HlZaXjz/zrdW5K91myzCNeqt5eWYaeaeLCnQo9zM7t9zOGqLXYhVyrQJLFzu5AJDRw+DIlbjACn0jukMiuajegmAlMfq1xe7J02f4riEw1jve8cjOXXv6h4b7h4aQOWYKecy5N/ar01/80b+b/vaTCZ7xHSeVTlF5QSpAuRAAgN+HvEAbXcXTxxbypTs20X0btOnx0Kt74p3YotZHMhq6AfSEVxOJfN+eh975K//jh9Fz3Nvro9ePwcsInuXjH/lfLy4Yy9rm1HjuAxPcA+x6JtQlltJAF+GWZ8VAlRnO40T4fYlp827T9UJWHLQdAeF5URv9dJU9MlvS1puT/cz//uHf3LltW6/3G6a/+i//94Vv/o3G+IZthSjuFJVuu6IOiJJRIAHpxxQfj+nHBBFD6LG4IwzoZsYGKhsNHOLoHTjJZP/AwOTWiTvv+2e//t/HXb1ues2+6BXp4uWZT/3Fn12aueLJA+3CbRV5oJDyJ9JehuHYQGAlBDNTYliXS6JGi0Kl5fPIrTSJT3k8a/EBLyuX3OQ3amHR4gSfNdvlo88/tbZShBBRaimyRCHyBgiCK89eTEmSbhrwmzgLdhAL/Xr13yDYX7yNCaeDrm9stIFT/JWLFmtObN6a6hvacvvdm3feFnf1uulmMbBM64knnv7T//KZ9VqJFxU/OdRMTS17aksMNFUa0tLIH3jGlFgf3jjgpIATGc7mONtnZZ9N+cj0AEE6PefIX2+IR6xUJ0RhzUtGjXM702fOPffCkfnFpbnZ2UajgYACEcQa3Rv+Owgu/8Kp46xFCyFQaiHHhJlD/DEGoN5x11kA+sQ2FnRM2LOxvf4rLAUtlm6esIMjY4ySvuOtDw8Mj/R6fL302jAAK4ZutDvtxeWV6fMXzp8+942vP/n0tw4yohwgBRJlNzNaS47WWLkjJ8tMghcTI0nUxybPeBzDhfTinIDjvGi5lkoLSViLk8R5M/n1Tv6ZcGiZyfpCCoWCXF3J8hQl2i2kSGxCTZw+ferEiRPHjh2/dOny3Pz84uJyvOZH07TrJYvCu6ubp48c4lFn01JKH7UKDoij8fVHxgBsUE/KEcXt+CvaG1+jBt3vo/t5amp4x96H3/s+8NDr8fXSDcWDleLq0uLS2nqpVqs1mi3omK5bbMB3W03Ds9VE2mVZlzUdlm9mdl5Wt8x3XLF/KKmoI2bpHUr9fX3dTcai7Hddnl6oFno8w2s+E0i844bhGjvw+TXtm+zmeW1INz3R8bPOav+pJwetZYkNDR14ie9610NBSEYQu2mwFEsNVcWe3bve8Y6H+wqFmFVQq9X4/P/1iaXjhxMQvciKdN26FwkgL8CwYRMg9BlBcM0ONmAAxWFgg+ib79qWlUhnBrbsfv+/+q1d+17zuuPvpL/DDgzDePwrX/vm0986c/Z8qVxtd7r0+gkPiix4LqpFw2U9LZmMbjZzvKw2pL51pb/LC6iqeSmtM9KFtVKzbRSkRCGthqIrB0BA9aD8ki+y3qKufKmc/Vq4dSm13U3moLQoOFTeSTeLCaPOh6xLS1X9zVMTqPlonUkkLzCAD13UEaSZubnFleXbdu5Urr7xC0X40MTU2tqqUa9LPMpEKm5B8a9RBz2KlLtHsdCxE9v4a7z/eqIDgtDnpaEdd/zkB//1rXpS+rthYFrWo48+dujwUYRFRVWhPeAD9RP8smnZ3a7ueq6YEJIJTWQFVRFCUa4L+VUp58iymswHPtOtrduhvdx2K+0wrSb6C7ysW6KctGXOsOwlXfjSqvj51uC8usVV0pwAN8WwjpcSnGRnNWk0EPwciN1zJseHkpkk5E43Py2rq3c7nU65XFlfX0faifDb7XR3bt+24RbS2ezm3XtnL06bjWq0oP6arUfCv0YvkzsI+h43NmjjJ/wIsxnfe+BXP/zR7Xtu2QtMvlvG/Y0nnnzx6PGxiXFk157vdQ3DtC0H9SvV7rSs12M9NaVwXKgpYlZLJBVFEHhIjZMTASOYlfWgux6GZltMH2eGPr3kXuykOKnPsdFRtxim/3w2/MtWfzG7PeSlQC/brbXQNxMI5bwQJhQxkVBSmppNuoFVb5Tg1uNrBhgX/OCDeIv24tJirVI5fOjFE8dP9viOqNA/cNfb32n4tJo4lh+teYro6r/XKPI0RBvt+JSXEbrCD7vvfmB0clNvmFtBr4rB7Ozsi4ePbt6yVRRh43CiKHXgUukSVpRosDJkxfGpRAqpnSwLmiwlBFlgo1tfkmqsLAfdSshacFhMyFQ45qynPrMurQWSZ5hhqHxzzX7cHFgfulvMDdGDmirCZujqbUvv8AJS1jSibSqdyeTTHmM3GnVaZhXCn8DridEydSRIgF9EHbxaXIVNHHrhsN7Ve9xHtHPfgf6JTZBdJFXgRRKEeKOFNPShndfF4Q26TvHpy3VeKdTy/bff90BvgFtEr4wBhn7628+tl6qdVhu6ISKUBUx0HZGNFuzCAtyAczNiUrUSHiu0eLPVbbI6q/iSCFUqldlWSXYbnNmC5tLFryCsMOpzQWbaF2pa/ts1/tGFoDt5H5sbksRQ0mQvORgoIwKn+abbNkNXHBBT+YzEZmU2kUjW6l3XcVFqh36AZDNeYAQRQjEFTmA4cb1SOz19/viJl5hCOl8Y2rmrE9LqPtuwAjdAiWUFHr5Gq4+pFtuQ/vXWgG++Z+PwaBU4Q/fEXZtlQlaQRrftHpu6xW8JeGUMLly8/MILR0ul6rPPPX/06HFkQ7TwHMllSJpIl0zIJ3h8wDIuGozN0uJ2z6aL0V675pdXWLvpGk06mFMQJ1hecHlpxWEvuYkThvb4TLOb2+KrWVr36MNQPJYTFEnKCewQQkWzbjt2WksVUsl8LpPOFXQdAciO1qPSQ4e0xoOLVt/HbRpFqLc736T1h9celUE+tPvu+8VMllbicBwiGa3cgt6TMUCwDqQO0ccYgCLpXyUoGllAGOUBATJbQUJ5L9z+loeRg/QGuEX0ChiAgWe+/RzyUcwHyrG4uHT48JELFy5CCnBJyEZkWUEVhRTRZ0KbnuVzoFqO55uOYesNQa9pZk30dJSpAb3fOiMm0r6sMvQ4X3Csrf5NSZp200zfBGbHkJemhZEKY+d4XT/5NHP52Jjmp3krr4qqrCppeqIfIbdFt+38kKXLnKQJVwkIwD7hJVqt9vnzF19mCpu37x6e3IGB8Ikye8eNkADL0RoPBxjgK+2J7ODqFhvARJ/AhbWF2A9mh7duv/vht/e6vnX0ChhcmZ379rPP67oOzqJXzPmY3uXLMy++eBj1UbPZwp7o0jqDfyzPCRE0dTuK2AbjduRuxZs/4zdWGZ5RUoVkZpCXUlwyLaTSgaRN+4Vn9WxrcE9XzVEaJHBeyDj0vJQtt1bsS4eKh/5GLM8My34uIcEHyoo2NDqGmFSp1Oi5Tqg8eUXkP2QCFKiQzob0xDpYXSuVXjh4CDKOJwJSVe32ex4yXUpnAUEA8ZJnAhQkbiLkWlcBiIna0RJHOiPCwbB0URI5Rbnn7f+of+hmq+LvpFfA4LnnDq2ulpB6GoZl0OvowKQHXwApnD9/4cjho6dOnS6tlR3bdVloJi0g0tsAAP/agq/3h/oQ083xyD/5VKYvjKI06gFZS4qJTF3trytDujZoiQqrwJUz9Jg4r2CybHVlU5Z52/5NiebyIOcGsKrAt2FcXcMJ/WarFXtC0mjoZBSckSMgs4R9mLbd6nRN2zl24uTc3HxvJhHtuH1/un+YUhpSeQv8wuuQoCPngxbsvid6SL1H9AvUPwrDnijwSXjEkcl7Hn7Vm9g3Qy/HoNFsPn/wEPJ/DA6nDH3B/yY0BewhQHmeblnzi8snTpw+efLM5bnZUrXsWhARg8qtrbeCbn2AtyeTjBZY6YQM/WyV6caWU6/4rsVIsiXJbK4vSKZZgZM4PwFVV1K8lJTZ0CnOb81K9+3ddM/UkNKFI2y3TOvksdPPf/s5XhYGh4fh9RCHlITKigIahm1V67XlYrG0Xmq1OuDNtJzF5eKzz77kyYDCwGB2YNiwbR71DfQEXgUy9n3MK5b7xjY2CELAp+gN2wJYjO/lc1lErT33Pzg0NtHr9JbSyzE4f+7CpUtXyFET0YJvfMATMsOA6iefLh1IMr6YpnVlfm764oWVxSWyA8cxXQNppOq00ryjBHZWlj3bCK2211gLq0WrUrFcjxFZNimr6SQSUbe2ztiGzAlSECasttiuFCS2sTrvN8pmuTQzM3Pw6InZK/OoDPcf2H/7nXciV8XY0HfEqkszV86en15YWkatR5f06ZENsOqh8fS3v12pVHrzidJqhhd0GJNjq4oMaUPSNLWrFrCx3SDoH1wc4h9+6O/r4wW+a1q33XGz98tejV6OwbPPH2w0GrSMkuWQVG4QfsJWkmRoB6UZyOFRNwhcx9TXV9fOn51eXS+hclB4X3RaCTHUkKpYlkqrgS3W7zBWh9E7yE5YnkUYoKsHjhFUi8bKvF1e1+xOqlMs8K4qiH6326pVy6VyqVS5cGlWt5yJifHx4cHLly4fPHjw+eeff/rpp0+ePLm2tmZTjoCoAJ+BfDW+8MVCgOcvXDx+Xb3GgXgR4a3babu2g+wLMocCQY0izw8siADDBh7ACWaI/u64446BgYH19dUQWfnN3aj5LvQSDNqdzoWLlwIEPXoBFz1kIF4lmgjPp9OoyELsVxQF8+fiRwGQiafwXyaZomVGgd0NA0eC0XQ6KOOSCR5VGdSeCeg6KHoJUeCibySXoSfAvdXWVKuRaC1nEUw69Ecq4CtYScymc5PjU7wir6yuPPaFL3zlK185cfJksViEhCRJAj/Iz8AYdAKMgSWO7s6heOY6XeP5Qy9GkPRIkCQENXoYvNOClNWECrYR4TZED9poA1qoYDaXvf2O23HY3NwVGBDdxkhi7t8TegkGly9fmb4wg9AHCJCAozKj99pEHwhMEvmRkSHkrsjy4FshRJnlgEr/8MD2bVvHh4bbrW6l3nIC2fUkLTCyZpFvrBXyQ2J6mNOyANEz7dCXeUllEO3sUJSyjCjIaT8ttOT2umibFi2NQRnGyDKbzaW2btu0Y8skiqmuZQFykRdU1NMM3ReFuGmxSRiKaHOMzHN0nwKpUoBcnj9+4lSlcu2lInSli1bLOaZtdgCDG2bS+Uw6Cz2D70cYADAAFQEYGGSz2dt27dr/lvt8Lrx44RySYpEVUSFEicD3hF6CwenT06X1GnbCIyL3A+tR/k0fSspZZnhoUEvQY5HI2ASeL2Szg0OD2f6CIPLdVhs+lxETdqgABtWzBv2G2CqxgeCpBZ2VWFVBru2bAYonuldoByyf9HhJUQPRqiRdS0KGynEmUlUopWN2jbYNH5UQAPDI+KQsydlMppDLS6IIjihDoisnMAB6/AG5KnIs+CMKqL43t7B48syZ3qwYuvJKtxIYejoOiV671bZNN53KTF2l8Yi2b99+11133X3gwI7bdtaazdmFK6ahI/WDf0Pia1tWr7tbTdcwgC0+88yzsOANuKMr7dcIapJMJguFAmaNr2AN9htrUKvVqlaraPAcj+iIggEhT2N5DcVoq6xqQqjKqJbpwSdLR8JJBS8nuHBJsqQxnNIxBNd0HeN65wBnghGhpJqmxSMODQ3B54Ex8jwR0dWT+EP+jdiFuYB/ZHcvvHAwngXINDsC7IamRiBZtlGv0cKyVruFrnK5XF9fH7Zw/fl8vtPpnDtz5vSxY+1KjYfjhZ8TBfRq6t1ed7earmFQrdZWVuMVSz0UMCVwEJMQESSeiVY7x0Gi20UK2YakcEAsMnjSyKMaSOvCdjfPuJLZ4BhL0NSAE8mWPNRxOl0F4LhQoseosmGYNky20wpcctAbBBisyAWhO0RINFKpFBgAoR1zFRO+xgTGwCkMBe1zFy7UG43ianH6zPHluSvgVpBlTIwMh1ZDIlo1V1ZWFhcWr1y5MoeaYn5+enr62LFjZ86eXV5a5hxHCpmUqiW1NC/JrXb7zInDS4vzuvGSy4K3hK7dP3j2uRe+9NhXUY6BWzAaq1WsWSBMFRjE748pl8t0xyaKxnF4hB4BD2AAXYPPhe0qLB9YXiY/aMkKClyH3qWWZOkmZpSehiwwgs9TGHPKNwYba9b6LM5wfbgMYEmfOMnp7x/QdQNGpijqyMgIcjZAAmY2GAORa4oI+4BQt9vB1rLNSrV29OjB0OpcOn3KaDYQwn0mQHSVRZlyDOgDiruIADndFEG2ZNHfbUNGmE1oiiRi2m4YupxQN62hyYmVUumrT3xjcmJTPpeLZHZr6JodzM0tNOoNaCgUEF8lej3OtRUJkXzpTRpgN5FIYJI4DMqFBuSCNjwGpIPTKVoCCQex1efddh9rqGabQ01NeRS8qx0aXXotJD3q5SpmZ5gPzFIxcC2chc7RIcYCQSIYCEMg2cep6D9mLFL9a7oPwlccFt/rRw/Y09/fPzg4fPTEyVqzNTQ2vmffAV+QEYmkZIYRZXqgR41WvSoKtAqk0np3IoyIqAOPpCoJSVQDVmDlRNO0hyY333ngXqReR48d+3cf/4NnnztI6naLqIcB8uQLFy9DndCOrgWRg30Z0WERAZtIDqSM2Al51et1OFM0kG7D6fMh57JCy3U6rUofb/X5htDVPcvkFJZBAHV9kR659zijMSkySavVqpecwEOlDaARPvGJLuyHIyOjjUYTdkAqThc+HeyNmaHvV4kmEAkE+CUS6qZNmxBgaRe0hkfelX/L23/0R97zPiMQ2k4YSgnkqsgHJEWBX40JXg7pEEICGpR2cxxqUjGR5NRUw/Syw5O/+Cu/Njq5hRcUUVCKxdU/+uNPfvYvvwCdo1FvmnoYrJdKL754BKKNv0b0knmCMHPDoLCJdgxDvBME74Q2wnW306WXEXmsxYg136221zW/O8KFSdREpsHwHi8LoRcgoHOhIxmtzUJol5br3SpChGHTBYIYZog7mUxlMtmlpRUoHDrHcJgzpIz2KxIOAEKwALABG4JlpNNpL2QNL8wOjLzvZz/wwQ/9hpLpg1LDIHhZpermOkIPmAhpVvR0l5xOd32m0jGmdt/xW7/7v23bvc/2EJmQCsuqqsEbfP4LX/z8o4/1RHVz1MOgVm8gY8MMY5mCNswBv+IfcIZG/NaZHtcR39HZ9KKapaUl+GvUTXStyWXNkLcUoeN0vHZtFGkl8gu6SNARZIVxQk83ofdZLsi7dm3hCr06hG5MsugcPGALpMfGxlZXVzudNqSJbsEAnDV+eqkNkODIieAImf6sS0KjxeiQPrwKfkJNH3BIyei5h3e+5x//7kc+evf9D8EIgDYvSpRLRYQZYjpxFyikMfdGx4C0f/z9P/Ob//bDQxObOxaO17ptU5USHMPBhmRFeepb33rsrx6fnZu7SYPoxeQnn3zqiae+5Xg+PfxKT4th2rQ0ExaNYAybRtYD1cc/ODjaIsWJuI8Qwp5arTYxMQH51CpVpCAm1cQB45hZURkc3NRk5TItWPYTyZxvmAg6Cutv5ewBs37p/FGfcyAEWv8QVUkAAD5h27ZtL7zwPISsKPFjMZJtW67jUIVIAQD5KT1Fgw9MEt/AM1Du7+tTVQXVHGobERyL0uTkpvGhEVoczgR940N33LM/X+hvd61StcxwDopRmWU1uCxe8IOwYzsU9CV5aPOu9/zkTz3w8MNI55pdMxTkgBEuXpppNuoQTfR8CL3T+Ojx44dePHL8xMljJ06UymW69hHpKPSGpHtj1MPgU3/+/x0/e55ebQkQJB7hKqkk4idPAAZKJkgGgQshFwLCNpI/UayMGFLX9Vh5y9UqtIx1HMal96GInDQ2Pu5r8qphG66E8gxuwPHsUUXdyZmd5em5lSsS4/K+6DuUvqMUwjweeOC+xcWFK1dmBgb6KZ/xPVRhdD+B55KoEhFCRV6RJVWBZ5BTWiKVTKSTCWCQ0jS680oJm4xZ4LCx4cEtk1uCEJhwjMRzCTk/ODw8viM/PAwLMXUDvl9lxcBjdcsPUYBs2rzl7vtvf8vbd+zem9QUutrKCoGgtkzr0swlw2gDXagoLeWRlWajZdPd7QBB4tixk88//8KLR46cOn1mdm5+dXUNhg9zhHXGsn41Igwgu899/otziytwkdBq5BfQPFquQ/k86TjcKxqwVBwZ+ytoYuwHQOgFGIDW19cRDDHZlbU1FYoFY6G3BbKocjk1u275HVG2dFOQON9zJ9KpAbOxful0s1GW2FBiFYyG2gKRAPXq2Njo17/+9aGhAUQFm95b5CGRQfDEuHAD6XQK++lBvoGBwYF+bAFVHAaQPsVOElkdGIalZLKZ27bvxOkoowWO0eCtlKzCJxk+4yj9LU9ZN7lqoNQZWegbHpraMTSyadv223fvv2d4ZBg1Gqy+a7uMlKjWG+fOnuGZABYJw8PEIVyUR/l8Yd++O5GIIYPQtCS0EjnxhQsXT585c+TY8fPTFxDqh+I34r8KkUNfKRbn5hfQKZSd5BoHgkjHMR8IHdaJrzgShraRnMQwgNAATmAIh50/f35icjLXX8AxIsAKuYZjVVr1AUkeh/BEuGLGaLahfpJnCq7dqpSjx1bpMgP9RTR654IKDI4cOYIeoiefYXU+JAsAkETCQe3de/vOnbfhmMnJSURgxG38hACAY5DSgA1KOYlU/C/KUqlc6eo6VERCWiPIAoNjNEHNHpyp/+cXil+vapcG9p3r33NYHTslDb3YZI+t6GVLCqSET6+UQoBGnZaSJblSqji2jZw1CUeZSkHBKX4Q0Us7YKkwT9RJ42NjWzZvnpqaQmUDN764uPQX//XT5859t7eLEAZra+uLS0sQK0RMsu8RXS+Cu8UAccyJRqKAGWMQAxBTjAfSu0q5XKlVx6YmcRi90iBgzMAt18oFQRwDBKHJihwST94zNV/Xq+uB0U0rKvwnsilggG737NnTarXOnDkzOjoKwWFEKFdfXz86h5FB6Jj09cyAwB4sAAQ2YtEACQliQ9wUpEalWq/XkPEyvIj6MOTF2Yr+/3792c8dv3hZHTN2PjSfve1yZsd8Yc8JZvA8P3zczXz26KVHn3iuqjv04DsD5wyPl0DqyLMCYqUaPcEJgDEIPccpy3Gqgjqp2WzoOv3BMSjE8PAwthATcusvP/43OJ3k/UpEGGAOkCAky0NLo+lB/dHAlCAWzA2/xgaOYzAADsBPOCCCqkdgCEaHYHTp4sVUKpnP58L4QqPANWpV3jGGEkKSdRKiwIRBThXSjN0oLsoYIEC6KSLPgBVAgpObNh0/fhwNqDZGBAzwO1Cx+DoV5omCHDwgR4JFguAeQZgC9uBgHINtLBqq21jeN+zS6jogQeoDR7Zuu185cfZvZxdXtIzeN7TKJEpBxpCnTHFLgxlfDAZXkpuW5cGzC2uHT02THcCwZFnvtldXipgN1A3wxkNgi1lDJnHKDh6QrKC4sSw0UYlAPhxw6XS6ly7NPP3MsxAtCeQ7iDCo1eroEekIGIV8Qeg9Um56XRbmBlngS0+/ojwQX3uyjwgH4Ejsh6Q67fb6anFoeBiuCJyKjOB0Ola3kU/wg2Iohz7gzCkCp1fNZkWi/IIe5A/h6tjwzjvvnL1yZWFhYXR0LOqYIk1AS0tIA2KhQycw57gNU9iwBhD1FS2Oj1lFAFforRcCvVgTFYMsQEiHp2ePLa+taym9kO0yTh1Vi5JRUsNyaoLhBwyxz0gNd1ODDTc8fm764vwC9B4Z17mzZ0vr6+lkGuYER4CBwBgIcohVE1IHA2ggQiNoYgslgT5AeyNt8Q4ePLyw8Mov5SQM6o0mBADUMB/EIAyAfqE0aGDC6Do+FBODH4RPgJLGZrFB8QFoIE4iY1ucnUUoTvQVUKYmWYk17VqjlEqJY5rCOraWTKq8b9ZWPaMl8vTSnYAXDNcZGR3JZbMvvPAC7AlRF8xA9OgWhRsiAWYbCx380Jwiio0AX7ElNKJ8AdKPRYNzaWERL84vzF+auSyLfLXWuDA9U+vYnlZgtGTgdYLQChUuTGlsIccO9sv9BdN3mt1WvdNtdPWz56Y939XbneNHj0YdImSRlEAQdyyomAcQ2IkZgQWgyEcbv0MforfVmuvrpVd7BR4xmstFV0hgCsAguliGruOZIOPEVGEZ0XgsfALEAfzxFb9uEDqJjQOcIS55lr26vq725UKWT3KC7Aer5SInBZPZdILuviAxcjq1NYkNkDxCmaDnajo1PDp8+MgRjLh161aMCNvDKJiaphHkEHTMDMaC7PH1ZYSfMDpNCYxGV1AgFccPgInte6dOnaxVG8XL82a96xlht+3bXQ/yQwUTSoyX4HTBkQuqGBjO8pXmleniShE5MlwfcqHz58/Nzc5KvavfHK14RgJ9FXVihbI5Ej/5IIfeYYv9cI7YQiz4iuORFzz//PMrK8vg8GVEGLztoQcffttb6B4ZxTmUS4gH0CNIFnZgxQCAABB2UvyMbt5SxL76AWDx/HHYQF+fyIul0rrrewgMrBfKglRu1jzPHE6pOYkTXJOxDEfvIHwCEbAQskxhoK/eapw7dw6FHsId4IQHIDm6DjIfIIF4V6/XMRM4WyqEYg9EC2uQz9K0KYuMHC54g5biJ+z3uFDSFJ8JYQdHDx+prZdZw8wy4a5Cbqso5HWTM23k/3DjDO8HTtdeX3zrWOFD73zw137hn771vntQahw7dvzwkaMIQtFj5AItgoQ/jF1+dIEdUEQvzI3Ks4jADHEeJQuYCPw42rQEYnbuyJGjJPWXEtUHCN/IsleLK8Cw222qsjQ81A+x1hsNJHayTJUQsoxUKoM50iKfyAav5bARRaZPwMCBCJLcqNdREmUSCpxHIHJwxJsmxsaHh8uNlllaTbRrTKvB07v9XIgMVRfSy/NnzyH52zy1CTVx1CFXrdaQkBT6+tG1YeitdpuWybkOw7EweLphRr1HaNDbYcl+4Y0tWpnmBChrEKUl8EJ/iLZSKidTadQrttV578P3/sxDe+/M8hdPn66IuTAzytLzoShynWS3+sG7Jz/0njt29Ce8dr1TqzMBf2V2qdHqjIyMwBPpehsOjm7nBgH9pVuPXowKHoANNAJqiH1UxIuiaVuNdqvZbNH6DDgujosuiPlvfcv9CFaR8HvUq5MHBweGhwcrlQpECxOgFxMJ/NLiMtBDSYLu4WEQBtAFpgqFwK/QtggG+kSQkHHgAEw+mUwbXb1eqwI90kxBgJpMjo/D49uhUF1dtitrvG3KXICKFrVBJpst1+qXLl0aHx1BpQ31QYcIRdVqFRkekn8Yd6PZy4hg9eABA4GiKZDyQ++wH1vshE+AhjZbLWgfYjNKBPxULpXAw46dO/bfdeeurZsV3zbbtUPTs0VpwApVyJBLadl8vs/t7kqY+8aQwZkouZOaVipXT50+D/8J+WAceCe4RCSaV65cQU2KKSM3wqQpQKCWoVcU+9Ah5LDIsHEkOCFGAwRaeg6iXqvfsXfP2OhLFuuR9sa0f9++X/9X/+Lhhx4cGRrKZ2GvIaYS2XeAmhM5qWNZCMR0ZwODeS+5fglWgAG8NoIKskwkLsjfEIp004IlAiRIBtyjlZFYvVTkXUPiELk8eG4tkYJ3vXx5NsoqRXoRMlVnMuYA5gF8JF8ItveKcMCAueEwbCnYRXdgwAOmsLKycuzYsUOHDiG7hYDwK9hSVA0949fFxUX0iSKja+iAJ3qPr9I/OJoZHKa3zTsu9FmQVYcVGEmBsmMqqLMg63anhfwYvMHdwLMXV1ePHj2KsZChYMrQGGIuDlFkgQ7GjZcK4CeMC8mAbYwIKVVq9UOHXiRxX0fXMADt2L79Q//yV3/+594/MjyUUORdu3bs3btr+7Ytu3bvKBSyloWZNw2jg6IW9RaGp3AcUdxGD2AFHNRqNQyMDAp5KoZHqQuP22o0BZabO3vcqaxorC8GbvwiNSjQwsJSp90dGBiEfGGLmCcAgxGgAEbP+BoHOhwMWdN8ougH6cMyAAYIDeyBUFDZIa0CxRc2LNtlWJ7e9Ktq8OFLS0tw4AkV5ZUAnYWEfFZACifScg2+2+6acHZs9IoTVAWKsra+try8jBPT6QymYZj01nLkL/fff/+BAwdQwcRT3iDwD60A52gTZlfTBEgfeQTgwNdjJ0/BRkncV6nnizYIirx7120AY+uWqV27btu5c+vu23aMj485roUIAfdbq1U73bZNj7HTnTV0ipHQAHPtdhu6Sa9qpOgNPVJRoCKJRYzFYYgoO7Zve+qJJzjPVnkmdG0Efhhyo9W9MjuvaelCLgcccSLUH9MADJs2bUIaBuHC1cKosB8cxtt46I3RATymDaNBbEONAjFhJ04EiwktCXfaarcQolDi7t+/H7JDDbdQqj4zs64XdrR8gbJIlA+BL+iNHQXxLTuGZTYE/ydPnn7+uRfgCzZPbYa7xdx1Q4dlg23wgNExNVJ/co9EADhenws2oAGQBrjFfmzBHi0163RWi6v333v35MQ4iTuil2MQUzab2bRpcueObXfevnffnbcf2L9vanICswbSiBaYOPkZ3cQYkHtcNIEwNgZGRowZbfDX6bRRM0e9QhecSrEoIgbQy8PpPZ0sZVDVer0xODCUSiaQi6EHMI2ecS78RtwJJoABYQf4CVv0tbGN98Q6GAOP/fga7UfGFWUIiJCGgfiEHSgD6S9xCvxqs/3UlXI7tbXlcz49ts4DNL9V3jmo3b91SOWo1Pja3/zt6dNnc7n88NAQbK9cpqBCzp1yk14O1mw2CezIOhE+oS7gGeeCwDkIh+FXIEMnMCz8ART83nuurZx8iS96NYIKwCZ++Zc+8As/9/6HH35wz57dW7dsnpicHBwchNJhSEw+kj5pB2QBvYMsZFkElhgeXhieCxnNxfPnORS9JD26WRByfFunF13kMrlCNotIxtELp8h3w6o2VAk9YCbYbhAOiKFCGyoGJYhPmZubi83/KtGlaeQmwD6hyugdQWJ9bQ3nQlK255s+Y0XL+AUlEXKST6ub3fWWTuJn2Ua9USwWoVtwZcg9kRljCOyPXQrGxRY74TzBSQSAEQODn0DgGduYSdpEcZuuuQris88+H2MT0w1hEBNEfO899/zLX/ngv/nXv/bzP/P+ew7sm9o0MTo6MjBIr4GDx0wmU3AGCKco4bGBK0+m08lUCk4g9D2OYXPZnCQp0Xvt+YATPJart7tI7wp9BSQh9Cd2BLplhrEwW3ghNKBiYDdWtA2KBY0ZQiIQKDQAY4E9RAVQ/BOOoa3r0grubodMJKFAG86dP48iA+KAWvq84KDuheCih+zoSUeWLVZqzXYXig5EEZCh6wjOqMsg7p4qRNKPh4DDBJMxD7B+tCF07MeRmEKMQQRDhE2USqNeWCuVV9fWsSemV/ZF34UwWD6X27592/33HLjnwF27b9s5NjKMGJ7LZigRFKLIbLsc/SEzel8LJoDiKp3SYD2jwyO1egP1J1xQwAtw5JVKFeoJGJFxkYZFb32EXpfL5cHBIfj3eD7ws5hIPB/0jz3YQhAADKLHV+xHAxJBAwEZZ6GBA5AqIJWnjunBXg8FB/i/+777APBis/XcUrspj5nwLoLA+CgeLdbtct3Sw1v7x7La4RcPP/nkU7ByVAZhwDQadcoR0R3d06aXkMGCSuVSUkuiDX7iEeMGZoHjSAuuxjA4VAcTJ8AEVA137bsd0RE/gV4zBhsE8DETSH/3rp0A4+79++49cNd9AGb/vk2bxrZumpyaHBsbGdo0PppUleHhoR95+yMwlU6rDdvI59Kjg/39mfTIQP6BexBu9kxNjm7fPoVOfvSdj8D9X7w8198/CJcezYKuYpFBI45QiQ7pY5qo2ky4+ly+gKwINSvmhmqo2zX6BwahqPSoSBgi9tuWyUcv/gRURhc2YNx14O5C32DRCJ5f7HTZlBHAJmWGBBSiahHra3eNZ7cM9/3t1752/OSpkbFRVPtd1DumjlSfVIDjowVNXLPdrtbqWioJs4yGI8ZQIYqihMOQw8EUEaZwLL4CD3paKIpehm5s27blLQ/0HjGnmBa3bjlBLSKrpaslmD+yEUiz1WwxUTyAq4JK0jV+WeF4kiy+Rucxn/gPf/KJP/nU2OQmuBJoL2k81aU9PvFPBEiIlBQ+ELnT2toavHZcW1RrtZ07dqTSaXghSnZYH5mDoiZyuYLn2KV1eJrar/7ah9730//k4Fr33z87t8oNlUOeV9IeIkPoc9VVdf7Ef/ejO967b+L/+F9+5+y5c3v37Eqlk0iyEW99L0TFRw/kMnTdFM4KWVAulyXOIjGCKwQwcIW5wEah+9FbPgUwDOMO6ZEszIi1bPOB+w586j//h/h1eK8hHrxWgghiNw3po8xGA4F6CBlGRIW+vlw+T4GXLtCC52uclKOlq2CftCi6NgrXGxsECMCSOl1N+BAqojhJ9o4hIAb4MTqGeiLBIAFDFkdrMhnkqRp6OnXqFGWQfgCPiVwKx6GIBNI43A843WZKLXNldR3FBKQJxe12kKQhAkVSDuDuiQ0oFqKLpiWIlUgnon+JiMloix3YScjEP5GpRAtYeWFlpRhdrib6HmLw+ghBdXmlCC/cEz9ggPJcLZJjiqcUHwAMMCvswZyhmwghSBZhEDgCxufQvRQKkoAB1sjx9FapS1dmV1aLqMtcXvLpb34FHOOxAWooZGpCwCs1w5tfWISUU6k0zu20upZp0+JMcikQLkAIUIdiRCgZCTgi/AqusBOngGIkXkZ0aSbKIOA/gXE04zceBlCQ6emLkCZNJsokopT8JbQxYUwVco4xwFfsRIgCMIABewiC6N4WsifH8y163Qy5rFK5PHtljhVlm+M9uEGIHp6QBIQsQmJkrWO6p8+c9VwfEoMSRDpABQdsIhofRKkqvE208yXU+/2qNcR7sI0u6RLFuRxK+3PnL8R73nAYQGGxhXChhpRJRAqFeUQT7BFmBaFAofArGvgKzUIDp0DEEA0EFPsoeBAXoohMoY1aGikN3Ypwpy9erCFnddyA4ZGQokAjvwVXATUVxYX5+dOnTsNzggHkxhgfugvpRdKk0IUEDBEIrg97Yg5fRtgJghKgTQC6LjiMCYYE34eeylefUnnDYVAsriJ3wbSgN/SJ1CeW+wbFSGA/2pgnZrvxFUSyc+kSIaQGkQEGeBEAgagOpYaUE6p6+vSZNWToLOtDAkiUOZHewMByoWtLge3qLYgeckdvECI6jxuRMhABYwAQ1/Dxng2KD95obGxBUQ+AgH4F1ouLSwASbL/hMDh5+jRVZNHM42gW3bToTSwmEkYkdDTIXHpXJkhP0YYpoB1dQqDXTtGsSSmxJaeGipcTxJVi8fjx4ygb4YRYUfXpKR7Ec4alFTcdt10K6K/5kp2BojgMirpxfYRijILAE7MRcdQjkvHVMBD/ukEIyCA0wFt8sXNufgH1CmbxhsOg0WjGOVLMcWQINId4ehtEP0UYADAoI+YYf4WUcCJgADbIhXonEhDkMgBAdCLZx7mzZ6kyhm8RlIAVWUHByeSY7I7dRmblQlUJNo/yoQgA6h2dIxqDQwgRHSMjo7B1lcBGrxUhQXxfR3E0hgHJtABQhEs0oqssbywMkM/UG3VarSlBV+Cl6Y4S/H0kh2uE6YHQwMSgkjTbKKBCoNQM6A9HYrKIwE70t6ZwWIwnklzqiJ5yDNq1dY5eTc5KrCjA47M40RVDUzJrqqnDlDACXDcUnyTv07NiCNl0w8KwFFq1hwqcDugNHY9Of1qMSi4QGc5VmwBhWMwLAAgyXUREloz8GI4X+99YGKyura+uleBnoSjRnyEQBEVGIg+XH09sg+JZxW3fo/UmEC/2RRdkUf3hPBV7DMMGfJAEJfbR7QpEeTSAAWc1nepyQuDlQOBpp8kIQeg0hfZqNgxoCXBUFmJDj7MwLP6HK6vV6opMFR/CQXRjG2xw6Jg+9HBRAGUHSxiI/NbV+/4Uh0P6o1Yo8YABJ3CKppquPR/9Cdo3FgYIpOA7mdQQHiWRl2VJliS6b/rSWyWYFA6OAQAYFq3volI8/gl7YikAQSgwfsX+2EdBQD1CoRS4enFODu2ADUwoNcPRojhDt9uVkHEoVaILcTgQG4o0+CdOt/KFPHQkZgDZb8RRj+CxIqZ6hLOwkzCATQRUQkZEi8hVVYY76kRv+nljYQBRws8m1FhjUE6pCUWFKHtzehVCEghXD3uAG8AHrgvuCg1BjGo3z4fzInHSZUEiumfOchoSlJUrQbPISyQeuArVcbhGmXW7DO/FL9zn4/dmkbgRT4CyBduUZRGlIb7iAOzHCNc+PcW4RhgO84IfxOhk3qpCf3gA/8mSllDg2AjdePJvEMKMoR6YtUJ/BYKn9zbK8Z9FoUuEG4QjMb34FGpEl9CwH3EE29hKcBLaJG/8FCXm0EDaSVBgL5diGbWx6hQv0BU2jtJ+RW8LjTVNDFnCAD1EhoDB6RYD6Qf6z+WyaCBxMKPlregT22sUZROR8ImwA+PGv+AfWl8QhTo0gCWAgLd6w2EwMjQ0MNCvKHIqqYFpUhy6EfGSZZYg5IWYC7iHuDFVTAY+C3OjNSWSoMDMo7VAEAlaEZy0pBKyIUBiOwDYHFNgTLd43utUOM+gl362S0x1QWSRVhFMZAo88OPQG+U/gU+PdEowSloOgM5pAbBMosR+WK6aUJEQwFgwBIQesxqzDSKp0ypVRVNUxDnwm02l9u7ZTfi87mvX3wvKZjNJTVtdW9O7OgQdK5EVVbw0jauE/RuuFjBlMtloRU+PABQdG31wOikyfBM8BTQuWiYL8eIj0NIyp+GGwuguTcskHDO4cpAvnkxKjKZA6IAtMqIoz6GSBRgoSjQApTfX84NjMBDCmB6tBNQiiu+qYj+QwImYVz6XpftUIqGIlPkn3vvu977nx9DPGwsDyGvLls27du6EfB3X6XYNSDT2LfGcY5mCsDOuDIBHPp8jC38lwpGUNUZyRCc4HfIiT8SwdEU5dJu6LRemCgPjbKfUvfBUxlrNJuCsNZwCoOBXcBZd+Yv+pD49ABQtt458DFHMDz1ZIdJ1iwYS60gZIPd4i+NxGPqC6DNaEscgqEyOj/70T/7Ej7/33cAG/feYe6MReJ1fWDx89MTps+eWVoqoD6LFFXQNFfoId1ypVkwknradTKW2b9sCWeAUStPj2VxtIEjDAqJrr3ThD7ujDysg9PCeFZrrHc6dfLjvbT/bWj1tHv/CsFMeSuRDNhUwVvQWO8rxLcsEItlsFuKOB9oYC/+hN9gF2Yplzc7O6boJO+zr6xsYGMDhgJwwie6Vp1RlcnJk765dDz34wODgtT+w9wbFYINK5cqFi5cuXJ65MrfUaDbhozCrcqXSbDQgDhhHPl8QJAGq2pM+phS5fpINA00mDGzXsS2b0HNdoALBkG9CUSAEpiU0+KHCW95fXznOrx3p55wBKW27GiNYvk9XomAB2CaTyVw2ByWA9KH6NEwkOPSPyA2sgEiG1lN1yqWyTS+rUvr6+7OZDMaB2eVyuS1Tk3tu275/352I6hGb1+iNjkFMmFWlXC2VSktLy6Vyud1qQTRgHnESGrmKPZ0OTD7KVcjbbmgohVROjNaqtqInGVGrkZF1u124JC2VtF1ktWy6f8SxdcY1NOSMLIIN43t0rQkxFj4xQjqPzAadYlxZQk5Kt5egBFBxsAdz0TRKE7KZtCLwtm1haIToXDY7PDIyMjw8NjY2PjYKc4mn8zL6h4HB9US6GYUC0nVaDR6cPH3mhUOH19bWqDyLCrQ4X4LrQKULH4RpooCDB0MSC39mGnQLDBIs9PdHKPqJhIKfcBgyL6gt8i0CkmG6nS6gRaqGBIEAjC5J8SzApD7xFaNQ9iPLoyNDB+66a8+u2+D3TdNAzAcGCMYIzsT0d6V/eBi8Iq2XSsdPnDxz7nxxpWjaNmJlJDI4IsopIQuW4au1SreDqggAtEFw7X0D/VBegEB3F9GKsnnKWaI/qA1qt1vpdHp0ZDR+Lg8dRtUCMKIQk0ql+gqFzVNTO3Zs27Z1SzpF7/V5HfQmwSCmeqMxP78wt7Cwvr6OQFKr1qzoLhtiImYJE2k0Wp1Op1FvWJYD555AvpjPQ65wXJR3obCOMi5gEKUFZEw4ALKGC0L9DX3PZtNJLZHLZiYnJyYnJgYH+qmHyEReN72pMNgglLLAo4LkqVqp1egpCogeTqrT6a4WV6vVGqK0oZuQNhQZ7gIGEF2TYFHRAQZ8UKbBfaNe6e/rT6WSqWQynU4h6ubxyWexAybTG+ym6c2JwcsIWhwVHPS8WGl9HflV9N0xDBO6j9oqTi7h3hMJegtA5OGpwI7qdCqzozrje0U/EBi8wel7CO8P6Qbphxh8/+mHGHz/6YcYfL+JYf5/832f1nCTXh0AAAAASUVORK5CYII=;fontFamily=Courier New;" parent="1" vertex="1">
          <mxGeometry x="560" y="410" width="80" height="80" as="geometry" />
        </mxCell>
        <mxCell id="RWeXVQ2_0HFQkgd2XHTl-30" style="edgeStyle=orthogonalEdgeStyle;rounded=0;orthogonalLoop=1;jettySize=auto;html=1;entryX=0;entryY=0.5;entryDx=0;entryDy=0;curved=1;strokeWidth=2;fontFamily=Courier New;" parent="1" source="RWeXVQ2_0HFQkgd2XHTl-11" target="RWeXVQ2_0HFQkgd2XHTl-5" edge="1">
          <mxGeometry relative="1" as="geometry" />
        </mxCell>
        <mxCell id="QzGDsle8Kh0UcfLWFKWC-7" style="edgeStyle=orthogonalEdgeStyle;rounded=0;orthogonalLoop=1;jettySize=auto;html=1;exitX=0.75;exitY=0;exitDx=0;exitDy=0;entryX=1;entryY=1;entryDx=0;entryDy=0;curved=1;fontFamily=Courier New;" edge="1" parent="1" source="RWeXVQ2_0HFQkgd2XHTl-11" target="RWeXVQ2_0HFQkgd2XHTl-6">
          <mxGeometry relative="1" as="geometry">
            <Array as="points">
              <mxPoint x="220" y="390" />
              <mxPoint x="270" y="390" />
              <mxPoint x="270" y="300" />
            </Array>
          </mxGeometry>
        </mxCell>
        <mxCell id="RWeXVQ2_0HFQkgd2XHTl-11" value="" style="shape=image;aspect=fixed;image=data:image/png,iVBORw0KGgoAAAANSUhEUgAAAHQAAAB0CAIAAADb+IFwAAAABGdBTUEAALGPC/xhBQAAAAlwSFlzAAAOwwAADsMBx2+oZAAAPPdJREFUeF7tvQuspddV5/m9zvt177n31utWlevhshPbSew4TmIn6dCh4x7FSasJw7RoCB0mEhpNZHkkZoSYhBFICAYEEhIEggQkICEkJBB0yJDgJB3TNnaadMd2HL/L9XC97vve8z7fd77vm99/r3OPyw9CUnHFPRmve+4+e6+99tp7//faa6/9nXOr/DzPvdfp6lAwfX+drgK9Du5VpNfBvYr0OrhXkV4H9yqSogUojuMwCr1XCBxg+bz5LnGcKb0kzKDOyr5EX1L5AlEhganWqVzgu6DF9SG6LK83l88zJKd8KdnlmwpXVDv3u9vE9WVdZFlGhmwuRWpuzSjlWYY8RZPJspS03W6HYShV3wP53W733i99eXNzs9lq0WMA3J6faibqMQzoXyMJQ2xcGfj8Mh7eQh9xTSPzMk2NATKiwGeA5LI8czMg9YIwyFMG7fMbOHjJoMIPApBFhU+nkwla4aDCdZH5mRcFiAsRpjxJU5q4oYlBS/UgJfxIR5plkyQhH0ThhOaSQjE95ROUi8imzM7l6U1TypKUEaWw1WeaJpMzp8+84523feQjHymVSshcMfl/8IefeeCBf9izd68fhCAVhhFMLaCsw03ELTlzJkuGKSGWpZob4iowyTyj4LAn40V+hLY8lQ1IRPbi1skDNWWEu+vdU7V6CNEJ18SCQFNNJ7Z+QKZh2KCYPosvhZajdw2EFZGIWwbeqQHBXP2jRGus1QI9jTEg4wZMn2qkRdBYE71hASxhnj/99BO//uu/ftttt2mYV0r+R3/6f55rLzLsYqEUFULW0E010Og9ugFhmws1bvgsr5sugirLaHhlAZAwbpgOZVl8ngU+cxagWimknDohBdfTWmJz9JFi2iwrs83TSRaLjRid0FI5YSBg8xQoVOP0aR3d1kHSQezGrDoEEKTfSZYOhbANWigjgypgztmWGokbHJjKYidJoVQqFks4yDOnTt5zz90fuOuDbrBXSP6HP/yj+w8ewV5WVtcurG4zaH4C7Jc+GYszVGdnQoeZOJxdU+qZkyEeqMT0nJirUos8BFkB5FB1HPBwDC2AbQP1o3rsH33YL3tf6+BeIT275XLNpEL6RG4oakKHKtJK+1+jlTlQpR4EqOuZjPqEqe7RxEtmREEyDn3UVKJgz1yl3qicPfnc3Xd//K4PfUiNr5T8H/ux/2lp/yHA+c//5bFHnjzvFbAFUILh5kRi284PZAriqdYZF6TRYbBw3dgNFZkqQmouy0JSEKkK4OGoTm2dNsm4JXKEb5aYmJiyNjsjcaq0fEJYbe2gcXKYouBz689IlNUQsGW90UJtJayzwGXEcQbgVGidnR5mEgRRMe0vVZOlxcVTz528++P/ywc++D2C+z/+u/k9e/0seeDh5x47veFHBRuS6twWtvFpnm4PAoDOGBmpJu50KOuaONinOKiN5sFmt2lp8pq7WjilbvJqxE5RyXWEPDYsf8ILncxYDoQlkYaplDM+9aPlIg+U5n10rlofzmu58Wt8NhJx1RM4OmwNXzqlAwpp4Beyfrswarfnz54+fffd/+tdd92FyBWTAJjgbJJU9uWsSlPU/lKvSjVcDXw6N3GmzN08v67Wxu8yFHFl2q3OQ2o6QSGPSnlIGnlBlHPicVwh7na+YgK5bJx+lIdRRhgUhWQ4+HEeHIueDsmCO3URKHpRlAUFLyxkYTGPynlQzsOSFxXhYP5qErDVaEtfWl0mxgqwaMwzDbw0DHhxtsDhxbZCgGXlmFbEMJHDUKvvjWQPqMPBy/HQs1OqLqe1DjqhRX+CQQeeLFPVkBZEs0HCzi5HDna10k41/BRFERHRD9FEUCjxCgvlLKp6hbIXFcDaRQ4K+VhfD6cfRnL9AEQaBWwpYVco+8WSXyBT8aOSH5b8qOijrVj2CgI314s1MEz1ckA7Zy+0MFwHthLWTIjKSYAvDMascAxXI8fi7Ol7IhTK6Ka/wGCGxw8j4UewyiFpbBqKETiqboqglKjKqpmJdrZtX+fMnHaODU4MrSA9OGumY5lzUKgF5YZXbnrFql+sYIZeUCJgU0AMFiH2W8iiYhZFeaGQFUpZVPELNb9Q9Yo1r8SrnhWraaHCi4yHhgL4lqQE5bzCUhAUgZvglxB6ijtTAHUHsXYDgxIQUz+FFSicMIS+B6I7ekIPqDqsZCyOAy5CiulFPluPzcg2dBtNqz0VmK4AoRBjEYaKx4S1diXQ2KJIDCbVzjokSHcyDVICJvXMMEqVoFL1y4283PIqvBpeqZFF5cwvyJhZMbqWReMKCiAoEy5W/GItLDb0KglxX9BX82JFNo5pF8pBRIaXXE0asg+wZXYas+RHO0POXXuOwTJATYKgl8AtxMN8bxS++c03s7PIXVrrrG6PAnafsKYPSGur7p3vc/uUYcn7I0MdzZk2RcNYDWWvciYqOLuQkim08ufMycOu3QKAl2wcvKZ6XHP00ldBuPjFKt5DIEYVXIf6QUyOAo+Mw8XzljwMswiCRVYdh0BRjkKjZeRuAJgFoY68OS+5gmlfHk6fKNth6jYfVUE2qoZJpVjq93s33njDwkJ7Y319dXX13LlzZ86cOXny5FNPPfX0008//PDDZ8+e3b9/f7Eo6P4p8n/iJz/CmrNaD3/r7KNnd0Jd+LR6rlbz1Hyc8TkUGBOJdo8OdFUYqjIFFbTyKrsGqMHpasyoYI9rSwgfWbdEdP/SzgAI4CAPatgnPWFlQVgMo1KAnWpxcLi2JtLpXqmURLbxwd0NDF/C5uHWkYyDdOxNhn4y5IQqR3kZ9aCXp1GekOr6R0CdZUUUaJz42pR7Z56OIj9h/QeDwZ49i7VadTQYFEul1txcr9eL43hjY4PZMMxOp3Pdddd97GMfu/baa9X1K5H/Ux/5KXwZrvHhJy88erYXlCLFjEJJm8TZiiHFTtdVFdWCxbU12J25RbDIyxKpAXyJOSkVmLrj86bWQl+Aw0RnpINLGkjRKDcluAEX1Niz3Iida9aB5oeFiFgiKHGwAlaoywHKgJXlEU5uTBxPE2D1kmEe92vx+oHRs/kkmeRpDOgcWCnhgK7A1Upl396lPJtMJliwxzt3T26/lHXGC3PJkgHfhIgqTcfjMUVqkYGzvLwMvu973/tgvpzCt771VjlGL7u01l3ZiT0OYhcPsZs0Q60rnnd6sFJ0DNmQQSecNCN5YXHk0VSUHGJhAevT/i0UAx3xHOgc8QXOKM/nTMfosBK3f6XfISsnKNB12jAS+kEVI9GSgDLdRBxu8hKcXaWGV1/I63N5qe4rYCgHhapXqmSluleu47K9YrMcjosr/217az2bjONhf9TvpQ6Xfr/fbDbCMMIkG83WeBzrgiw0dVVzAZl+eI1jCWPLo9EI4yUFYsBljrR98MEHSd/whje8/ClPePPNtxCOou3S2vbqzljRj7Oo6Ww1T2bK/LELXCET41iTv7OTDZgwMWCSM43EUSyDV1Fbg0NeWztXL0Apc8SHxbpfagRVQZAXq3lBUSpRFCcn8nI48tscMpgz+GpLC3RZtw5VZPSASQeOM1jGgHeutvzKfK7Ao+6Xq4pAas2g1g7wA6ceiBibF4BgpVoLowikms1mAW4YjkdjXCfGDApGik2d5TIPsNYbv5cRRVmUI1B+5JFHnnnmmWuuuWZxcVGtdim85RbA1SXn4trOWhdwdf+VFQpcZ5egA0ZS5xJwcy21ZxWiFjlAiOr9QiEoVRVIYaqYD1FRQXFVwIHOxqeBIKc945m62rxQysvVsDLnV+e86pyAKDcVTmGGhYoX0hDNIOsWSU1pp6UVxFpUd9ADLu6Y00wLie6iVy551YpfAe5K2miUw7j53H2KAn1fIKYpcyoUCjjNWq3WaGC8IYbM7ECNWogMbkM/7jmQYQ1ZnhQSAvQaReik+Pzzz3/ta1+r1+vHjx+H7xDywrfccvNEppuubPTWOsQqDggF3jp3gIIxGcGkxrwnL+wq4FKQJVwQFHOBHqc/Jlys+eU6piToyYNUWXGoX24G1fm00iLSCgi2ylWuWEzCqSyAI4e+XyIUm/Nqrby+6NfafrWVV1BVlx6LatHJKpqPBlmFDXLEGqeMQN6DEcvP60ocepVSJe+WvvmFcYLNVrvdLlAyC7Y2+JIvl8tAw+ywZWYsJ8uP/AOGLI9OrQEqtByRt6J2A8bmlgQZlN9///07OzsccSwbAuEtt94a46mzZGW9u95NFG8qNFFAIMenadgGV1nmo6yMekq6CGA+yGBTjC7lmPaTGNBDb8K5rHgWeSKqUjUoNcBdFl2ueWzh2oJfWwrml7PmYq5N3dSOprbAbaLuVec98G0seM0lr7HkAXe1nVfmPF7VVkYUjCruHWh2Bq5LXRAmRFOccwlLHjuYvaB7sfzUl8Mo7PX6uEWzTXAZDod4BsBl1ACN38QGbWaGndtqUxxJgQ9iPSyDGK3QY0ccRZhoJkp7/PHHDx8+vG/fPh1ow2RCHLC60VnbGgpNhVOIs8Xk5tzBQp9acLEdyaQFKCbiIkf5STYpTRU4aRlk5pKRNPetbOJN4jwdB5MY0DmY5V6iUoiBV7DKalhseiXwbeWNea81F8zNec2G32gEzaY/Xw9ajaBez+t1v8Z1jt3QyKusE7Zc9jA9NkGjHjSrrXbhWLt0uB5U217XDyceV55iabRefupevG2pXDaDZVQcUBgXaM5OISyXIpkZjpdnZoSAMZkW8mAtHHbN2ej8+fMPPfRQpVIJb37rLaNxDCJrAnfA4gs7Xcbd7QVw2FxYJEDKMTisDDstgrygTFsXdJ3pLtIwGadFxk5WL3tDj1bNeRapyOI8GQVpRn/OJ9NEe5wIFtWECkGp6ONDK4WgVio0i82F6MBC4UA7PNHOq1U/Lhcm1TCiql7w61HUKr5zKWoE+al6cdgsV5tRtVqojtYKj3+Z4Q1Ho2q16tyrj8Hic7FcWasG52HI5IHGsFPGuV1D0+Ajw/KQaoYOXJZKcO5a9yyzvb0NxAIPVRPd9/TxhrsG8u5k9EzLnuW480fxmbNW6qh3ADnYnD5yflk+17WGKzEjjVafINjTaT10Ii/1EyqxYi8ZefHAH/eC8Y4/6Pj9ftbppL1BPoqz/jjrjCfb42RrmGxPetvhmV703CgYZv5KsVhthof2FE/s86+bT080k+ubac1Px0M8klcvePWK1257e5Yq9BeP46WlJfO5IAKyHD7sYhugpvBychbyklqcAMtjrRzCU9ImdUQeMVsnfVIADHLczN95BN54uTxA6u7gHtzplQXF1MWtcDLizSDUtVLnSSXQQz9uU7plucu70yWEtUIsoJwvGnVQuOdqOjtiL038NPMm45zbVDzI42Ge9PNsxCGhK1Oa+3HqDUZBb+T1k7yfpIPJBMxHwfoo3J4U15Li+X7hmV7hiVHxsXHxuWFwcZDWs/TfLBR+dM57fzV9dzU/URhN8qzZam1ubuIKABQPwJ7FM8zA1drvknGc+UxpytnNzzIOVbaryGCdpXgb+R82In0grb2adMPJTsQr6RTGO6V4p5x2C3GnlGwV4o1ivF4Yb0SjrSDeLCadYtwpJ91islOIt6NkKxquFgcXioNLxSFi68KLcQjK3bGAr16cxRO6dIacClw9h+SIjvMsZgvlecLp6y77LAd8CTvfrpnoOQ8+JOO0YodJ5SSXMjaYnwYEO900G47HJwf52UG4kRWHbDduL34IsrgCNjVK7BRi8tLoDG2GMmSbzi3/CwC7GpHljUlbYLUMNEMWYv30bYVb3/rWbn+IFW1tbCy2ygvNaKlV3NMqLTXCUtZL+6vltFOcbBWTrblwuKc8aUejhQhTulAYrpTG66XxRnm8xqs0ulgaXizCHK4W2MBR3YtqOBlWzd0IGJObB4ntHVJ3HaCKHGKyBD2UIdKq6Dh1YjDdfYHdQKKjIA8UfpRL2cB5ejRpf+ld3mtPkjR6vfF8w+bK8TzZXL3wwBeISHv9PgaLkRL2s20BGs+AiQEWcNtZxwBd9GWe7AVXK5bDFDEUgyljQ1uxUMQvW60RMtaw3W7rFCKCsIpSobh84AAt4/FoksR6uuG5TxOyVJ+slhdHjRPx3Ilk7tq4fSJevD5ZvC5ZPJEsXBfPH0kWro2X3pgs3pAs3DCp7vXlDfiRA3fP3jkyiYVlpEJBeYzQuWGZIFGpLEamTcqgCnieUFbkB4rm0DL1K5gtRmqfGJG4Hjj60EAOAdYztGdg0gSXMJAoFFDm5+fNcjnWOL5AFpgMDtzoDEHnIfWupXXIIkCelCJtZwGG1v+VCGFrG976trd1Oz0KnU6XM47hcIdeW10nKuRerYuvgNAzqOrRW/fe/L4noxO91vHJ/puyfW+a7HtTuvem9MDNydzRpP2G+MDb0sUb0z1v9LxJ0L00CeqMS8bGQNSdrMvdowjviDD40eNHBQY6LVVCmgAtLFT0IAJ7dq0wUMxQN2JknTqSZjHr2RM3mS4IoVqWvOgPyuNBv1ELvAzkCAWSjZXzD32RmxhOFs+AxslkgqmybYHJLNeeFVjeHAJksM5At4wG7pjowYNHhcjETMYyJtlqtfyf/tjHLl7aIPA5feZ0N5svNxYGFx4ej4dBhEsy09PAicwbt3z4jf/igxd2skIxSGBkTC5jD8dedP7Senc8ecs1iwtB/I8bWfrs/cGzX00Kc9Opa3fbipLoWuWuv3ocoehNPD1SkJeIuFJX/aiqe5eeZbuHCdwRiiUCVq9QYrG5hUVhdKhV3QyigYI1Nr9wZ5TlKDjk9UudXrhYH2UTPHol8uud1dXPfarb6y8sLuJ52ftsTSwXCEC8Pd+epHqOY7Zs0OCCU8VP2tCAPuW4/T2zcZQQflTKFRYGLBAzQgwZ6AA+4JZb39bvDViOzY215uG3HLnxdm/n+Wq1jIdy5712H+CCTdy+ftw65iXjUZKx0D7XAjJxop7Hw05/+P4b9h1fiB5ZHceb58L+2qTY5vqUl6peqelVuSMo+HcfNNQ9PV5pcDP2dCNoBQiUm15tMajrJhZUFwIub/W2X5/3a/NBpR3o+UMrQEl1zq80olpreXlxNLeA1/Sbdb9V9xoNrhiVheYbW1GLFTu6vzjXrM232kvtatK79I9fqdSq7EUQMYBYZzDC82LLmBuIY8ik1Iqmxjp1oJdnmCttyQAIi1EoFsTHCC8zXpOkNrz11tu6nS4gdrc5UK/ZKe3vnXqwt7OBO2T/ufNHyrC5uHWisOcYYV53ECdjgE2HaRYT5gT+uLtVzOOznfSh871hPCruXAri4aSx7AuUdlBreyBVmfervCguBo2lKb+xx2vs82sLXn3Bbx/0G3vDFq89fnNv0NxD0W8seg1Abwf1Fi+/1gprzahSzevlzUItq5S5D+Rs51IpI/qpFW5uYHrh+txCWCoXS/V6rRL2dlYf/CIXJaDEspg5uCRxwsbQieQCUkDHHZMaRnq0IAvexdiRVeE6zLGQ2nmoi8auK5khSyqfjnU6NTpe6o3qXHup0ZybazXxSoLV7WbtXM970+Dkv9/82jv6T7TnkqiZjHur4WA976/Hm+cb/nh/I6v4vXw4ZphePtaFS8eTXKS6JX5CHYeni4Kdty2lofsMUR+hhxzYdKbhcfqwcJOYo46mbBw7SnZfuoywPxOPUy3j1x12iGmPVcL0YCXwnTU5Z4Swp42ap1ilwQdRaxZHI7VzVmzQaKi7RNFkrAigUK/Xw4FYq1ckc38QTfBWplUh4048XtnaGg2GWZIi5MB1chTy/H/Iz/3S0sUf2TP5V//qxh/+4VuWDizvPbC8b//+pf2HC3uP9RpH1qIlv7UvmjuUl+d9ISC9zJBjXvOUA5c654IVYXEZwbEiom7ogXfGzHwyrkDJJB3LAOx80AydBeilY0wnH1yZhDsY3HdDMDw9l9PzR+fP1EpHJlAOR3KpOATGZAGZG4KANvguTyGNxSFIaoTf4EgEWTLGARXIjXpaJKVoJA4WCpcRDvLozvHzPx89tVgO83I5IbynkeuPeWdB9A2v/emV+gOrvSfv+8KF//ofh8P+2jBaH3oX+/nZnXi9j30w1HGajgIck85vPxAa7BrA5Z6CB6FItzJADgkbErOTTwcgaq07iVCYZB56EFOqa4XclHsBYqi4S+GXpuFCriwbpOGFWCZW8LNynlaytBXkNY/ActxqtuiSmTJfTJk8yBpM1ikEIsq7kbuF1CghE7AimRnnBRAdkSed8ZHhkPaZvRSGhfbWpYMXT477o05/gIgUIoW0lyeZ/83mdd+68f1PEguf/cqBk58bdi724rQzyQZJXAjygj5+JMoPipzwQodRpvosS5tSnwZy7nlct7JJnuKu2fjjjA2ixwuADozsccGtTa5gFRD1ca86dyRblbliB2SDRtFhoadKnvuyasxNb057PStOkgNRMldMorLX8/KdSVYqlIbDAVVMHkBBn8zsUSH9zYjuZ+SmLtKWcT50aXFxcWGBGAsmwgi8QC+M0212R+QZHm9hOY3vO/D23z72b8flynyNM1S1uoi4PVgIiWsam4vHh0E7XNtJznSbWXaklR2p5+2ym7c2J2uV7i17NSaJiWbCNE+wpbHuKRjiRA/X5SHc0ulBex7LH2N2QZSFHq9JVEyLVRdO1PQskVe1kTYaab3qNatZs5w1w0orPNHIj9eSw4Xhwbx3NBpfW/IPTLx0a9wb5utZ9B8Hpa8OSg8NwocH/ukecRLhgT6PMVhBilmZTxCgjiwDX9tKu2LKMdIG5E4lzyuzn1UIHqNdSGdMmoe333776vomhd7m1nbrRK99MD75D9m4xx1JO9e8JFYUBe843nrXvvT24+0TNx0tt5f+62brua14fXNnRFDcXcv7m3peO+oP+8PJxvmgv55GdXlbQjY9C9IKqWf3eRopmhmwwthiRZ8kFmpepa7nufrwoupxQysR3hb9apGrrocfJezWdTctZUl5MN5eG0y66XCUd3pJp5+OxlF/5A8m+aFiPkwnz+ThpO/FnfFgJ5uce7588u+TdIoIgAIrKOMcMEaLFpgjhqwzHBwFuAjJXfT1SrJoqODZZ9cR4NNkbm7OIhBTC6n5bkM8e3jHO+9Y3diA093pRIvHWkt7Jue/US1EhUJxzLkPaRG8MAqvO+xXOmuVcnr0ePHMs08+2L82ah5+5+G5uFwbjFM/Ku/Zs7BYb3T9ct5fDXfOAS59AahuZe5zcn0FBhzL+kaMIgS/qO/CFCt6nonbBUrEk4Gf9ILJyB8PvV7H6+wE3Q7XR6/T8zY7/vrOZLM76I+2B5NOfzLsxckwjUf5qDdOhwOc6HY/3+ml/tYw3UmKiTZPuHMxfPzeqFQ2TAmemBPOgQwhBGSIwFF+Fjvt0hSvNA0Lc4M4xwjG8ajgxeyA1twcSgxcSSpycbg6IoKW5a6srwMB5+D2+vls66w32NkiZhiOsDTsSx4XFxh4zcqk31nrT857pTOl5uAfO28O/dbPvL11aRSeWuskaf4vTyy981D10bVRsnk+7FxISi0100e27ltyevqOD+U2E3vZmFiR+0iY9IO45w228/5GvnPR614K+lvBsOOP9HjXH5PZ9oc7WW8r62955ONeHvc9BWpMJPFSVCk4427g44fivBvjZKM0KaR5wJU9L0a1yWb95N+7Rzv6OAcsQBkaDAbVatUsF3TsOZl8grNWS43YwRQ9L8KJRQV2YMIAuCvOwHUy01ZG5Lkch7ffcfuFlRUAHPT7YTYspr1Jko5jPTB04wF2GR8NykH6huuaxX29or8yHoxOJu9Oq8vro/jiIODGNlcrjWpzZwbecJwUty8m688l7GQsh2NNjw3HAnEoEP3uWtDbCEbdaNzx4kEWj/zJOOToU0+cgYmfjHM92+3m46436nkxKPf8pO8nI7y2zj1cuQIxEgaoCzRbQ0+H9FhVnzgRO/t4lVop5346XCk99gUO5HKl0ul02PtMjaAKXJAmZWrmFgTuru0hA+IKkQWZ4r3QT4thFvlJoC+YTPBz8/Pzl1uuk5wuCQ1ZufD2d95x8eJF0BsMhieufwMXwkmatOfmms0m54CCf7ldmW+h4hdapdW10fnTY5ZjbbMSb15aff7ZbPNMvn4y6Dy/fuH0yqmnSztn/M1ns+42d3t9pyiNgyz2ZWtj3BXj8PWFQ309SYaMZk4PTI6DbqIvIHmTAViTzzFwDASsZZ6Cnim4j5s0HndUC1MtveIxTFfHg9QTMus7jHqeBlilzVOVJ78clirE/2a5QIAMdwrcIpsXLFCNWxDuu5YLXZZRil8FMiJl3DUc1Bu4cFyt8x67hKTcwrve/Z5zF84zKOJjohSuwqPRcIIK/Wjd5Bv0p1JcfOoba5NTz3XW1stnLnn9S2fjC0+ll57KLjzubZ4cX3oyWn2yvHkyvfRkNljPwnoWlFy4ofuYpu3gUKzCQLTLCNESBQ9gqrhCURpWGcgoeYFm6oJGfkl1kaGtVtlhB4a+HykK5gxXKA2Q+kMsENCfGhGiJLE/Gvv9YXXjWf/M/YQqUVQACDu1sFM8A3nQcR2IY0ZtGFkKH5jAjYyDTDyrYnkAFwQNXCP4RlPLfdcdd5w7f4H249Fw9dK6u4EkY/dy6yHCMJjNoHGss/ed4+b1w+Z18fyJ4dw12eKxdPH4oH39fLn2ofrm++bysndouXWglEYXCfuDsjYvmOiGykDpXMBluR4TCwVdLgQHtbpl2McP2uvCVMuhvu16Jt8vT6DIxQVKsPEDsno84ETXlkmc6VIXY4T5sJ/3NoPeJX/nUqV3qrz1FNsFg7HDHVwgTJVooVAAUM0RQ444Vy/HyGGpovvRUzJ9wczqdGklWngJuEZUA66ihXe96z3nzp+HNR6PknFKVEAz5wpkHmZwzA5LGe+/NT7xw/7iNaP2kfe849bm3mOrpWW/fWy0543XZL3/7Z17P3DL8Tg/ftu/fP+lZ1efGKzqaziyQRpr8aVGGoHM0NNLd14LkFWvX90SZClOUPudc0oXMdYIMd04hC0a0KuoWcYLvrox4z1Atu9xHvY3/d6K110JBpvV0XqIm/L8VmtuZ2dHcw5DXAR+zwHhATrvmFQBoyZA1MAUObqJcxW0zztUdsjonV9W4nK3YGTAG9GR/7//Hz/30D/+F4a+tbOzvrYd6gs3SOlgAGbhIWAmHPqj4x8cX3cnAd8gntx1w55bl5u/88CZztAnrjq++c3/ED6y1x8/uFmo7Nv/2FPPfv3S+awwJyBpz2AZqHMRuCptbgcspE9meHGR0YScDGeRvndf0Kdf4juQNa+CTlj76JO7V7HMPteXl6bfrOACLPg59MKYc2+skA6v7Wfz2XZr85FKvc5pxoTZ/pgV6igeOnjw+LUn8AZoZMnQx6VfDjXVnQGbgPCw8tJ6vsuvWTNud0yn7cWldBL3ul1glaiERcANAT2W++5zHGj43H6vUW+U5eLLzUYjisLxOBYobtCgkC6caF1z44Fmcale2uyPOWuTXM+nW9XCWmfcPH7jyrH3nG6f3vOO2tdXnxidZQbcX2VxQlKJcNbHOFbmjXfmpN1uL0RUVr1MUzbrnuPgWHEaeGHy5kDkVRQ5cPXCcQvKkWKJcTcY9RVpjHuAmycjzsn5II5Gq/1Bv1arY7myRN/H+4HI4cPXfPSnP3rk2DECifn2/Nx8++jR4+35hfl2u9maa9RbtXqjUq1Xa7VKtVKu1sqVGstTqVbL1WqtXm+1mjH7fThg5M5wX2q54R133HH+wor6IxSTmWA68vSsBV5JJueYsrL63uL8vlo2COJhmMbPr63nSb/gDQJ/NNm6OD9YDePe1taZZDhYObU6WgebosNOWNE5gMlD4AGcjYqJ44QnxyEsBbm2jTsyFANNAn12R1FOGZ6a8AvDz6gCVuIKxRLJMB/3/bjPvYOx+ZO+PxkRL4EsYpW87w8ulso1+8IS08asmCAmvP/A8jVHjq1vbA5GY/hdqNfFORCJyvYmcZLE40ks2+U30xnPWYkdU2LQ5WJhhAG6qxbNzTcbYcUG7rvOX7ggcAeDWqPupuuhRossH+TAdYY0XrxubfHmi6PC2qR0qZ+W9zxc2fP888WnLzWfyJIzZx5ceeLx8+cvdp5+ajPbCpg2lzbX1FkpGAoXLo5SJZwFkqx1V2SX72TccecCAMajaiJCHYskAJ8zN8XOuFrCNXBUpCz7TYd5OtJXTKhSABf7eVIjMh1tsG7Fkj7xlZXsxgZLS0vzC+1Tp06fP39he2sHSAj2m61WzGkOji7mcttdKVkHmxL3eFoPzvVl3dFQkzFwHTnhjFr5ZhUJSr2MtU1ilOpDJf0LAZq4DEzzJ84pNOrzi28+uPfQwmJUb7b2pYcPJW86XFxanoxrXe5bi3PlvbVWFM+nI8Id91dRDiw99gYU/cGtM0E9xAEaPR4jBA7Y2trdwss9NgM7ISsQ9cCMXc8rzTl24lGacEPremPSjm4ZI24ZfW+MB8Ab9LKxONyFs7G9uImMwIjjo1wuAQPhkSbkPlvEM4AvBsp869VGtVIBWaocmvpLYBIHleBhSJgrL601RVXA1lLLItz6681lZqQIx1ZjkqWNRoNelddDZYfsLglfVUzmg97+6oTTZDJKLg26xD4pC5GXk9Hw3W85fM9P/+tmo5DlmAyLJWRxRJwMvKaPzG2sWk7Q1JOmNIszLhF5QojmvhTiUhyClgTfSnMFA7LEdCR/mgx9zDPGFQyUxoIVJ6uiXvK53J6DeBTEYy8el/TQJ+p0O4uLi/Y9UQ4VRQuNBsgeOHBg+dDykWOHjx4/2pyfazQbzFJW5QzrBbRsA+vsmQYzjmMyJjEFzCEsIk9fgeafZ8QW+Jx+p0swEhWKTvIF4owOI79SDJ4YlB/tF2M/GERJXA+2SpO85HGy1CvhVx54+P/+1F9ubXenQYa8pfOYbsu4l1yB02zD14llDA3G2TW24QZoVfrCrFMCvti1O8cwcC4I7tGwR2ArPzD0uEPHugHC97BxPTXWxYQNNElG8XhUr9U3NzfZqpPJBIjJdHs9dxoNFxfaF86fe+yxRyrlUhgG3e7OoN8bDfuDIabcHw2GoyFbn9dwPB6qOMboB4P+gOZaCUca58vI//mf/8SXvvIVoqGd7e09e/aMRnhxPdbe3toS7po10RNBfDS57s69t35oOE7P6U85eu2lR+YX/JXeoBcm6am1Y6dqjWDuYr+zMp4EnQv1/MIoq7q/CQU73VrRxgAE5DQCI0foRHDmcorD4Av2QLURy0kTxZhUhwCNL8bV2NrIblya+c79kXVcFsTtGP0dNyPPCCeX27W8t8Ks2JdYz+xMQwOXiMOHD7O5FeqyFPIEeAC2k67IiW433BO1/RmpO96FGLV0RZP9B/YvLMwDM1x2oNy0I9YP/Sj3/89PfPLee+9lIp2dHbYI26fX77FxqpUaK4NXQtEkHm9tbY8K7bSyxKQIK2m/vHhkdWO7VW/gy8aFZtzdePfty6M0vbSZLpS9+/+fP9VfiDFf1oeJ8wsGWmftJpSIqTcHplL0arPBd+8GFlnuumqr3cAkpu1ZbPeYQbA612biYpmorm+sZRCGy3sXi1Go02w4smdgzBwB4IOAzGlVTMtaJi5AYk2ZYBjqIRkOCu3U6ltV9ODuZuxE0Dx46NDywQNj96VSh6qIhuiHuKT4v/AL/9cXv/BFxgH36NGj271tQsJSpH/TgcXY7SDrdTopW48b0XQmAS5sc3uzVq90+/3C0pvH3e0b3lBIk+Jgo3vk+LV/9+X/RKSMKDPVYyrhISimKFAUpAwWtiaDIEUzY0QxFweTegu1e2TH7o17I3l0UFJY4bRqhAasaqXEBXt6C3AInV6HCxEWwzY3y8UzcLqQIswPwUOhUOAwdxoENEVwx7YQBinakrIMhMlktAxJsn//flw2YgAtWN0bMELUot//5Cc/+aV7v8xICyXu3QoSiMDcQZKCjgtTAzgFkCLvnue7cedDfRNAD5mYdrlYIjzc2u4ws2qJIXE+O+Ie44J2AemQEiaQAishTR3AyEIhPeQEQV3BSDn5HHAORr1zlOQyS+fehKfObXauiEnpTR24b0jtfuFb+TxfXbs4NzdnPsEJy0jZcAY33QElRxxwMB2Ahk+q5u5DTAQsw8RoDnDI03zfvn3Ly8tIEhGg83K3gLDA/cxnP/N7v/vpYlQK9AxQOLCSQajv/DANOnAszXkKDa9AZ5VqbAfCkeFoKNrGmq4OSprB0VcTFe2BhZ4kCWXpZV85jGS2sjTyiFHH6jvrwXPKh7h+XNkAdixNRq0FEyDLr0g9JHfh7u1KWQoa1SrlnZ1NEGGfgi8DAiOgVJTqPqykSKqV54hwpGYvJpjohE+PjJMUDpYLvoBL5+6i4Qx41zMQ9vlbW1u/8iu/8swzJ92f8dCBLg4MmJ6YBsPTUypHTE7daFcKIjpkoG7SAszB6x7TUGGdY4lqpm9vSAIxVyvhNNve2UZudxlkqg426XLC7mhSt/qKPVvb1lHrLNwlxiFsuAtK7Q8yktfj86mgJsG0z549Xa1WgNJpkD9ldGRQQx4mGYpuyCIpdU7ZZJgN+knpaFYEU5DFLWDCSBqmloIsqcBFmsLq6hqxhnXjNKPWAWvTNsbuICyd8lzGkcBw5sMQXWd6EqrNgIw8224TIBgOR/fcc8/FixdcQ7j6cchLyTSU2O32rrvu+pmf+RlbSHja6RqDoIQpG3VKtUimH4a0CXT6/eLf/d1v/dZvIeiGZusiAzTloIAUxRkfpjpyPsrErDhLUWIN9+7di/GCssEKn3QGLjaxi933lzCiH/mRHzl37pzNFmK4s5HY9CwFvh//8R//uZ/7OVdzJfT5z3/+l3/5l7npM2e6MycA3/o1osiQ8KSGDq6ZFD7CYAefPBwGYwMmg8HuWdpDNIaAIYsAGcjARYnbbN93om9GA3wzgjnLzGjGsflfGU0yfW6WJLFMye19ps38YVqRjKXaX0Fghx4ZEEQAZG2oCKDN7RWBRoatRhWE/Iwu57w24M6IQUOMY1p+sdm+KuSeTRJLVbApcAEjmVVBf6cKQBAZAFWP+jLP9CsjZGxUpBRNjBTOLEOV4UgKU6C64qzqtQHXRmA5ErOFy2kmQMbIildAgV8DUCYPUcRmAWsGBEBbURl3d7Du8BKMyjwJAux9itRCaDNXgDYThkyblDqiFsnXzHKJp9lxUbHIWCFsB4IDzTJWxdymba6ImGnM5dddAQAFbeQJIcjgN81UgRJjpNbJCxr6tWWAQ4ZawCJvENuoHKhTQK0hRC2pAf2aWW4JF1gplyq6aFfdR9xGetTviDjUiJlMm10R0ZftYqbNssmgXLwBgqzfDDIDFEQQhiiSGkazoqFmwmQgAm5S+MZBla2H5V87yy0UC9H0C0Vmt1gsUPLreI5Fvlhyl/orJ6YNgkCDUjKkYAEEBpalFIEMRAxfWhn6tq7wZ8LwTQw+HGgG9CxvfOi1AVeTYaQAHBSioBDyHhVDXoUit5gQZohPKAKI/rj7yv2tiNkCqM15tqnhUyQDHAxkhiy1M6BngJq8pZDxDeXL0ZzlSREj85pZrsIefV/EhT+MdOpYVdJ2ssc6xv7exsgk5WR3fcIMWRAHDor0YRnEYDIAahE2fClaLSl5OLNWhiPpjKyIgOVfO3BZXkaCYankQNwlxmWrr0/QnN2+qPq7JA4rpgoc/X4f7EAQQqEeidnh5qyV08zwBZpZkbzVzo4+Wx50mnLD0WgGNBn40GvmFgQtg9EDGBuSHbiMdRbiUK9PiOAh79pdCaEZXaAGKMPhEIxs8tgmkGGJFIEM3BV+6cGm+0fGd4MHiFqKpOQZCapmfgZClWUg8jM+9KIA/lWklZWVJ554wpYdYNQH/erD9AwnMBqO/ugzn93pdOE4S3VtHAGFQcngSFn8N73ppn/9/jtxw3qy4+lZJX6Ec9p5k4Bg46abbmq32671K9BnP/vZT3/602aVtsctZeJkwNGQMsgmiaJd+AYoYmigaGvDkKwVGaoIaRqNBpICcvf6axmIhlcF3F6v9+d//ufPPPMMfejJlevDIKZvMpjM6bPnRuNx7p78OEDlIMCLvCmhkS1Ms1Fb3q+/SDa+EEXO5RHl5PsX733vXR/4gC3Jywlwf/d3fxdowA7PQECCZsMUyMib8Tp8plEX+mlocNuSwGfMGDsyCMBnE6Cq1WpRhIxvKU00cdPyqtPW1tbTTz9NT+S17fnZfVwEjcajOGHfsQG1yMwTGo+VjkbjJKFSQT8NGCngY0k00ZcuzTT4VU7fLSKfJZOnn3pqe3vbun45IUtKBI1+4GBUQAnW8ClSZauFVmRIKQIltUDJ6hmy8GmCsLUlNejQZgqNZkWqoFcfXLSfOXOGwTEZpUAKdmCaxAIQTxYng9GIKhBk/bGmgT5m3aVenxLcYX8wGujLrICKjeu7LYkUMk8HK0aiTxJRefH8+e2trWn3L6bZnNlMmBudGyi0Mp9LETTphCK14EiRXgCa1JClOW3ploYgS4aiKddYdkkD2y1av68+uIz4scceY1gQRbfdsY1pxEVWw1D/+goDs8JMMVhakcb6t+ampFXR1170CZXbZxMdgPqyjTJ6+IsbwD0EfpxMLq2sWO8vJzV0+53wgNQtlk58+1KIIQKf7inOhFllFd3fXDNyamXIThv2bkymY80hawiRJ7WuX31w0c5phmfodDr6dL8/GoziwSAeDuMh2OmLvwmwVOq1ufn5vXv3Hjiw/9DBg4cPX3P48MGDy8vLBw6QHlg+sG//vj17l+bb887TceCk41E6HE/Q1huOesNBbzDoDPqbOzs73Q5YTLt/GWlFd7czEAAceQZJkSUEI7B4ieVi11aLpBUxVVKKCMCnlvxLAIUDkbF+oVf/QEP7o48++kd/9EdAjPtyn97kcr3uYLNPKR1Pay+frJIwoAyXcVKiyg1Vn4lp6Gmmf+vWCbv2oKXPTqlh8j/03vf+5E/+5NzcnPgvJjT83u/93h/8wR9wsoMFwoYCOsmDFJDN4DYE4ZsY49EI3EBtMWBenoHvFv6FhzUwIeta6wTLCq8uXbp0qdvt0iN5OmYwQng6DoVBrlvZBUzl7CvBjtTe7QDLzGSoIoNLwMlYkZ1ZKpePHDlSc/8C3csJ+d///d//wz/8Q2Sr7l/EY1OjEBcB3EBp3WG5YIEwVfRrTGrNA8C0ZQB9xs0U8Mh4FfJ2QtKE1DLTibmNcrXA/e+EmN2nPvUptlG9Xsdvypr0v8zIbMHIXAEogCZwgz5FWsEhYxADGZgijCrjUAuIgE5qVm/IQnDUqzNbWk3N5AeVzHQAxcDC+oAAjmFKCsoU7bwyQ4YMd9qCEUUgo4iYmTB82lJ0u1BEfpaBTOAHH1zgYM6gQAaMlCp+U4yF6SEAE6IIstSaPRruoENbimSoNUDxBtg4gR1KKIIjHsniZVtICG00R+YH33LN3MDIgDYOGSAwW4NDBhkDnSJQUjT0DSnDF6JohBJriGYEyMCBrArCyfyAgwvZ/G1fM3NQY+ZmlaTk4cOkiG1evhjGhMgAn32RBwHkrRVELaEgtXCMuWfPnjvvvPOTn/wkd+4f8AONyf/O7/zOn/zJnwAQ+NpNARSAgxOfFBmqMFL4CFsrwwR8YZpLAVZkyJgMGWrhIAmxSNdee+3tt99+6623Hjt2DHzt32T4/yq4TAykmCRhwJT1T9BXv/pV4lxwZKZgBCgQkAET2NneNw6uc2aDZFgMEzb0zZDhkyKANuRvvPFGMH3HO96xb9++ZrMJytap0fcPXMZEmInbIsOISena8jZWUiaAJBAwSlIjmFiZ7Wtoe3ubs2J9fX1zY5NLMLPCWAharfblhGY6JbUujGMpyi3PMICPIhkIoJ2DnT7KMA4CIMuK0gQm5xjWurCw8BJAL6fvGlzkbYjfnhgNUHK2cgnmQnH+/PkzZ84888wzm5ubgMUoOXMZNGMljzxqsSNsgRQcOQ3IYJWYAxl22YkTJw4fPoy2jY2NAwcOvO1tb5ufn6fhfffdR+3NN9/suv3vi74LcL/whS88++yz2AgunFVlnUGZBUQDIDbc329gU8zZjAvUnn/++VOnTpGCERCzyIghDGog2+/3AZEMkqgCWXBH82w/ImzWBBMZ+oJz0003gezBgweR37t3LwP75je/Ce54OvJooAlEX5YnRSEDcJP4vtJ3Cu63vvWtj370o3Z9xHaYrW0Hhk7KzG1jGsqktnGAj5VgYlz8MTpskNnSllYIACjgmvHCBwI4EJrhkDI2NOAT6JTVojl6yNCK/UgvgIvZsmxm5gLVLbkBaqrI0PyOO+748Ic/rJl8H+k7Apc9/rM/+7Nf+cpXyKysrDANJry1tbW8vEwKsU+ZKqBfc801Fy9eZIagQNEgBk0QxDnSloY0x2PSb7vdpi3zBxo0k+IrWAmasyS2FdAAlMhQxUjokUVCG21ZAGoXFxdZcgTs/2jAzMnTI1VgigxMOGj7jd/4DXyL5nMZIQ/R9bT8qlL4i7/4i9PsP01/8zd/85nPfAb4sAVmTobhgg4QUMvI4JBhlGSYEhlz/OACH+BoBZM84BpMoI8AKCAP05qDCHlaYZ40wQBRDsFHITK2u6kFLPSgAculitUyt7C2tkYr1II4quia9aMvdgAdvf3tb0fG6MKFC1//+tf/6q/+6otf/OIjjzxy//33P/roo4899thzzz3HoqKfOU5Fr5T+eXAZ7q/+6q9yItEfZsiUOJTMTMjABAXmxiSZFXDjc8HCpsRi4H+psqOWKoBgnnDQw8zRQ1vgw5yBA3lkMHlUkcdIUWXDoIgGvAHQ08v+/fvBjl7YEAijhLVhJOCOJDI4ekZLczj0DpPRcr7T0blz54jP/vRP//TBBx98+umn2U+nT5/mOCEPvl/72tcAmiq6O3ToEEtiA7gC+mfAxTSw2XvvvZdxU2Sgq6urMBki6NA9GWYFXtgUGThIQmTwwpYhJQ+s5MERMeBAG3OmIRwzczhggdEhTAoHYwRrMjQBHdMPsSrkac54KNI1g4E45WjI2tAj2kjxV8ggDEysBC6L7n7zN3+TyPfJJ588efLk2bNnsR6GAfT6oyf3ZT00ENs88MADjz/++NGjR21PXAH9M9df9svf/u3fMiBmSK8MlDyTB2KWFMJkmCoQmAFShVkxVkA3N4IMEwYI7AgBJgyyFGlFEULSDh+6oxYOWIAyYswKUMyHQqwBGwW3iyRF2z3UIgO+BiJqGQMKMV42DSNh5IwNBEEfcAk2PvjBDxr6dIH5I4AkQ+oSvdRqHJIosfDxc5/73N133/2Nb3wD4Sugb2e5jOa3f/u3H3roIfOwTJiUAZntsOuZoRkOfGYOxEyPSTJiMGWbM0/aYjJMBlyYAyAiRhUa4LAAzAoNeAAyS0tLwEGeGQIQSwgccFBLv3BQzn63tYEDH5mHH34YhdTCZD2AkqGiCgNEP+YMnzHgUhDDn3zoQx9CD86BCTJylDDZcRy7v0MdVSuKDjERBm9rhiPmGsZ8DZbvnL4duF/60pf++I//GDiYBqOkG+aJRWBcwEr3ZoZ2fAOoQUYtcwN0YIUPoQpJ2iLMZFBlFmochI0DoRbgkKdTM2EE0EmGWhRSRUoVfCZPL3DIsC1sIW0J2Q2MB210R5UN1f5LoieeeOKuu+4C3ze/+c24frytKcEr8Urcl27MMlitt7zlLVxwWT+smDsufCS/c/onwcVkfu3Xfo2j0+bJ/M0A2YxMjOHSE/EQ0EAIUGUNqSW1bc7c4FNLkQxVZimgAIfJs6OZPJrhs98xN9uhhHSgg3HB54JAX0BARyi5/vrracJKG6AMjIacVGSwWfLYJiuKcoAGIzTAwaVipwY9KTc6un7ve99L/AAf/8teYGgMGnAZGxro7od+6IduuOEG7Bfny9owEjfF75ReGVzm/2d/9md/8Rd/AYgYJpO3HUQV5gYhAGFTzIGhQGZfEGOyDGSqZmRV6JmZJ3MAFDjgDpNeSIEeKOkFAfgwkYEwJRBnMBDNaQXEDAABILO2NMS9gilFBk8tnZIiABN5itjN+9//ftYG/Zx473nPe4APfCeT5OiRI/v27X/+/PPbnZ1Ws/muO97FwtARa8NuuOWWW+j3O6dXBpe45Jd+6ZcYEFhgd8wWk8F8yFNLnkkyVbNKMghANnnEIMsYxwgru5xDBg4aIDJw0Ex3VgtM5E0AOAx980gARBVFIANxmBQZKhz0k0HAFsM8EnDjfMGRPIZCEdxxoNyh4UC0wn5vu+227S0dgDvbMij8U6g/y1VEyIaAf+zYMbyE6fkO6ZVvaH/913/9iU98gkGgC2KSuZf3BgP9fbhrwJx5p8qakyEl77B6UQRiVS8n6XVEfqbEMsZ5SR6aCVseTMlczoFsTxjTMoyH5WHtkQdZiqwrDvcv//IvYZqMEW3vu+8+bkz2gAlLZ5nxHhySR44c+Ymf+Inv1i28MriEeB//+MfZVpgDRQatA73XTRP9iwfMiYFCVFlzRqz5vVgVRRpaakXjQ7SlifEhk7lcjPzl8jMBMjP+5UXLk1qVkRo4PmhydpnZwsH88emAiPOdir6YsHQOG84xDBZvQKjLvdl27XdFL5rDjFD6+c9/ngXEf0HsNdwcu2PItcpdmawV6eUZxq3GblbAZ5wZn4zVkqF2JjzjWyvLGMeqZkpmkkYzMcuYzGzf2OJB8Nl5ZDBMojHynMN33nnnPffcMxO+SvTK4M6IDQWmgMs2AV9W3oyOKoZrMpCBMiOb0rTwMqJqVvvtxawLk1GbXc63IRN4iRhFCO9sIRoGi+WC8rT6qtE/A+7r9L3Q1d0X/z+n18G9ivQ6uFeRXgf3KtLr4F5Feh3cq0ivg3sV6XVwrxp53v8Lhn/bjXxHfCAAAAAASUVORK5CYII=;fontFamily=Courier New;" parent="1" vertex="1">
          <mxGeometry x="160" y="430" width="80" height="80" as="geometry" />
        </mxCell>
        <mxCell id="RWeXVQ2_0HFQkgd2XHTl-12" value="Database Server" style="text;html=1;align=center;verticalAlign=middle;whiteSpace=wrap;rounded=0;fontSize=11;fontFamily=Courier New;" parent="1" vertex="1">
          <mxGeometry x="110" y="290" width="110" height="30" as="geometry" />
        </mxCell>
        <mxCell id="RWeXVQ2_0HFQkgd2XHTl-13" value="Admin" style="text;html=1;align=center;verticalAlign=middle;whiteSpace=wrap;rounded=0;fontSize=11;fontFamily=Courier New;" parent="1" vertex="1">
          <mxGeometry x="270" y="110" width="70" height="30" as="geometry" />
        </mxCell>
        <mxCell id="RWeXVQ2_0HFQkgd2XHTl-14" value="SMS Server, and Employee Logging In and Logging Out" style="text;html=1;align=center;verticalAlign=middle;whiteSpace=wrap;rounded=0;fontSize=11;fontFamily=Courier New;" parent="1" vertex="1">
          <mxGeometry x="110" y="510" width="140" height="30" as="geometry" />
        </mxCell>
        <mxCell id="RWeXVQ2_0HFQkgd2XHTl-15" value="GSM Module" style="text;html=1;align=center;verticalAlign=middle;whiteSpace=wrap;rounded=0;fontSize=11;fontFamily=Courier New;" parent="1" vertex="1">
          <mxGeometry x="300" y="657" width="110" height="15" as="geometry" />
        </mxCell>
        <mxCell id="RWeXVQ2_0HFQkgd2XHTl-16" value="Principal" style="text;html=1;align=center;verticalAlign=middle;whiteSpace=wrap;rounded=0;fontSize=11;fontFamily=Courier New;" parent="1" vertex="1">
          <mxGeometry x="488" y="771" width="110" height="20" as="geometry" />
        </mxCell>
        <mxCell id="RWeXVQ2_0HFQkgd2XHTl-17" value="Dean" style="text;html=1;align=center;verticalAlign=middle;whiteSpace=wrap;rounded=0;fontSize=11;fontFamily=Courier New;" parent="1" vertex="1">
          <mxGeometry x="572.5" y="622.5" width="75" height="30" as="geometry" />
        </mxCell>
        <mxCell id="RWeXVQ2_0HFQkgd2XHTl-20" value="&lt;font style=&quot;font-size: 11px;&quot;&gt;Employee with RFID Card&lt;/font&gt;" style="text;html=1;align=center;verticalAlign=middle;whiteSpace=wrap;rounded=0;fontSize=11;fontFamily=Courier New;" parent="1" vertex="1">
          <mxGeometry x="545" y="490" width="135" height="20" as="geometry" />
        </mxCell>
        <mxCell id="RWeXVQ2_0HFQkgd2XHTl-28" style="edgeStyle=orthogonalEdgeStyle;rounded=0;orthogonalLoop=1;jettySize=auto;html=1;entryX=0.375;entryY=0;entryDx=0;entryDy=0;entryPerimeter=0;curved=1;strokeWidth=2;fontFamily=Courier New;" parent="1" source="RWeXVQ2_0HFQkgd2XHTl-12" target="RWeXVQ2_0HFQkgd2XHTl-11" edge="1">
          <mxGeometry relative="1" as="geometry" />
        </mxCell>
        <mxCell id="RWeXVQ2_0HFQkgd2XHTl-34" style="edgeStyle=orthogonalEdgeStyle;rounded=0;orthogonalLoop=1;jettySize=auto;html=1;exitX=1;exitY=0.25;exitDx=0;exitDy=0;entryX=-0.03;entryY=0.871;entryDx=0;entryDy=0;entryPerimeter=0;curved=1;strokeWidth=2;fontStyle=0;fontFamily=Courier New;" parent="1" source="RWeXVQ2_0HFQkgd2XHTl-11" target="RWeXVQ2_0HFQkgd2XHTl-20" edge="1">
          <mxGeometry relative="1" as="geometry">
            <Array as="points">
              <mxPoint x="240" y="470" />
              <mxPoint x="393" y="470" />
              <mxPoint x="393" y="507" />
            </Array>
          </mxGeometry>
        </mxCell>
        <mxCell id="QzGDsle8Kh0UcfLWFKWC-4" style="edgeStyle=orthogonalEdgeStyle;rounded=0;orthogonalLoop=1;jettySize=auto;html=1;exitX=0.25;exitY=0;exitDx=0;exitDy=0;entryX=1;entryY=0.75;entryDx=0;entryDy=0;curved=1;fontFamily=Courier New;" edge="1" parent="1" source="RWeXVQ2_0HFQkgd2XHTl-37" target="RWeXVQ2_0HFQkgd2XHTl-6">
          <mxGeometry relative="1" as="geometry" />
        </mxCell>
        <mxCell id="RWeXVQ2_0HFQkgd2XHTl-37" value="" style="shape=image;image=data:image/png,iVBORw0KGgoAAAANSUhEUgAAAJEAAABkCAIAAAAJ5UXeAAAABGdBTUEAALGPC/xhBQAAAAlwSFlzAAAOwwAADsMBx2+oZAAAIOZJREFUeF7tnAd4lFXa9921QCoJgRCUrtKCYkGaigWxr2WtKODqurqAgkgJIJie6b33nmTSk5kkk0x6L6SRDiShQ0hoImD3+59nRt/re9/dfXdfCclg7utcz3XmzHnOPHP/nv9932cyk5t+HjVPs1FmnmejzDzPRpl5no0y8zwbZeZ5NsrM82yUmefZKDPPs1FmnmejzDzPRpl5no0y8zwbZeZ5NsrM82yUmefZKDPPs1FmnmejzDzPRpl5no0y8zz7fTH74Ycfvvvu+x9++NH9eGjs+++/v3z564sXL3Z1dZeXV1ZUVFdUVre3dw4Onjt37vy58+cvX7783Xff/fzzT+4T/kP7vTCDH48cPVpVXVtcXFpVVdPf3//TT/9Hl/0z+/bbbwcGBva3tmbnOIzmeJ3BaDBYNFqjRmtSqvUanclgTLQkJCckpRSXlNfUNrS3dx8/efpU/5lLly59c/Wqe5V/w258ZmAzOHi2qqbGZEnQ6eFBvQIuNJhaW9t//PHaCO7CxYsHDhzMyLQrVFq9wWI0JZgsVgOOaOZ4vJZOp5MrFSKJWCqVKlUqXINOZzSaLEazOT3TXlZZU1ZR3dl1qL2j++ChnsGzZy999RVAfv31Jdxq7tegDAK9cOHCDc5scGBwX0NDalqGTm/S6o1ouPFVap1EptQbTYcPH3HP+78aAmBDYxOoiMSy+MTkxKQUkEi0WjMzM7JstqSk5PgEa1qGzZbtsCalyxUavkAkFAli46LZHBqLTd8bvovOjGVx2VwhXySW8IRimUKdmpaVZcvNyMxOSc2y5+SVllZWVtVVVdehY8/Jz8l13rDMrly92rJ/f3pmlkZvADCjKV6rM6NBB3q9RaXWypXEO6dP97tP+E/s6tWrGRmZhYUlBqNJLJFbralgo9cbc2AOR3VNzZEjR/9F1jx58nR8fAKDxf5448a17727YsWyx59Y9u7aN3aEfbZr946wnTvCdu/YG7EnKjoqhhZDo9PZHJ5QJMUFG41mqzXpBmSGiNfZ2ZWd6yCRUGfSGcDJbDDGGwwJBJgBwQrJxqxQaiVSVUpqxn+KLT3LJpXL9oZHsth8vd5st+ckWlNycx1NTU2n+//xUh1dXaDJ4XLWffCXd9euefW1V5c/vHzpsqWPPPrIAw8+GDwpxNffL2D8uEm3B0+ZOnn2vDvvX7Rg2SOLVjy5/MmnVzz7wqpXX39p9Zq317y35t133371tZdvKGZIXT09vbjVzZYEtUanBTA9JSxA0lt0hFm80ZigM8Zr9WYESZlCA2xlpZVUFfePDRkF0S8pOd0cn5SSloH6YveXUa+9uZrG5O3cHQ655OUV9Pb1fvXVV+4TKMNZp/tPJyUnbdu+/YlVK0PvvWfajBm+/r43wf540y233TrWx8fH329cYOD4CRPGB09EC5wwIWBCUGBQ0Lig8YET8JB0/AMD/AIDAoKCJkwKvn3a1LnzQu974MEbhBmK+DMDA6WlZb/SolC5gFl0+ngNIBnQLAZjgpZ0zMCp1ujlCjXiZE1tPXYA7rV+MfgdFUF8QhKXJ2SyBXFMHoPDpzN5HJ6YLZBt+HTTmnUfREVFHT9+0n0CFTOPHDmSmpr6xltvzrzrzqDgibd6ed108x99AwPvmDp1Xmjow48/tic8nMvnszhclCt19fWtbe02e67BZMFVqXVGpUqDKMgXSxEOWVw+i8vjCUQCkVQqV+kMppb9rYgKNwKzgYFBpOn4RKtGZ9DqDEAFVbloISQShenhEQuAQWHUQ7MGJYkO9YhBoSL1iEyh2t/W5l6OonXixMlcR75UruHyJWG798bROUyOgMbihUcy4EHUGavXvM9mc/fvb3WdcuzYsVyHY8MnG6fOmO47zv8Pt948xtdn1l13r3hi5fsffqRQabBF+/rry998881v32N4NjOUbU3NzYnWJLVWr0FZqEODwggYUnGQvIUO8KBoJOSop0CUjCA2qjVgbMIdDGwJiclHjx7HmriRnUXFMqWWL5RJ5CqoisEWxjI4dCaHxuDEMfh/37AFNR4KHNc11O+rpzMZyEzefj43/eEPt3n7zJ4/742334yl052FhRf//5h5TcxTmWH30tHZlZ5pwy2s0WoBTK0j4c4FhoqHZgCjjiZKVSgakd6A0IjaBH012e2SDva8SGxSmSolJbOjvSMiMprLFwulSrFCzRfJeHwJWmQMIzaOgZp+156oDz5cLxCIysvL8/Pzw3bumnHnnSRL3XLzhJBJL//5z2wu11lQgCDpvtAhMM9jhsDV0dmZZbMr1RoA08LvEBlcT/TkwkbIgZOGKu6pPPFfhChyOBqVGr1LZxqNUU2khr2ucU94zBNPrYqKihEIpSyuiI3UxRXSmVypTI1Sk8nhv/H2e0sfWXH37DkzZ82aPGUKYN1822333Hffth07UtPT+/9J3XhtzcOYHT12zFlQqNHqkKs1QKUlTnfFOqD6BQnBptFBeQQkyEGCLqJI8hhHAzAVoWhAGaJW69UqvUKpC9v15Zur123espnHZ8egLhRKmSwUHVy9ySIUS8N2hX+yedtTz7zo7R9w85jbbhkzZoyX1yNPPKFUq1Hlf/vtP608r7l5DLOTJ08WFhabzPGgpVKjMjSg3oPHXepRaw0UFappSa5ylRhUIwpzNbXWBFQKrU6h0Sq1BiI1tU6l0itVepVGD0Kr1/z1b+vXs5i0ODotmsZSqskKu/dEfrJ5+4cfbXzu+ZdC7pg21sd3jLcXmC1a/FBxabH7+q6jjXRmqLL6z5wBLaPJolColUoNApoKytDocHRJTUNEgxHS8BDREuFORUmQ8KMCowraoooOMJODllavBC21HthQOkJk5GNcrXFvBO35l1/fsHHDrl07Ymk0Hl+0dccXH/xt4xtvr507/x5vPz/Q8vbznTZj5turV6empbqv8vraiGZ28eJXdXV1RpNZplBgI6VQalUqOBoBDdh0AIYj6VCoAIzqkw6ewhyXtihaQAWFkROVaqMc2zKCCvOhMIRZSmdqrEna59u/eOW11a+9sfqZ556H6N5978PFyx/1Hz8eO61bx3phq/viyy8lWq3/Yhs+1DZCmZ0/fx7FdHxColgik5NPwol/f2luPO6mgUS0SpUWfWhFRTHDNERLZC9CF5wIKjRylkJjUICZWidX61Hly5VaiAwNEVKhwCIGlBsfrf/snfc++Mtf//74ymcnT5l2C2h5efkFBPgHBr3+5luDg4PuqxwmG3HMrly50trWhg0yXyBWkEhIvPkrCciCdEhgBCcc9QqNTqbRyNRqhDhCBXlO41IPZhoUFBiKFgaxgwYtREUiLBIS0dBHYFRgNb1MoUWDNNlcEbLXrt3hK59+6Y+3jh3j4337lKlz5i+4e15oRmaW+0KHz0YQsx9//LGnp8dmtwnFYrFUDmCQhQbxSgVgRhcJlZoMEqdT2sIIhUErV6kVaq0CI0R8RHMuqbkkhZlESVToAyQqgWnlCgxqKLqkaCTAcFRqMI4NeAyN8+HHG/dGxj78+KpZd81ZcM/9jz62ki8UnT171n25w2cjhVlvX192drZKpRaIIC81vIwERkEilQVhQPqARJhhUO52t06pJPB+nUBgEJYYIfUFiYEEj4ZUGZiA1KUkhFwj/60BHsZlMjW25EZzwq490dt3fbE3MualV99av/HTvHwntobuyx1WG35mx48fh7bkSoVQKJFKVa54CDZuEqSRDsUGjkYl4qYF/1JciVyACh7HIKQmpSChL1Mi1rnZ/Jq3ICPqRPccnA5tUdMwQmKjRKoyGi2VFZU2W15EFDM8KpYvlB84cMh9uSPAho0Z9Sf/QafTKZXK+MhdEikJa4QTJRGKBCDJ3ZxcHieDlLsJIfKHMWOCWm2kgJHmeoqaRjUsghFCTiuRa2RooCLXKCha1GRCXSpXos6RydVkmkIjlaqlEnW+w9He1mY0JYZHxbE4/MxM23/7a8sw2vAwQ1YoLS0RioQcDkeCylChhvvAA/ENeqJioBsSxYB4lmoqmUyF+GYyJyUlpRcUlhYWlVoSkgCGKAxs5JjpQus6C6erwQzApAo1YUYmuKa5jhrEWIlCKVeqERLJB1T6+OwcZ3pGjkSiMBnjcfcIRfKoyDganV1cVvHDNfr+yG+0683sTH9/RXkZj8eNjY3lcnlysvFSoVF4iJ6oeAW/k6wDv7tIQAdSGZmZmJhiszmcBSUFBcXIczI5iaXA7KJOQXLNVxF5EYWpQEtCjgrwpp4iDXjQ0JHLNWKJQiRBEaNPSc1qbes+dvxkdk6BUCSTSBUQv1iiZHEEeyNiWFxRZVXdt99+634nw2fXj9np/tOlpcV8HvfLvXtZbDaCoVAkEUvkUhmYuaIfnO7quwBAIujrELUkmKTW2uyOwqKSrKxszETWcXmfQFKgMEFxgVREhTg5eCilchVASNHHNDCTKzCI+QSDTCkBMIVGKFUi+VkSUpJTMiqrant6j9bWN0K4IjGuCi+qFEtVYCaWqelsXmQMnc0RdnZ1u9/P8Nn1YHbmzJmiwkIBn7t7904anY77F24VSWRghj5c6ZIaBilgJIFRwOBrAFC6gOU68pFUlCq1UCSVyMgKAEBpUQcq9ux8iyVRJCZPSWVy6Ay6pCBhKXDFIgqxTAXSFDPCEreLSmtMy8qpqWnuOXS0ZX+7PSdfKJULJTKcBVSYDGYSqFOh4Qpkm7fuCtv5BcR9/sIF9xsbJhtaZhcvXszPd/C4zJ3bt8VERxNESrAhjsO9DKlROoNzXQ0uBj+iEgoJRU6hFkkVRnNieUWFAPsAiQxbN2zOSOhDiJNrsDVIS8vKdxZio+1SLdan1iEdEZRErYNxoAIDdFBlYPHExOTCwrLS0vrq6obc3AK9MZ4vlgkRDyFrmQrLEo3K1OggpaWn2w2mpI2f7dy4aavNnj2MH1zBhooZNsg1tdVcLmvb1i0REV8K8L6JK8ntD88S10vkIADRoC+RkhEcIRSRmCQSrc7syCtOz7AjrEFwjrxCa1KazZabkpxpsiRmEMFpkYew1851FDoLilBGUstCHOCNUgWpCMJCcFOI8IogAQxSlUiuEsvVCdaUkpLK2trm+rqmgoJyo8UKMGiYQ7QlUYpkSoFEIUQTyTVaI3Ln4cN9A2fPpWXk7wlnYLXLly+73+dw2JAwu3jhgkYl3/r5pzt37eDxheT2J8U0AQZXIta5CYkIIVdDnEQTiWRqtcFmzysuKU9Ny4K/sGkzGMz7GpoLCsuybNl5ecU1NQ3JyWlYx2iMr6ttKCmtRC6ExyEdCBTLUi8Bj8sFMhQXAKYU4nUhL5kaUhNI5M6C0oMHjjY1deDOQM0pEMlFSFoSFzDcUkqBWM4TyXlCWZYtp7v7QH9/PwrdU6dONza1CqXatHTb8FYi154ZNl41NVWffrJ+26bNIhF8CF/Aie4YiD6Cm8uzFCqpWIw+XCZH32yxlpdXl5RUNDa2Vtc0xCemIAwi7hUUFSmVGpyYk+ssKioFJHSamlo7Og7mOlDjSbECPO4KsFRfIRRLBUhOWBziQ9mJyyBg5FhEqzUmp2RCowIhuQAhoh/mkKIDIVEuEOBK5CZTQmNj0+nTpy9cOI9jV/fB5pb2iorqLdt3tba1u9/qMNm1Z3blymWZXE6jsbQSlUFrgI9ciepXbC41UDGQCpJUMCTlmUSVk5Nnt+dW1+wrLCyvrKzOzy/Kyy/U6vTQKocr0OktpSWVVmt6WpqtqqoOeai+vlmnN0McWJNaAeuQKIcjpWbSJ4kTUiNFIPWsRCEQK/hCAsZ1M1GZlSDnC6WoDNUqQ4GzqLe379y5cwMDgz09vc3NrVVVtYnW1E8/3bp+/ScnTvzXl+OGxa49s0uXvpLLVKkZ2bnZeSmWRCW2R0RecKhMCnkRbyrhOHiKchaJk4ieVGIj+jOZ4222vHxnSW6uMy09C7D5ApFAKBEIxenpWcUlZY7ckkOH+goLS7PsDqiNwkNoUau5GmEDTgSYiOoDJ2RNAjKZBlWReIgERpVCgIfGZgvFYkVKSnp7e8fg4BkAO378ZHf3ofp6VCjO8Ii4V159c8bMu997/4Nh/5j42jP74Ycf9tU3wN0lZZX5dofFYPnFoURYYIaHZGcmhsLQIbs0AZpQzBeIhUJZWlo2YKSlZ6I6BCpUJXgKDZvc9AxbgbM0z1GYk5vX1t4FRbqU+mtSJMGWqmLwcrgtSEoDEoolxlEW4iEoghYgUZNxx+CekPL4Ur3eXFZafurUqbPnzp48caqr6+D+/R1l5VUqre4vH3x834NLJ06a/Mdbbn537RrgdL/VYbIhqUEGzpxJS013FhQjlGWnZWpVOsqP8Ka76MA+SiwmFQeoUNjgNaHBGJ9td2Zm2o0mM5fLd3GiGpkjEEpVal1SUrpOZ4KXq6rrVCo9ziLnCoSoSzGBLyD4XWqDqsAG5R/fpSSxjE/KCmQvPJRhBUiNL5QhGCpVOqezqLu7++zg4MDAQM+h3ra2zqqqGkt84tbtu598+vkp02f6+PkFjg+YMm36J59uunBD7s9++unHtta2hHhrRWVtYX5BujVFhuqZEg1cDD3xhSIiL6GYx4evyTElNQOBzmJJAAaOGxga5rh0hg75qiGeSkxMyXcWx8cngT2e5fHFXJ6IyxMihKJPlRXktnA15C2A+YU9+rgAmRCDAtAScTjCtLTMpqbmkydPDA6ePXHi1P797Y0NzVBwVAz9lTdWz563wD8w0NvXZ8bMWcsfWbHq2Rfz8pwIJO73OUw2JMxgly9/7cx3oqaorKxx2HOtxMVwmQTAoAn4Fx2g4vIELmbYM4EZ+qBCPQUGBAOEhIaHAKZUGnJynFlZuSj8UJKwOTyczucLuVwhmyPAIlTmc6kWL+RSJ2Cjjw4AE3lhcS4XZ0kMRktZWVlPz6HBwUGExNa2jvr6xqKiEkTRv/5t/ZJlK4Imhozx9p4QPPHBRQ+tXPnMy6++nmmz/zjEv+v9d2yomMGys7MFPEHdvsaKymp7epZOZ2Rz4Xoxn3IuxEGRcMPj8YRgFh+f/Iv3CSfoDQjRFEpdYmJ6tj0PtHAim8PHHADDUwDGI0uhjyakNOeC59IogccTkCMeIhLiWQxmZ+e0traegLJOnTp85Oj+1vZ9+xrNloTNn29/ctUzs+6e7evvHxA4fs7cecsfXQFadCbr0KEe9xsbbhtCZqWlpVu2fO7Icza3tlaUlWelZaJso5RB3I1GqLg6AnRQPCqKi8uRpeB9CiqfwWBj92YyJebnFefnF5vMVvKJsEwtAAa+iEjNzYkAJsw4fBabS90NOJ3cECRyCsQcnhANdwyeQpaqq6vv7e0Frd6+wy3722rq6nNz8+JorJdee2v+wgf8xwf5+PpOnzFjydKHV6167qO/bygoKHC/pZFhQ8jsm2++iYqJiY6Obtnf2tyyH4nNmpjMRdaBB7lwIp/jEgqOrsblm83WfEcxlMdE4OMLQcuW6SguqrAmpuc5ipobO/LzSpOsqchzFGyERD6biwhJYiP6hBmLSwY5PNIwRyBmC8Q0Do/J4Wv0xhxHXmtb64mTJ44dO97VfaChcX9+QbFALF277q8PLXk4ZOq0W8aMCQ4JWXjf/UuWPfLWW+9IZfJh/5bV/7QhZAZr7+jYsHFDckpKZ9eBhn2NTodTZzBDHLjfiUR+ZUaSExxNMpnd7kxOwbZMm2XLs9kcBoMlITGtsqKprqalpqYx0ZoGYBATFQldJ/Jcp7PY4IRFBOigMcGJC6ICOoMrlaszs2wNjY19fb2EVtfB1taO8ooqsyVx8+c7Hlv59IxZd/uNG+czzm/uvHmLHlry1DPP7w2PaGxqcr+NEWZDywyWYE38Mjy8prYeO6qa6trM9Cxsb+FliAPAKL/zWRzwI3ESvsa+qrCw3G7Pt1iSOTwRg8XLdRTX1rRVVuwzmRIQM5lESTwcmSzChqLFdTUGk0ujc5iEGR9HOovH5YsTEpKLi0oPHjiAeHjgwMGGhubq6lqbLSciKvalV9645/5FgcGTbh3rNW369MVLlz264ol1730AwMP7yf2/tiFndvXq1e07wtRqTVdXd2trW3FxcaI1mdohkawGjxN4PDGHL6AqDpLe5AqVWqOj0VlAgvJBp0vQaEwSqYxGZzJZHIDBkWpuVOjTWWwGm4NKgU5nIzwymJxYGlOu1NrtOU1NTaDV09MLWrW1DXn5+Rwe75217y9ZvmLylKlevn7jgoIWLFz46IrHnlr1LF738JHf+s8MhtqGnBkMJfXateuKCot7evoaG5tRT2u0BoRB7MBQfQAemy9E7kE2goCoyAYSiHgkWqIBAJ3BBkICjMgLSNiEE4OFDmHG5NBYXDoag41BNMwxWeLLy8s7Ozt7eno6OrsaGhqx69Bo9Rs3bX7quefnhN7jFxDg4+83bfrMhxYvfnTF42E7d7e3X7P/GDKkdj2YwRFCkSgqMqqjo+tQT299fX1mVrZQLHOpiocygYvynQRJV3JCZKMiHs/FhskiYMhDRD+2CwzFhs6iM9kUUYITxzgiRK5Gg1xoq66uOnCgu62tva52X2lJRXp6xhd7wl98+c/3PvBQUHCIr5//xEmT5s0PXfbwijXr3rNaky5duuS+3BFv14MZbGBgcP36jakpqb29fZ2dXdVVNUZTPJ1B4htVpiM8onYn5Z+LGUlILB4wAAmTRTIWKHL4IhqlLTQCjO5WFYPJiomjxdLouAMSrVbIuqWlBXG4oaGpoLDYZs+hMzlvrX530dLlU2fM9PLxDRg/fsbMOxfe9+DKVc/gxH/2DyJGrF0nZjCHI2/9+vVNzS09vYfh0wJngUAkY0AiqPF+YeZiA1pARbEhUIGWEhyXweDG0RgukcXRmDE0RiyDEUdnYBA7OblCmZ2TXV9f19HR3tDYVFFZ48jNkykUH23c+NjKVXfPDfUPHO/j54Na4557713+yGMff7yhvKLCfXEeZdeP2fnz52NiYlFUHOrtO3jwUG1tXWpaBo2GsIZIKOCieiRxjwXv0+hs6CmOwWSwCCowQzIDKmx7ccSzqC9o6DCYUTGxmCkWy6xJSUVFhQ0NDdgvl5SUOfLz9Wbzjp07X/jTy/PvvS948uSx3t4IhrPnzps7P/TNt1cnJyefP3fefWWeZtePGay9veOTTzc58vKPHD3a1XWgorxCodZBMS5VufQEHtFxDKIhGgQENpAUizCj40hYgmsskx0ZR4+MiuXxBSaTyZZtr6qqam5uKiuryMsvTElJi4qNe331Ow8uXjpl6nQfX19vH+9Zs2aFzr8XxXxMXFxb+zD/ofk32nVl9v333+v0hoiIyM6u7sNHjrY0t2Rn5yI2xsQyYuOYsXF0RDkag0M9BDA6/EtCXxwdVT42XjHA5mJGI3lOJJYkp6UUlxTV1NZU19Q4HPmZWXahWPLhRx8ve+yxmXfPCRwfNGbs2OCQ4HmhoQ8tXrJhwyfkdxLD/an8b7frygx2pr9/R1iYwWg6fPTIoZ4e7LKTUtIio2jRMXGIczHkSI+LIyKLptFIo9Nj6MxYOrTFiaYjgQEtQyAQa3Ta7Bx7RUV5aRk24Dl2u12v128L27Hqmefmhi4cHzxxrK+vf0DAtBkz5i9Y8OSTT2m0upHwM6RrYtebGQzFyI4dYVDG0ePHUf0XFZZiu4ZABxixsXSoDfCiomORqyJjYsNjaNFxCI+ImaxI4GSy5UplckpSYWFBRUVFdk6e1ZpisSSER0S88tprCxctmjx12lgfHy9fn+DJIbPnzFmydPmmTZ8dOtTz408esPH6N20YmMHYbK5UIsNe7cjRYy1N++22HMS6LyOiI6PjIqNjwiOxl4uJiqFFxsZFxNCiYplR0TSA5PD4CpUiORnACvOdhbm5zkRrMofHfWfduoeWLZ92152+AQFePj6BQePvmDpl3vwFb69enZubO0J+NHYNbXiYnTxxcmfYrqKiohMnT/X1Ha6pqdPrzeFRMRExBFh4ZHR4dGxMHD0qjkGYob5nMkRiocGoB4PcXEdmpj3BmqxSaz77fMvjTz01Z8GCiSEht3mN9R3nH3LH7VOnzVj+8KPYtJ0776mV4b+24WEGS0pKDv8yorOr88Qp8u3B0tIKgVgWERUdFR0HhUUjnyFIIloCF5slV8oSrPG5OblpaZnW5DSNRrs3/Mtn//TCgoX3Tr7jDh9/vzFeYycEB08KmXzX7Llbtm5DGel+mRvRho0ZQtau3Xuwrzp+4sSxEydbmlszMu1xcczIyBiU+FBYDI2FHZtYJtYaNKlpqaCVmpphsiQwWKy169Y8sHjxHdOm+QWMG+vt5R8wbtLkkJDbb3/l1T+npqaOhJ8bDakNGzNYW1vb7t17Ghob+gcGDh7qq6yskUnVkZFx0Sjq2Rw2nyWW8JOSk9LTM8xmi8mcIBCJ13+y4fGVT9w5e3bAxImk1vAh39cAsIX33YcypK+vz730DW3DyQym1mhpdMax48dP9/e3tXUUFpUy2dwvo/YKRByDSWu1JiYkWg0Gi1yh2Lp927MvPIfKIjgkZKyvz21eXgiJABYyOWTdX95rJP9x6gaX1682zMz6Dh/euXN3VlbWwNnB0/1n6ur37QnfyWDHmONNRqNFqdLI5Iqo6Mg33n7z/kWL7pg61d8/wMvL29vP1zdg3PiJEx5asthsNn91aaT80vn62DAzgxUVFW/duq2ru/vylSud3V0CkYDBZOv0JqVGxxXw3//w/SXLl82aPXv8xGBvH28EQz9/fxznLwjduXtXV3eXe5Xfkw0/s6tXr4rEUrlcgfDY0dVlik9A9RHLYGzZvuXp55+dEzoPu2PUGmPAy993rA/qwwkvv/JyvtPpPv/3Z8PPDNba2rZp02byZTmtZseu7eveX/vcC0+HLlwweeqUgKDxqAy9fX18/f1wXLxkMYvNunJlOH+yN+w2IpjBDAbDEyufWvXsMyuefDx04T1TZ8yYMCkYnLx8vf0C/G8be1vQhAlhYWEtzS3uE37HNlKYXbp0KWznzrnzQ6dMnxYUHOwfGODl74dCwzfAz2ec34sv/amgoGAkfxfqetpIYQZraWlZvWbN3AWhgUFBqOO9qOLwwcWLhCLh6dOn3ZNGbUQx++mnn6pqqte9//7ipUtunzJlyrRp765d097ejifcM0aNshHEzGVnz541W+KhrYqKitFg+A9txDEbtf/VRpl5no0y8zwbZeZ5NsrM82yUmefZKDPPs1FmnmejzDzPRpl5no0y8zwbZeZ5NsrM0+znn/8frCow50T3EHUAAAAASUVORK5CYII=;fontFamily=Courier New;" parent="1" vertex="1">
          <mxGeometry x="365" y="340" width="80" height="80" as="geometry" />
        </mxCell>
        <mxCell id="RWeXVQ2_0HFQkgd2XHTl-39" value="RFID Reader" style="text;html=1;align=center;verticalAlign=middle;whiteSpace=wrap;rounded=0;fontSize=11;fontFamily=Courier New;" parent="1" vertex="1">
          <mxGeometry x="350" y="398.06" width="110" height="30" as="geometry" />
        </mxCell>
        <mxCell id="RWeXVQ2_0HFQkgd2XHTl-46" style="edgeStyle=orthogonalEdgeStyle;rounded=0;orthogonalLoop=1;jettySize=auto;html=1;entryX=0.925;entryY=-0.036;entryDx=0;entryDy=0;entryPerimeter=0;curved=1;exitX=0.157;exitY=-0.062;exitDx=0;exitDy=0;exitPerimeter=0;fontFamily=Courier New;" parent="1" source="RWeXVQ2_0HFQkgd2XHTl-39" edge="1">
          <mxGeometry relative="1" as="geometry">
            <mxPoint x="315.0000000000001" y="397.88" as="sourcePoint" />
            <mxPoint x="234" y="445.0000000000001" as="targetPoint" />
            <Array as="points">
              <mxPoint x="322" y="410" />
              <mxPoint x="234" y="410" />
            </Array>
          </mxGeometry>
        </mxCell>
        <mxCell id="RWeXVQ2_0HFQkgd2XHTl-47" style="edgeStyle=orthogonalEdgeStyle;rounded=0;orthogonalLoop=1;jettySize=auto;html=1;exitX=0;exitY=0;exitDx=0;exitDy=0;entryX=0;entryY=0.5;entryDx=0;entryDy=0;curved=1;fontFamily=Courier New;" parent="1" source="RWeXVQ2_0HFQkgd2XHTl-11" target="RWeXVQ2_0HFQkgd2XHTl-6" edge="1">
          <mxGeometry relative="1" as="geometry">
            <Array as="points">
              <mxPoint x="100" y="430" />
              <mxPoint x="100" y="260" />
            </Array>
          </mxGeometry>
        </mxCell>
        <mxCell id="RWeXVQ2_0HFQkgd2XHTl-48" value="&lt;font style=&quot;font-size: 9px;&quot;&gt;Employee SHS Department Time In/Out Details&lt;/font&gt;" style="text;html=1;align=center;verticalAlign=middle;whiteSpace=wrap;rounded=0;fontSize=9;fontFamily=Courier New;" parent="1" vertex="1">
          <mxGeometry x="395" y="701" width="80" height="60" as="geometry" />
        </mxCell>
        <mxCell id="RWeXVQ2_0HFQkgd2XHTl-49" value="&lt;font style=&quot;font-size: 9px;&quot;&gt;Employee College Department Time In/Out Details&lt;/font&gt;" style="text;html=1;align=center;verticalAlign=middle;whiteSpace=wrap;rounded=0;rotation=0;fontSize=9;fontFamily=Courier New;" parent="1" vertex="1">
          <mxGeometry x="475" y="605" width="85" height="65" as="geometry" />
        </mxCell>
        <mxCell id="RWeXVQ2_0HFQkgd2XHTl-50" value="&lt;font style=&quot;font-size: 10px;&quot;&gt;Time In/Out Details&lt;/font&gt;" style="text;html=1;align=center;verticalAlign=middle;whiteSpace=wrap;rounded=0;rotation=0;fontSize=10;fontFamily=Courier New;" parent="1" vertex="1">
          <mxGeometry x="410" y="455" width="85" height="55" as="geometry" />
        </mxCell>
        <mxCell id="RWeXVQ2_0HFQkgd2XHTl-51" style="edgeStyle=orthogonalEdgeStyle;rounded=0;orthogonalLoop=1;jettySize=auto;html=1;entryX=1.005;entryY=0.423;entryDx=0;entryDy=0;entryPerimeter=0;curved=1;fontStyle=1;fontFamily=Courier New;" parent="1" source="RWeXVQ2_0HFQkgd2XHTl-10" target="RWeXVQ2_0HFQkgd2XHTl-37" edge="1">
          <mxGeometry relative="1" as="geometry" />
        </mxCell>
        <mxCell id="RWeXVQ2_0HFQkgd2XHTl-52" value="&lt;span style=&quot;font-size: 10px;&quot;&gt;Time In/Out Using RFID Card&lt;/span&gt;" style="text;html=1;align=center;verticalAlign=middle;whiteSpace=wrap;rounded=0;rotation=45;fontFamily=Courier New;" parent="1" vertex="1">
          <mxGeometry x="465" y="361" width="85" height="15" as="geometry" />
        </mxCell>
        <mxCell id="RWeXVQ2_0HFQkgd2XHTl-53" value="&lt;span style=&quot;font-size: 10px;&quot;&gt;RFID Card Number&lt;/span&gt;" style="text;html=1;align=center;verticalAlign=middle;whiteSpace=wrap;rounded=0;rotation=-10;fontFamily=Courier New;" parent="1" vertex="1">
          <mxGeometry x="268" y="389" width="100" height="5" as="geometry" />
        </mxCell>
        <mxCell id="RWeXVQ2_0HFQkgd2XHTl-55" value="&lt;font style=&quot;font-size: 9px;&quot;&gt;Employee Name.&lt;/font&gt;&lt;div style=&quot;font-size: 9px;&quot;&gt;&lt;font style=&quot;font-size: 9px;&quot;&gt;Department,Time In, Time Out&lt;/font&gt;&lt;/div&gt;" style="text;html=1;align=center;verticalAlign=middle;whiteSpace=wrap;rounded=0;rotation=0;fontSize=9;fontFamily=Courier New;" parent="1" vertex="1">
          <mxGeometry x="280" y="520" width="85" height="55" as="geometry" />
        </mxCell>
        <mxCell id="RWeXVQ2_0HFQkgd2XHTl-60" value="Attendance report" style="text;html=1;align=center;verticalAlign=middle;whiteSpace=wrap;rounded=0;rotation=0;fontSize=9;fontFamily=Courier New;" parent="1" vertex="1">
          <mxGeometry x="48" y="348.06" width="50" height="50" as="geometry" />
        </mxCell>
        <mxCell id="RWeXVQ2_0HFQkgd2XHTl-61" value="&lt;font style=&quot;font-size: 9px;&quot;&gt;Employee, Job, Schedule, Attendance Details&lt;/font&gt;" style="text;html=1;align=center;verticalAlign=middle;whiteSpace=wrap;rounded=0;rotation=0;fontSize=10;fontFamily=Courier New;" parent="1" vertex="1">
          <mxGeometry x="170" y="315" width="80" height="55" as="geometry" />
        </mxCell>
        <mxCell id="RWeXVQ2_0HFQkgd2XHTl-62" value="&lt;font size=&quot;1&quot;&gt;Salary Report&lt;/font&gt;" style="text;html=1;align=center;verticalAlign=middle;whiteSpace=wrap;rounded=0;rotation=0;fontSize=10;fontFamily=Courier New;" parent="1" vertex="1">
          <mxGeometry x="260" y="150" width="80" height="20" as="geometry" />
        </mxCell>
        <mxCell id="RWeXVQ2_0HFQkgd2XHTl-64" value="Employee&amp;nbsp;&lt;div&gt;Details&lt;br&gt;Registration&lt;/div&gt;" style="text;html=1;align=center;verticalAlign=middle;whiteSpace=wrap;rounded=0;rotation=0;fontSize=9;fontFamily=Courier New;" parent="1" vertex="1">
          <mxGeometry x="100" y="120" width="80" height="40" as="geometry" />
        </mxCell>
        <mxCell id="QzGDsle8Kh0UcfLWFKWC-2" value="" style="shape=image;aspect=fixed;image=data:image/png,iVBORw0KGgoAAAANSUhEUgAAAF4AAABeCAIAAAAlsDQ5AAAABGdBTUEAALGPC/xhBQAAAAlwSFlzAAAOwwAADsMBx2+oZAAAEiRJREFUeF7tnNlyG1d+xgl0o9EL9o3iqoWWLCuylEQZexJ7KpVMkpmayuXMK0xyM5VX8IMklavMhSvJA6RcNUnZjuMosS1rp4e0xJ0iQWzdjR3I73S3IFIESIAEQE2FHyWwcbr79Dnf+f5bN0Bfu92eOEc3+L3f5ziEc2p64pyanjinpifOqemJc2p64pyanjinpifOMuWr1erNRpMNWZbkgOzz+dz2NwRnQw3XtCyrbJebzVZ7oi35/UFV0XU9EAh4R7wBOBtqyuVKIV9st9o+vx9q2u2Wb8IXCMiqpum66ve/EWZ+BtSglFyuUK/Vfb79FDCMNjalKAFNU4NB9cDOs8AZUGOWTNO0D0eAl76mjeuRZAn5QBPNTuMZYNxLU6/XbbvSdT2gplwuLy3/dnd3F02VSib/Go2Gt3vsGKtquFaxWLKtiiOQA3LAv8Da3bt3NzZWZ2ZmZ2ZmwuFwIp7wy341qKqaIkms4lgVNFbVVKrVSqXqzLDLJIulIpientnZ2Xny9PGzZ8+2d7bbzTZSKhSKlXJFuKMxYnyqabVaYoZ2xeeXulJTdfDs2fLTxcVIJDI1NWXZ5kRrYm5+HhUhNFUNasIBKd4JHlWjktL4qLFtFt905tF9Mm7MzuVy5UpZ8ksrqyvFYoFkMBqN+v3S7du3W62mLPuDQUGQJMHvaKkZk0E1Gk3bsp1l6DkTZNVsNmOxGHqZmp6KReNmyXrrrauhUJjT8cd7e9l8vkB4g2KIbjaP6u30GJNqSiWrVCr5fd1N6TVgO+SBrWbr4aOHEAFld+7cWXn2/AWuZ6J98+bNeCzOYa58CPAjShHHQU29zoLnyH0dXvpdZ0FQu12pVLAdXp88eXLx0sVCoVCtVC2r+O6tW6qC7wnKsqxpwX0OaGgYuUHBvGXaLU/8A+i/1W7xqjmgjEAja2truzu79+/f/+bePTT48MH91ecr8I7dmaZFku2eOCyMXDVE63yu2KYGcN/3SU6b0CQKK9e4/D5/rV5bX1/f3t5GJuvrq6oSZG88SeoTJ5xlMpMBWQ6qQXJoTvE6OR1GSw0rWciXqtXaCYYLI0ze2263cSg+yReQAsSvpaXvXmxtw8jW1hb1aChsXLgwnUlnCGRBNaDrWjA4hApjtNRgSqUS5dJwgIkJihFUu9ls1DfWN5aXl9++fj27t0c5+va1t8XOdgsSXfmc8hbHCH0NEbdc6V4unRI4ZkUJTk1Pp9JpHFCxUEQybqYDd0Q02yrn9gjzbrpwQoxQNQRsHKRjScNZAIYqXM8+v0WyQ/BCJpiV0/ZqLu5h2FooZHhNA2JU1FA653KFRgN540c9dHyHAJunvjJMATZQituCh3I3aIU4SZbS6aQsI6iBMRJqMPjcXt4uV2RJoXsRbRz4+XEXt92uN+okde7VXS2wi/qAACQ8rtsyODgLl8QPILemp0wmqWqqt3sQjMTXOAU2OhdrxaISet1/7ZcCIu+vVWusqsgDhe8Us+FtrVajzgb1et09ciC4/cA4pABahKj8+6Q6CIavGgJ2PpevVKuSX6Z/r3UfkBH6B2gEgThBWpiBM60WrPHD7CgsSfMc53o8OqSw0ZkRgUxTg5lJgvpJ2Bk+NZZlF4sltNKVF+COvkMQc8JjUgY59z1l/BG8oBpkxcFB9VUM7jU/zm+0GvDy0s8IiE597VQ6YRhvhhtuiHIp32wwLNetdOvcJxzkXnaP0A4tcIFR4RkCAdnQDUPTFVXB+jgGq0Q/QU2wQ2ev/PlLMHjIxXYOz4IduqElU/E+dXcYQ6amWDAty3Ik05MazJ/JZPey7MRk8LxMr1ar4pjrtRrWZISMWDTGLuSD0+JgtKPImOcrMGzahei6jR/GMNVMJqVqQa9pcAyTmmqVgJ2jkhTmIdTQ0wSA6yCdi4tD8dbMEiJMs0g2xJnJZDJkhBgemQssUGS660+LqxRe3X5EdwfB/mg8Eo9Fu+7tE0Ojhn5IZMrlA7fEnTmL+rDz1t0AxWJxdy9LKIMRORAwdD0Wi4WMMKxW7PKL7C6VVzqVioTDUEDMoh9NUzE9agThVhxw0cOTpzGgyJnJFAWn13QiDI0avG+hWKKz/fN3tzvUuHkNk2G2z8HKCp4XiRGR8CyKopD4z8/PhQ2DALfz4kWtXs+k07qm45VhR5aZbABLcnvrCgaAqhLJWDQa9ppOiuFQg7zxvrVaw/Eygp6ucBdZJDiYCS620RQL6zDFzDe3X2xsbei6ce3qW5lUmuRoe3ubgycnJzm3VDLbrQlN051sqeeYcU+6pqYzyRN73w6Gk/JRzrHCjiW5shHz9/btgyt+wjUbKlE5qFQaVBQ19JJOp3/vxvU/uH0bL/L48WOctKKq0VjMKpchHa/CVJskPa3aEd5DhDnZj15OzwsYgmpIYfEyuMVOb8wcdjp2dBiEj+2t7f/49NOiRQY0EY/FFxYWrl69GomEd3ez9+8/UALKuzdvSgH5+bPnzXrj0sV5FtG2bdqJXL3GTMIYDodS6aT3/nSQPvroI2/zRGCQlri9XyFDE4zsX9PeywuwFwI2xoJ/QXFPnz7d2tpKppLpVNrvkxYXv2tP+FPJJCyYpRLZTjAYID/2++VeqiEqUX/FEzFevabT4bSqYYKFQnF9fX11df3ixYupVMrbQddHpueQKKoE7M8J20vLy5999imO5q/+8qeGqn3+xRdF0/zwgx8Gg2oumw2Hw5qGWLxzD4NZ4H1jsUg8Hjt6SfrHqXwN7tOybRzqi50X6+trJCCvC6c3mIoTrMQGcera1at//MM/WV7+/u7/3JWVwOz8jKYpZIBKQM5k0qp6FC+AToJqMBwJDYsXcCpqyGIIq7u7u5ubmzMzs0jGyeK8SYjiyPnnvnXR4Q4/TQD6+OOPf/1Pv15eXiZ+z83Nz0zNPHn8uGQWL0xlfv/2rZBh4JU7HfaCYNnnQ1mY0rEH94+TU0PAxi9aprm6uspcL1+5HAqL5NXb3QOCKbyIz4/ivr3/7T//67/8/T/+wyeffFKrVCkFfoQJvf8eY1KkALVC/zd3NV3VdXWIvICTU4PvrdXqm1tbLP7FS5cS8QRkefsOwRULed1/3737ZPEp73E0KMUyLeoEshWJpLnVmp6evn3rFozAYD96cSAq7HDYkCQ/cuQqXvOpcUJqyOKhpl5vFPKFeDyeTmcYl1PrHZhMhxGMjjobwe/s7ty9ezdfyOMU/ugP7/ztL//m7371q7/48Y85FDaYp3dm32A9QiFdDbpPL4fnaU5GDfO3yPGqjZVnqyRhM9NzQjKtlhjXvqlxGKSwgT96+OgRdkdKsnDlyura2pdffgm5iUTiJz/56c9+9teJRMrlVFA7iFFgleJWRijkH0aO9xpOQg1JPSnJbnb38ZPHJPuZTMbVh7f7pVhgJJvNVqtVGNGN0Or6xl4uv7Dw1q1btz77/PN/++STtY1NdIfW7HIZ4/JOHgCY0gRZIv17DUPFwCkfWS9Fc9kuowISl0uXLieTSccWPLCSiBxXwu+9XK414dN13PMESR2qmJqamp2dmfBLX3/9zeMnT6kxaf/63jcii00OlsVyIWrxWCIijeaTEgN3ioupVus4342NTb9fImAzxE6ERixYhHuHhZyeQjmby1FGc9jc3Nzid98tff+9qul//qd/9ouf/+LGjXc417QsXWOOIr70b00cSaEUChukyF7TsDFYNoyN7GXz5PWPHj3a2ty6fft2JjPJ9LzdL6mxLItxU0CWSqWV9Y14LHbhwhRm+NVX/7u9s3Pt2rWFKwthI9Ro1asOiTCoyNJAI6HCpnpIpaiwRyIZMBg14kNRJeu3S0svXmxfu3rN4aXL6bCAizEMA7MiuheKpenpmVgsVrbth48frayuEq1np2cmL2QURSRpZbtC1ssBIvz2AU7xS750OoHavKYRYABqiCm5vUIul//iv/4TU/rwgw8M3SAwebudEbsb1OIIRwkquqY36o3V9fV6rU7OEg5Hmu3mxtbW98vPisWCuLlDyCZhbrbm5mZv3LhB1kd2c2wI5gxMKZmIH12mnRL9UsNhkGKW7CdPn967983777+/cOWtzrlsdLYBJuZ8mrMKd4FAkCKL+pNgRPoTjZPjSvVG3TZNeqP+5njVMCIUkGqQZNm52+N20x3w4twPTCK0oeYxr6NfarCRbHavkC8SmHh7+fJCKBRyvcxrvLhgFyG51WiFjDDZbblq42XgQtW1WCRiGHpAwR1J4oOyLV8TqdQb4mmdeATMdI+acbvdTCTjxGzv/cjQFzUE7L3sHlnJyvMVyS9Nz8zAi3vifh98EL5mo0WRhebxCAFZarSahUIJ6dVIiwNyUFUlJSCKqWa7Xq9RKExmUsQ0p9ee1MChqgXSmfRQ7uMdjb7cO46jUqlaZpmYTRasaiLQQkpvXkBbkv26oXEkpuM855WSicT8LP4Xp+M8J6Bfs1QuU0a1yfT93rOXoyTj80+EI8O5v3ksjleNuO2wkyOdIWDncrk7d+5EIpEjSemAnn0oDlqpGDArVQ1KUoAoRMAGeGCu76cO9/mwLe8M0IMc4X1DRiIR86GxIxkcCo5XjWniLKsYFK/UBEfzQrR24bwToyfv0HVV04LNVsM0LXwvCaFbW8mSpPAjCSOqNbA/QZVzYhfAiyxLRkj3U2GPnhdwjGpY2uxuNp8vPnjwkAB8892b2ALtvc4ix8O/4Imi0ag7/w7oqlEXz5vI1pwGeqAIksUvfnwTqnP713lS5ew/CLxvNBqJxaNO6jMOao5RjeNTxL06Rj8zJ76I04sUjILXzc3NBw8eLC4urq2tkQ3vdwrIJxhUWHaIcz6kqWBixCklGMB5GZpGQiw+w3j4ob/j7KkhsSYn2/YaR41jVMPenZ2s86U3AQKKS0FX4FW/+vqr3F7OCBm1SvX6O+9A5ezsLJa47yru6eKWpZCLk/N1Wp0WcOASzrnteCIWjYTdBzhHjGGIOEY1DIKaOBCQoYQQc/SYZFlOMIN4bGl5efn5M9x2oVC8d+9euVImWnsHibmJ6TFhpsx/etzX6cF3DjhG3BIPGexhAEePYYg4PkKBslXOFYqk/85iHzUykQKLWznZe99+G5BlLaju7u6+9/571Up1YWEBE8M0+rliB4I7yZdKJigmvaZxoS9qAO7TMu1iyWyIB7jg9cyCpu3tbX7Va7X5+fnt3Z21tdWHDx6KJ1OttsjxlOD1t6+HwiEI8s45DoytPdHExYhnFWPSyiv0lfIBjCUSDWcySebmE8/zDyw+vCCHXD5PWygUxqDwOzfeufHhhz+an5tHbisrK3jf3/z7b5aWlgjtHO+deSREwJYkLHr8vIB+VfMS4nDbrpRKJukJ/DgpjDfwrZ1ts2T5fVIutxeORVRFI9pQB9q2ufh0Udd1CrEfvPcDCcX1N1UCdiweicVi3vvxYmBqXCLQSLFo2pYtHBCBS6hPPF4ibyEJsmy7VhdeR3yfIhiIxqJka/lsLp1OG4bR5xWdgE25lCTEe03jxaDUHAA1BDJxnro00bxjJoK4Wq1erlQxInIZastGo4ZZkRGLHKnfy3FcO5mIi2e1Z4R+fU1XsJ4E62QyEQpr5GKkuY4PEhl9NGJcuXwpIFI+8QlgWBuEF1FkkRbqhs72aRbvNDiVajpA/OVypVgQX31yWxwBSbZt4V+UgOKWF32CIZFCpVLJzrPaPt32cDEcalw0G03LskslC0NjggR48emAlsiFBroKuotEQ+LjIC/xO0+Ni3q9gXwI3tST4tE2vHh7+gJ2JysyWcIovmk6EIZPjYuyXSkWSyTBFKd+8WUFgWOv5exvR2PheDzqtpwhRkUNwAER3Uum5XzbAJvgWt6uXmi1mpRLk5mUdKJvMA0XI6SG9ad/8WVjKnfLbog/i+VF967AxeBSnHh3wi9cDBcjpeYVEA7yMU0LV+L41C5JAyojY05nEif7js7QMSZqgAjwdgV2qDBaLe+Pa3TAMGAkM5lS1ZF87OEEGB81LpoN8cnIUtGs1cQfshER7OUYIpFQLBHp+lnsM8G4qXFRrzXEnz8qWw1xr1z88TnDCMXiYVmmphcO2zvuTHE21ACuSwFKtkz6o2pBw9AdE2MwbwQv4Gyo4aLAlYdzffERgMO3x84WY6Wmc61DF+WtEIsg682wJnA21ByB/6fU/G7hTYmUbyDOqemJc2p64pyanjinpifOqemJc2p6YGLi/wDPm+h+cb36tQAAAABJRU5ErkJggg==;rotation=-30;fontFamily=Courier New;" vertex="1" parent="1">
          <mxGeometry x="290" y="40" width="50" height="50" as="geometry" />
        </mxCell>
        <mxCell id="QzGDsle8Kh0UcfLWFKWC-3" value="Register Employee RFID Card Number" style="text;html=1;align=center;verticalAlign=middle;whiteSpace=wrap;rounded=0;rotation=0;fontSize=9;fontFamily=Courier New;" vertex="1" parent="1">
          <mxGeometry x="420" y="140" width="80" height="40" as="geometry" />
        </mxCell>
        <mxCell id="QzGDsle8Kh0UcfLWFKWC-6" value="&lt;span style=&quot;font-size: 10px;&quot;&gt;RFID Card Number&lt;/span&gt;" style="text;html=1;align=center;verticalAlign=middle;whiteSpace=wrap;rounded=0;rotation=15;fontFamily=Courier New;" vertex="1" parent="1">
          <mxGeometry x="305" y="285" width="100" height="5" as="geometry" />
        </mxCell>
        <mxCell id="QzGDsle8Kh0UcfLWFKWC-8" value="&lt;span style=&quot;font-size: 10px;&quot;&gt;RFID Card Number&lt;/span&gt;" style="text;html=1;align=center;verticalAlign=middle;whiteSpace=wrap;rounded=0;rotation=-10;fontFamily=Courier New;" vertex="1" parent="1">
          <mxGeometry x="270" y="320.03" width="52" height="9.17" as="geometry" />
        </mxCell>
      </root>
    </mxGraphModel>
  </diagram>
</mxfile>
